/* XPM */
static char * bckgnd3_xpm[] = {
"32 30 3 1",
" 	c #0000AAAAAAAA",
".	c #000086178617",
"X	c #000065956595",
" ...  XXXX  .... ...  XXXX  ....",
"..  XX....XX  ....  XX....XX  ..",
"  XX...X....XX    XX...X....XX  ",
"XX...... .....X.XX...... .....X.",
"X.............. X.............. ",
"X.X.........X.. X.X.........X.. ",
"X.. ......... . X.. ......... . ",
"X.............. X.............. ",
"X.............. X.............. ",
"X.............. X.............. ",
"X.............. X.............. ",
"X.X.........X.. X.X.........X.. ",
"X.. ......... . X.. ......... . ",
"X.............. X.............. ",
". .....X......  . .....X......  ",
"XX  .... ...  XXXX  .... ...  XX",
"..XX  ....  XX....XX  ....  XX..",
"....XX    XX...X....XX    XX...X",
" .....X.XX...... .....X.XX......",
"....... X.............. X.......",
"....X.. X.X.........X.. X.X.....",
"..... . X.. ......... . X.. ....",
"....... X.............. X.......",
"....... X.............. X.......",
"....... X.............. X.......",
"....... X.............. X.......",
"....X.. X.X.........X.. X.X.....",
"..... . X.. ......... . X.. ....",
"....... X.............. X.......",
"......  . .....X......  . .....X"};
