/* XPM */
static char * freebsd_menu1_xpm[] = {
/* width height num_colors chars_per_pixel */
"25 130 5 1",
/* colors */
" 	s None	c None",
".	c white",
"X	c #c0c0c0",
"o	c black",
"O	c #bfbfbf",
/* pixels */
"                         ",
"                         ",
"                         ",
"                         ",
"                         ",
"                         ",
"                         ",
"    ...       ....       ",
"    .XXX    ...XXXX      ",
"    .XXXo  ..XXXXXXX     ",
"    .XXXo  .XXXXXXXXX    ",
"    .XXXo  .XXXXXXXXXo   ",
"    .XXXo ..XXXXXXXXXX   ",
"    .XXXo .XXXXoooXXXXo  ",
"    .XXXo .XXXXo  .XXXo  ",
"    .XXXo .XXXoo  .XXXo  ",
"    .XXXo..XXXo   .XXXo  ",
"    .XXXXXXXXXo   .XXXo  ",
"    .XXXXXXXXXo  ..XXXo  ",
"     XXXXXXXXXo   XXXoo  ",
"      ooooooooo    ooo   ",
"                         ",
"                         ",
"         .......         ",
"       ...XXXXXXX.       ",
"      ..XXXXXXXXXXX      ",
"     ..XXXXXXXXXXXXX     ",
"    ..XXXXXXXXXXXXXXX    ",
"    .XXXXXXXXXXXXXXXXo   ",
"    .XXXXoooXXXooXXXXXo  ",
"    .XXXoo  .XXoOOXXXXo  ",
"    .XXXo  ..XXXOO.XXXo  ",
"    .XXXX...XXXXoO.XXXo  ",
"     XXXXXXXXXXXoO.XXXo  ",
"     .XXXXXXXXXXXo.XXXo  ",
"      XXXXXXXXXXoo XXoo  ",
"       XXXXXXXXXo   oo   ",
"        XXXXXXooo        ",
"   ......oooooo          ",
"   .XXXXXXX              ",
"   .XXXXXXXX             ",
"   .XXXXXXXXo            ",
"   .XXXXXXoXX            ",
"    XXXXXXoXXo           ",
"      ooooo oo           ",
"                         ",
"                         ",
"                         ",
"                         ",
"                         ",
"                         ",
"                         ",
"                         ",
"           ......        ",
"         ...XXXXXX.      ",
"        ..XXXXXXXXXX     ",
"        .XXXXXXXXXXXX    ",
"       ..XXooooooooXXo   ",
"       .XXoo        XX   ",
"       .Xoo         .Xo  ",
"       .Xo          .Xo  ",
"       .X............Xo  ",
"       .XXXXXXXXXXXXXXo  ",
"       .XXXXXXXXXXXXXXo  ",
"       .XXXXXXXXXXXXXXo  ",
"        XooooooooooooXo  ",
"         o            o  ",
"       ...     ....      ",
"        XXX  ...XXXX     ",
"       ..XXo .XXXXXXX    ",
"       .XXoo..XXXXXXXo   ",
"       .Xoo..XXXXXooXX   ",
"       .Xo .XXXXXoo .Xo  ",
"        X...XXXXoo ..Xo  ",
"        .XXXXXXXo ..XXo  ",
"         XXXXXooo .XXoo  ",
"          XXXoo    XXX   ",
"           ooo      ooo  ",
"                         ",
"         ...    ...      ",
"        ..XXX  ..XXX     ",
"        .XXXXX .XXXXX    ",
"       ..XXXXX..XXXXXX   ",
"       .XXoooXXXXoooXXo  ",
"       .Xoo  .XXoo  .Xo  ",
"       .X.....XX.....Xo  ",
"       .XXXXXXXXXXXXXXo  ",
"       .XXXXXXXXXXXXXXo  ",
"       .XXXXXXXXXXXXXXo  ",
"        XooooooooooooXo  ",
"         o            o  ",
"            ....   .     ",
"           ..XXXX  .X    ",
"           .XXXXXo  XX   ",
"           .Xoo.Xo ..Xo  ",
"           .XX..X...XXo  ",
"            XXXXXXXXXXo  ",
"             XXXXXXXXoo  ",
"              XXXXXXoo   ",
"            ....ooo.o    ",
"           ..XXXX  .X    ",
"           .XXXXXo  XX   ",
"           .Xoo.Xo ..Xo  ",
"           .XX..X...XXo  ",
"            XXXXXXXXXXo  ",
"             XXXXXXXXoo  ",
"              XXXXXXoo   ",
"           ..  oooooo    ",
"           .XX           ",
"           .XXo     .    ",
"            X........X   ",
"           ..XXXXXXXXXo  ",
"           .XXXXXXXXXXo  ",
"           .XXXXXXXXXXo  ",
"       ...  XooooooooXo  ",
"       .XXX  o        o  ",
"       .XXoo....         ",
"       .Xoo  XXXX        ",
"       .Xo   .XXoo       ",
"       .Xo   .XXo   .    ",
"       .X.....XX.....X   ",
"       .XXXXXXXXXXXXXXo  ",
"       .XXXXXXXXXXXXXXo  ",
"       .XXXXXXXXXXXXXXo  ",
"        XooooooooooooXo  ",
"         o            o  ",
"                         ",
"                         ",
"                         ",
"                         "};
