/* XPM */
static char * linux-menu_xpm[] = {
"25 135 4 1",
" 	c None s None",
".	c white",
"X	c #c0c0c0",
"o	c black",
"                         ",
"                         ",
"                         ",
"                         ",
"                         ",
"                         ",
"                         ",
"                         ",
"   .                     ",
"   .X      ......        ",
"   .XX    ..XXXXXX.      ",
"   .XXX   .XXXXXXXXX     ",
"   .XXXo ..XXXXXXXXXX    ",
"   .XXXo .XXXXXXXXXXXo   ",
"   .XXXo .XXXoooooXXXX   ",
"   .XXXo .XXoo     oXXo  ",
"   .XXXo  XXo       .Xo  ",
"   .XXXXX..Xo   ..  .Xo  ",
"    XXXXXXXXo  ..XX..Xo  ",
"     ooooXXXX  .XXXXXXo  ",
"          oooo  XXXXXoo  ",
"                 XXXoo   ",
"      ........    ooo    ",
"    ...XXXXXXXX..        ",
"    .XXXXXXXXXXXXX.      ",
"   ..XXXXXXXXXXXXXXX     ",
"   .XXXXXXXXXXXXXXXXX    ",
"   .XXooooooXooXXXXXXo   ",
"   .Xoo     .X  ooXXXX   ",
"   .Xo      .XX    oXXo  ",
"    XXX......XXo    .Xo  ",
"    .XXXXXXXXXXo .. .Xo  ",
"     XXXXXXXXXoo..XX.Xo  ",
"      XXXXXXXXo .XXXXXo  ",
"       oXXXXXoo  XXXXoo  ",
"         ooooo    XXoo   ",
"    ...            oo    ",
"   ..XXX                 ",
"   .XXXXX                ",
"   .XXXXoX               ",
"    XXXXo X              ",
"     XXoo  X             ",
"      oo    o            ",
"                         ",
"                         ",
"                         ",
"                         ",
"                         ",
"                         ",
"                         ",
"                         ",
"                         ",
"                         ",
"                    .    ",
"         .          .X   ",
"         .X        ..Xo  ",
"         .Xo      ..XXo  ",
"         .XX     ..XXXo  ",
"         .XXX   ..XXXXo  ",
"          XoXX ..XXXXXo  ",
"           o XX.XXXXXXo  ",
"            ..XXXXXXo o  ",
"         . ..XXXXXXo     ",
"         .X.XXXXXXoo     ",
"         .XXXXXXoXX .    ",
"         .XXXXXoo XX.X   ",
"         .XXXXoo   XXXo  ",
"         .XXXoo     XXo  ",
"         .XXoo       Xo  ",
"         .Xoo        Xo  ",
"          Xo        . o  ",
"           o        .Xo  ",
"         ............Xo  ",
"         .XXXXXXXXXXXXo  ",
"         .XXXXXXXXXXXXo  ",
"         .XXXXXXXXXXXX   ",
"         .XXXXXXXXXXoo   ",
"          XooooooooXoo   ",
"           o       .X    ",
"                   .XX   ",
"                  ..XXo  ",
"         ..........XXXo  ",
"         .XXXXXXXXXXXXo  ",
"         .XXXXXXXXXXXXo  ",
"         .XXXXXXXXXXXoo  ",
"         .XXXXXXXXXXoo   ",
"         .Xoooooooooo    ",
"          Xo             ",
"           o        .    ",
"                    .X   ",
"           ..........Xo  ",
"          ..XXXXXXXXXXo  ",
"         ..XXXXXXXXXXXo  ",
"         .XXXXXXXXXXXXo  ",
"         .XXXXXXXXXXXXo  ",
"         .XXXooooooooXo  ",
"         .XXoo           ",
"          XXo            ",
"           Xo       .    ",
"         ...X........X   ",
"         .XXXXXXXXXXXXo  ",
"         .XXXXXXXXXXXXo  ",
"         .XXXXXXXXXXXXo  ",
"         .XXXXXXXXXXXXo  ",
"         .XooooooooooXo  ",
"          Xo         Xo  ",
"           o        . o  ",
"                    .X   ",
"    ..   ............Xo  ",
"   ..XX  .XXXXXXXXXXXXo  ",
"   .XXXX .XXXXXXXXXXXXo  ",
"    XXXXo.XXXXXXXXXXXXo  ",
"     XXoo.XXXXXXXXXXXXo  ",
"      oo .XooooooooooXo  ",
"          Xo         Xo  ",
"           o   ...... o  ",
"                XXXXXX   ",
"                 ooXXXo  ",
"                   .XXo  ",
"                    XXo  ",
"                    .Xo  ",
"                    .Xo  ",
"   .                .Xo  ",
"   .X               .Xo  ",
"   .Xo...............Xo  ",
"   .XXXXXXXXXXXXXXXXXXo  ",
"   .XXXXXXXXXXXXXXXXXXo  ",
"   .XXXXXXXXXXXXXXXXXXo  ",
"   .XXXXXXXXXXXXXXXXXXo  ",
"   .XooooooooooooooooXo  ",
"    Xo               Xo  ",
"     o                o  ",
"                         ",
"                         ",
"                         "};
