/* XPM */
static char * mini_mouse_xpm[] = {
"16 14 3 1",
" 	c None",
".	c #FFFFFFFFFFFF",
"X	c #000000000000",
"    ........    ",
"   ..........   ",
"   .XX.XX.XX.X  ",
"   .XX.XX.XX.X  ",
"   .XX.XX.XX.X  ",
"   ..........X  ",
"   ..........X  ",
"   ..........X  ",
"   ..........X  ",
"   ..........X  ",
"   ..........X  ",
"    ........X   ",
"     ......X    ",
"     XXXXXX     "};
