/* XPM */
static char *checkmark[] = {
/* width height ncolors chars_per_pixel */
"11 11 2 1",
/* colors */
"@ c #000000",
"_ s none m none c none",
/* pixels */
"__________@",
"_________@@",
"________@@@",
"_______@@@_",
"_@@___@@@__",
"@@@__@@@___",
"@@@_@@@____",
"@@@@@@_____",
"@@@@@______",
"@@@@_______",
"_@@________"
};
