/* XPM */
static char * mini-frame_xpm[] = {
"16 16 3 1",
"     c None s None",
".    c red",
"#    c black",
"                ",
"     .....      ",
"    .#####.     ",
"   .# ...  .    ",
"  .# .###.  .   ",
"    .# .  ..#   ",
"   .# .#. .#    ",
"  .# .#  .# .   ",
"    .#. .# .#   ",
"   ..  .# .#    ",
"  .# .   .# .   ",
"   .  ...# .#   ",
"    .  ## .#    ",
"     .....#     ",
"      ####      ",
"                "};
