/* XPM */
static char * image_name[] = {
"14 14 38 1",
" 	c #FFFFFFFFFFFF",
".	c #D75CDF7DE79D",
"X	c #A699A289A699",
"o	c #CF3CC71BCF3C",
"O	c #D75CD34CD75C",
"+	c #AEBA61856185",
"@	c #5144A2894924",
"#	c #861779E78617",
"$	c #AEBAAEBAB6DA",
"%	c #AEBAAAAAAEBA",
"&	c #618561856185",
"*	c #492449245144",
"=	c #38E36DB6A699",
"-	c #E79DE79DEFBE",
";	c #71C675D671C6",
":	c #71C679E78617",
">	c #186120812081",
",	c #51445555FFFF",
"<	c #10402CB2F7DE",
"1	c #30C271C65965",
"2	c #00001C718E38",
"3	c #514455554924",
"4	c #514471C68E38",
"5	c #28A25D754924",
"6	c #C71BBAEAC71B",
"7	c #A6999E79A699",
"8	c #96589658AEBA",
"9	c #AEBAB2CACF3C",
"0	c #AEBAA699AEBA",
"q	c #BEFBB6DABEFB",
"w	c #000000000000",
"e	c #9E799A699E79",
"r	c #BEFBC30BCF3C",
"t	c #965896589658",
"y	c #B6DAAEBAB6DA",
"u	c #000008200820",
"i	c #BEFBC30BBEFB",
"p	c #AEBAAEBAAEBA",
"             .",
".............X",
".oOoo+@#+$OoO%",
"O.o&&*===&.o-%",
".o%;:>,<,1OoOX",
"OOo>>2,,,&-oOX",
"oo-3242=*56oo7",
"oo6::#89@#0oo8",
"oqo&&*9o>w;o9e",
"oqo&1&33;#8rot",
"oqo&14>w3&oqy8",
"q09::9:>wu@$qt",
"yqyq9qq$qX9i$e",
"pttt8t8tt8tte;"};
