/* XPM */
static char * image_name[] = {
"14 14 39 1",
" 	c #FFFFFBEEFFFF",
".	c #C71BBAEAC71B",
"X	c #D75CDF7DE79D",
"o	c #CF3CC71BCF3C",
"O	c #FFFFF3CEFFFF",
"+	c #8E388A288E38",
"@	c #BEFBC30BCF3C",
"#	c #AEBAAEBAB6DA",
"$	c #208128A25144",
"%	c #71C679E78617",
"&	c #514471C68E38",
"*	c #69A669A671C6",
"=	c #79E79248B6DA",
"-	c #186120812081",
";	c #FFFFFFFFFFFF",
":	c #000000001861",
">	c #79E786179E79",
",	c #BEFBBAEABEFB",
"<	c #BEFBB6DABEFB",
"1	c #B6DAAEBAB6DA",
"2	c #410338E34103",
"3	c #000030C20820",
"4	c #618561856185",
"5	c #30C234D330C2",
"6	c #5144A2894924",
"7	c #208124929658",
"8	c #E79DE79DEFBE",
"9	c #28A25D754924",
"0	c #AEBA61856185",
"q	c #861779E78617",
"w	c #000000000000",
"e	c #965896589658",
"r	c #B6DA45145965",
"t	c #082004100820",
"y	c #965814510820",
"u	c #AEBAB2CA28A2",
"i	c #492449245144",
"p	c #30C271C65965",
"a	c #28A24D349658",
"             .",
"Xo o o o o Oo+",
"@ X@XX#X@XX@$+",
"oO%&*&*=%&%&-+",
"o;O;@;%O;oX+:>",
",;<1.#*%%o123*",
". -#o$%%4X#-:>",
"1;5<@*%678#9-*",
"1;-922%2-222:0",
"1 24**q&*%%02*",
"1owe*r+*$+*%:>",
"#.t49y*2-ruy-*",
"ei-:----:-:-$&",
"%p*a&$***&**>2"};
