/* XPM */
static char * image_name[] = {
"14 14 31 1",
" 	c #E79DE79DEFBE",
".	c #CF3CC71BCF3C",
"X	c #AEBAAEBAAEBA",
"o	c #C71BBAEAC71B",
"O	c #AEBAAEBAB6DA",
"+	c #AEBAB2CA28A2",
"@	c #AEBAA69971C6",
"#	c #AEBAAAAAAEBA",
"$	c #A6999E79A699",
"%	c #71C675D671C6",
"&	c #FFFFFFFF0000",
"*	c #E79DE38D0000",
"=	c #410338E34103",
"-	c #5965514428A2",
";	c #514455554924",
":	c #965896589658",
">	c #BEFBC30BBEFB",
",	c #618561856185",
"<	c #AEBA59650820",
"1	c #8E38861779E7",
"2	c #28A22CB230C2",
"3	c #208120812081",
"4	c #082004100820",
"5	c #BEFBBAEABEFB",
"6	c #000008200820",
"7	c #30C234D330C2",
"8	c #9E799A699E79",
"9	c #8E388A288E38",
"0	c #AEBAB2CACF3C",
"q	c #A699A289A699",
"w	c #96589658AEBA",
"             .",
".............X",
"...........o.X",
"..o..o.O+@...X",
"...#$X%+&*@..X",
".oX****&&=-..$",
".X.%-+;*&*@.o:",
"..>o.oX,+<1..:",
"oX#232344==.5$",
".X#34444677oo:",
"oX.8#9:;6690X:",
"XXXXXqX.:XqXO:",
"XXXXXXXXXXXXX8",
"X8:8::8:w::8:9"};
