/* XPM */
static char *maximize[] = {
/* width height num_colors chars_per_pixel */
"    14    14        3            1",
/* colors */
". c None",
"a c Red2",
"b c Yellow2",
/* pixels */
"..............",
".aaa.....aa...",
"..aaa...aa....",
"...aaa.aa.....",
"...aa.aa......",
"..aa.aaa......",
".aa...aaa.....",
"aa.....aaa....",
"..............",
".......bbbb...",
"......bb..bb..",
".....bb....bb.",
".....bbbbbbbb.",
".....bb....bb."
};
