/* XPM */
static char* xpm = {
"16 16 15 2",
"_` c #949494",
"_a c #ffffff",
"_b c #dedede",
"_c c #636363",
"_d c #3cf834",
"_e c #adadad",
"_f c #f81440",
"_g c #bdbdbd",
"_h c #636363",
"_i c #737373",
"_j c #000000",
"_k c #bdbdbd",
"_l c #424242",
"_m c #212121",
".. c none",
".................._`_b..........", 
"................_c_d_`_b........", 
".............._`_f_f_b_b_b......", 
"...._`_`_`_c_c_b_b_b_b_b_b_b....", 
"...._b_b_b_b_b_b_b_b_b_b_b_b_b..", 
".._`_g_g_g_b_b_b_b_b_b_b_b_b_c..", 
".._`_`_g_b_b_b_b_b_e_b_b_b_h_c..", 
".._c_g_b_i_b_b_b_e_b_b_b_h_e_c..", 
".._`_`_i_b_b_b_b_b_b_b_h_e_g_i..", 
"_a_e_`_`_g_b_b_b_b_b_h_e_i_i_i_g", 
"_a_e_`_`_h_g_b_b_b_h_e_g_`_`_i_l", 
"_a_e_`_`_`_`_e_e_h_h_i_i_`_`_i_l", 
"_a_e_`_`_`_`_`_`_`_`_`_`_`_`_i_l", 
"_g_`_i_i_i_i_i_i_i_i_i_i_i_i_i_l", 
"................................", 
"................................", 
} ;
