/* XPM */
static char * mini_gimp_xpm[] = {
/* width height num_colors chars_per_pixel */
"28 21 124 2",
/* colors */
"  	c None",
". 	c #7a7264",
"X 	c #f6f6f4",
"o 	c #cabea4",
"O 	c #969284",
"+ 	c #766e5c",
"@ 	c #f2f2f4",
"# 	c #cec6b4",
"$ 	c #a69e88",
"% 	c #eaeaec",
"& 	c #6e6a54",
"* 	c #6e6654",
"= 	c #e6e6e4",
"- 	c #eaeae4",
"; 	c #9e967c",
": 	c #928a74",
"> 	c White",
", 	c #726a54",
"< 	c #6a624c",
"1 	c #666250",
"2 	c #dededb",
"3 	c #fafafc",
"4 	c #a2967c",
"5 	c #8e8673",
"6 	c #dadadc",
"7 	c #5e5645",
"8 	c #8a867c",
"9 	c #eeeeec",
"0 	c #c2c2bc",
"q 	c #9a8e77",
"w 	c #827a64",
"e 	c #7a725c",
"r 	c #aaa6a4",
"t 	c #cecac5",
"y 	c #726a5c",
"u 	c #665e4c",
"i 	c #5e5a4c",
"p 	c #56564c",
"a 	c #bababc",
"s 	c #cac6be",
"d 	c #928674",
"f 	c #867e6b",
"g 	c #6e6a5c",
"h 	c #5a5244",
"j 	c #969694",
"k 	c #d6d6d3",
"l 	c #cececc",
"z 	c #dedad4",
"x 	c #faf6f4",
"c 	c #7e7664",
"v 	c #564e41",
"b 	c #524a3c",
"n 	c #4e4a3c",
"m 	c #524e3e",
"M 	c #a6a6a4",
"N 	c #c2c2c4",
"B 	c #565254",
"V 	c #464644",
"C 	c #222224",
"Z 	c #b2b2ac",
"A 	c #a2a2a4",
"S 	c black",
"D 	c #6a6a6a",
"F 	c #cacacc",
"G 	c #c2beb7",
"H 	c #625a4c",
"J 	c #565245",
"K 	c #464236",
"L 	c #463e34",
"P 	c #3e3e2c",
"I 	c #828283",
"U 	c #aeaeac",
"Y 	c #d2d2d4",
"T 	c #3a3a3c",
"R 	c #2e2e2a",
"E 	c #6e6e6c",
"W 	c #5a5a5b",
"Q 	c #161614",
"! 	c #3e3a2d",
"~ 	c #3e3e34",
"^ 	c #5e5e5c",
"/ 	c #868684",
"( 	c #c6c6c3",
") 	c #565654",
"_ 	c #4e463b",
"` 	c #423a2c",
"' 	c #32322c",
"] 	c #727274",
"[ 	c #323234",
"{ 	c Gray40",
"} 	c #827664",
"| 	c #3e362c",
" .	c #363632",
"..	c #bebebc",
"X.	c #4a4a4c",
"o.	c #626264",
"O.	c #4e4e4c",
"+.	c #aaaaac",
"@.	c #323224",
"#.	c #423e3c",
"$.	c #423a34",
"%.	c #3a3a34",
"&.	c #1a1a1c",
"*.	c #66625c",
"=.	c #b6b6b4",
"-.	c #1e1a14",
";.	c #120e0c",
":.	c #221e1c",
">.	c #322e28",
",.	c #4a4a44",
"<.	c #6e6a64",
"1.	c #2e2a24",
"2.	c #1e1e1c",
"3.	c #424244",
"4.	c #a2a29c",
"5.	c #3e3e3c",
"6.	c #262623",
"7.	c #5e5a54",
"8.	c #0e0e0c",
"9.	c #8a8a8c",
"0.	c #2a2a2c",
"q.	c #2a2624",
"w.	c #929294",
"e.	c #7a7a7b",
/* pixels */
"                                                        ",
"                                                . X     ",
"            o                                 O + @     ",
"            # $ @                           % & * =     ",
"            - ; : @                       > , < 1 2     ",
"          3 = 4 5 + 6 X             > > > * 1 7 8 6     ",
"        >   9 0 q w e + r         t y , * u i p a       ",
"            @ s ; d f w w w e g < < u u 7 7 h j a       ",
"            % k l s z > > x c , u 7 v b n m 7 M N       ",
"    B V C Z > A S > > k D F G , H J K L P n I U l       ",
"    A Y T R : E D d @ W Q B r 1 J b L ! ~ ^ / (         ",
"  M B W T V ) c w f f 6 z l < u m _ ` ! ' ] M 2         ",
"  9 [ T V W { , e } c . y * u _ n K | !  ./ ..          ",
"    X.X.o.] i 7 H , * < 1 7 R K L ` ! R O.+.            ",
"      { ] I _ n J H i 7 h @.#.{ $.%.! &.*.N             ",
"        =.L ' ' @.-.;.:.>.,.<.* $.1.2.3.j               ",
"          F 4.E 5.6.' _ 7.J -.8.Q 6.W 9.                ",
"              / { T 0.2.&.&.C q.5.W w.                  ",
"                +.9.e.E E E e.9.M                       ",
"                                                        ",
"                                                        "};
