/* XPM */
static char *maximize[] = {
/* width height num_colors chars_per_pixel */
"    14    14        3            1",
/* colors */
". c None",
"a c Green2",
"b c Blue2",
/* pixels */
"..aaaaaaaaaaa.",
".aaaaaaaaaaa..",
"aaa.....aaa...",
".......aaa....",
"b..bbbbaa.bbb.",
"b..b.aab.b...b",
"b..bbbb..b....",
"b..bab...b...b",
"b.aba.bb..bbba",
".aaaa.....aaa.",
"aaaaaaaaaaaa..",
"..aaaaaaaa....",
"..............",
".............."
};
