/* XPM */
static char * programs_xpm[] = {
"32 32 15 1",
" 	c None s None",
".	c #808080",
"X	c #FFFFFF",
"o	c #FFFF00",
"O	c #000000",
"+	c #808000",
"@	c #000080",
"#	c #FF0000",
"$	c #800000",
"%	c #0000FF",
"&	c #008000",
"*	c #00FFFF",
"=	c #00FF00",
"-	c #800080",
"?	c #c0c0c0",
"                                ",
"                                ",
"                                ",
"                                ",
"      ........                  ",
"     .Xooooooo.                 ",
"    .??????????.......          ",
"    .XXXXXXXXXXXXXXXXXO         ",
"    .Xo?o?o?o?o?o?o?o?+O        ",
"    .X?o?o?o?o?o?o?o?o+O        ",
"    .Xo?o?o?o?o?o?o?o?+O        ",
"    .X?o?..................O    ",
"    .Xo?o.?????????????????O    ",
"    .X?o?.?@@@@@@@@@XOXOXO?O    ",
"    .Xo?o.?@@@@@@@@@OOOOOO?O    ",
"    .X?o?.?????????????????O    ",
"    .Xo?o.?XXXXXXXXXXXXXXX?O    ",
"    .X?o?.?XXXXXXXXXXXXXXX?O    ",
"    .Xo?o.?XX#$XX%XXXXX&XX?O    ",
"    +++++.?X#o$XX*%%XXX&&X?O    ",
"     OOOO.?X$#$XX%%?XX&=%X?O    ",
"         .?X?$XX-?--XX&&&X?O    ",
"         .?XXXXXXXXXXXXXXX?O    ",
"         .?X...XX...XX...X?O    ",
"         .?XXXXXXXXXXXXXXX?O    ",
"         .?XXXXXXXXXXXXXXX?O    ",
"         .?????????????????O    ",
"         OOOOOOOOOOOOOOOOOOO    ",
"                                ",
"                                ",
"                                ",
"                                "};
