/* XPM */
static char * run_xpm[] = {
"32 32 13 1",
" 	c None s None",
".	c #808080",
"X	c #000000",
"o	c #C0C0C0",
"O	c #000080",
"+	c #FFFFFF",
"@	c #800000",
"#	c #FF0000",
"$	c #0000FF",
"%	c #008000",
"&	c #00FFFF",
"*	c #00FF00",
"=	c #800080",
"                                ",
"                                ",
"                                ",
"                                ",
"                                ",
"                                ",
"         ..................X    ",
"         .oooooooooooooooooX    ",
"         .oOOOOOOOOO+X+X+XoX    ",
"         .oOOOOOOOOOXXXXXXoX    ",
"         .oooooooooooooooooX    ",
"         .o+++++++++++++++oX    ",
"    @@@@@@@@@X++++++++++++oX    ",
"    @#oo#####X++$+++++%+++oX    ",
"     XXXXXXXX+++&$$+++%%++oX    ",
"     .++ooo.X+++$$o++%*$++oX    ",
"     .++ooo.X++=o==++%%%++oX    ",
"     .o.oXo.X+++++++++++++oX    ",
"      .oXo.X++++...++...++oX    ",
"       .+.X+++++++++++++++oX    ",
"       .+.X+++++++++++++++oX    ",
"      .o.o.XoooooooooooooooX    ",
"     .o+ooo.XXXXXXXXXXXXXXXX    ",
"     .++Xoo.X                   ",
"     .+XoXo.X                   ",
"     XXXXXXXX                   ",
"    @#oo#####X                  ",
"    XXXXXXXXXX                  ",
"                                ",
"                                ",
"                                ",
"                                "};
