/* XPM */
static char *solaris95[] = {
/* width height num_colors chars_per_pixel */
"    24   106        4            1",
/* colors */
". c None",
"# c #000000",
"a c #c0c0c0",
"b c #ffffff",
/* pixels */
"........................",
"........................",
"........................",
"........................",
"........................",
"........................",
"........................",
"....##..................",
"...aa#..................",
"..baa#..................",
"..baa#.....#.##.........",
"..baa#....a#aa###.......",
"..baa#...aaaaaaa##......",
"..baa##.baaaaaaaa##.....",
"..baaa##aaaaabaaaa##....",
"..bbbaaaaaab.bbbbaa#....",
"....baaaaa#.....baa##...",
"....bbbbaa#.....bbaa#...",
".......baa.......bba#...",
".....#.bb.........aa#...",
"....a#aa####.....aaa#...",
"...baaaaaaa###..baaa....",
"...aaaaaaaaaa##.baa.....",
"..bababbaaaaaa##bb......",
"..bab#.bbbbaaaaa##......",
"..baa#....bbaaaaa##.....",
"..bba.###..bbaaaaa##....",
"...b.aaa####babbaaa#....",
"....baaaaaaaaa.bbaa##...",
"....bbaaaaaaa#..bbaa#...",
".....bbbaaaaa....bba#...",
".......bbbbb......ba#...",
"..................ba....",
"..................b.....",
"........................",
"........................",
"........................",
".........###............",
"........aaa#....##......",
".......baaa...#aa##.....",
".......baa...aaaaa##....",
".......ba###baaaaaa##...",
".......baaa#aaaabaaa#...",
".......bbaaaaaa.bbba#...",
"...###..bbaaaa...#aa#...",
"..aaa#...bbaa...abaa#...",
".baaa#...#bb...baaaa....",
".baaa...aaa####bbab.#...",
".bbb...baaaaaa#aa##a#...",
".......bbaaaaaaaaaaa#...",
"........babaaaaaaaaa#...",
"........b#bbbbbbbaaa#...",
"........aaa#....bbba....",
".......baaa.......b.....",
".......baa###.......#...",
".......baaaa######.a#...",
".......baaaaaaa###ba#...",
".......bbbaaaaaaa#aa#...",
".........babaaaaaaaaa...",
".........b.bbbbaaaaaa...",
"............#.bbbbaaa...",
"...........a####.bbba...",
"..........aaaaa####b....",
".........aaaaaaaaa##a#..",
"........babbaaaaaaaaa#..",
"........ba#bbaaaaaaaa#..",
"........baa#baabbbaaa#..",
"........baaabba##bbaa#..",
"........bbaaabaa##bba#..",
"....###..bbaabbaaa#aa#..",
"...aaa####bb..baaaaaa#..",
"..baaaaaa####.bbaaaaa...",
"..bbaaaaaaaa###bbbaa....",
"...babaaaaaaaaa##bb..#..",
"...b.bbbbaaaaaaaaa##a#..",
"........bbbbaaaaaaaaa#..",
"...........bbbbaaaaaa#..",
"...........###bbbbaaa#..",
"..........aaaaa##bbba...",
".........aaaaaaaaa#b....",
"........baaaaaaaaa###...",
"........babbbbbaaaaa#...",
"........ba###.bbbbaa##..",
"........baaa#....baaa#..",
"........bbaa####.bbba#..",
".........baaaaa####ba#..",
".........bbbaaaaaaaaa#..",
".....##....baaaaaaaaa...",
"....aa###..bbbbaaaaa....",
"...baaaa#.....bbbbb.....",
"...baaaa......a####.....",
"...baaa.....#aaaaa##....",
"...bab#....aaaaaaaa##...",
"...baa#...baaaaaaaaa##..",
"...baa####aaaabbbbaaa#..",
"...bbaaaaaaaa#...bbaa#..",
"....bbaaaaaaa.....bba#..",
".....baaaaab.......ba#..",
".....bbbba.......##aa#..",
"........b.......aaaaa#..",
"...............baaaaa#..",
"...............bbbaaa...",
".................bbb....",
"..............#.........",
"........................",
"........................"
};
SIMPLE  =                    T                                                  BITPIX  =                    8                                                  NAXIS   =                    2                                                  NAXIS1  =      

             24                                                  NAXIS2  =                  106                                                  HISTORY Written by XV 3.10a                                                     END                           

                                                                                                                                                                                                                                                               

                                                                                                                                                                                                                                                               

                                                                                                                                                                                                                                                               

                                                                                                                                                                                                                                                               

                                                                                                                                                                                                                                                               

                                                                                                                                                                                                                                                               

                                                                                                                                                                                                                                                               

                                                                                                                                                                                                                                                               

                                                                                                                                                                                                                                                               

                                                                           ¿¿¿¿¿¿¿¿¿¿¿¿¿¿¿¿¿¿¿¿¿¿¿¿¿¿¿¿¿¿¿¿¿¿¿¿¿¿¿¿¿¿¿¿¿¿¿¿¿¿¿¿¿¿¿¿¿¿¿¿¿¿
¿¿¿¿¿
¿¿
ÀÀÀ
ÀÀ
¿¿¿¿¿¿¿ÿÀÀÀÀ
¿ÀÿÀÀ
¿¿¿¿¿¿¿¿¿¿¿¿¿¿¿¿¿¿¿¿¿¿¿¿¿¿¿¿¿¿¿¿¿¿¿¿ÿ¿¿¿¿¿¿¿¿¿¿¿¿¿¿¿¿¿¿¿¿¿¿¿ÿÀ¿¿¿¿¿¿¿¿¿¿¿ÿÿÿÿÿ¿¿¿¿¿¿ÿÀ
¿¿¿¿¿ÿÀÿÀÿÿÀÀÀÀÀÀ
ÀÀÀÀÀ
¿¿¿¿¿¿¿¿¿¿¿¿¿¿¿¿¿¿¿¿¿¿¿¿¿¿¿¿¿¿¿¿¿¿¿¿¿¿¿¿¿¿¿¿¿¿¿¿¿¿¿¿¿¿¿¿¿¿¿¿¿¿¿¿¿¿¿¿¿

