/* XPM */
static char *sun-menu[] = {
/* width height num_colors chars_per_pixel */
"    28   114        4            1",
/* colors */
". c None",
"# c #c0c0c0",
"a c #000000",
"b c #ffffff",
/* pixels */
"............................",
"............................",
"............................",
"............................",
"......bbb...................",
"......b##ab.................",
"......b####a................",
"......b####a................",
"......b#aaa.................",
"......b#a...................",
"......b##abb................",
"......b#####abb.............",
"......b########abb....bbb...",
"......b#a#########abb.b#a...",
"......b#aaaa#########ab#a...",
"......b##a...aa#########a...",
"......b##ab.....aa######a...",
"......b####a.......aa###a...",
".......aa##a.........ab#a...",
".........aaa..........b#a...",
".......#..............baa...",
".......#....................",
".......##...................",
".......#####................",
".......#.######.............",
"............######..........",
"...............######.......",
"..................######....",
"..............#.########....",
".......##.##############....",
".......#############.#......",
".......#######.#............",
".......#####................",
".......#.######.............",
"............######.....#....",
"...............######..#....",
"..................######....",
".....................###....",
".......................#....",
".......................#....",
"............................",
"............................",
"............................",
"............................",
"............................",
"............###.............",
"............###....##.......",
"............#....#####......",
"............##...######.....",
".............##.####.###....",
"..............#####....#....",
"......###......###....##....",
".....####......##...#.##....",
".....####...###.....####....",
"...........####.....###.....",
"............#####...........",
"............#.######..#.....",
"...............########.....",
"...........###...######.....",
"...........###......###.....",
"...........##.........#.....",
"...........###..............",
"...........###..............",
"............#####.....#.....",
"............########..#.....",
"............#.#########.....",
".................######.....",
"....................###.....",
".............#........#.....",
"...........######...........",
"...........#########..#.....",
"...........#..#########.....",
"...........#...########.....",
"...........##..##...###.....",
"...........###..#....##.....",
"............###.##....#.....",
".....###.....##..###.##.....",
".....###.........######.....",
"......#####.......#####.....",
"......#.######......##......",
"........#########...........",
"...........#########..#.....",
"..............#########.....",
".................######.....",
"....................###.....",
"............#####.....#.....",
"...........#########........",
"...........#########........",
"...........#.....#####......",
"...........#........##......",
"...........###......###.....",
"............##........#.....",
"............#####.....#.....",
"..............#########.....",
"..............#########.....",
"......##.........#####......",
"......####..................",
"......####......#...........",
"......###......#####........",
"......#......########.......",
"......##.....#########......",
"......##....####....###.....",
".......########......##.....",
"........#######.......#.....",
"........#####.........#.....",
"...........#.........##.....",
"..................#####.....",
"..................#####.....",
"....................###.....",
"............................",
"............................",
"............................",
"............................",
"............................"
};
SIMPLE  =                    T                                                  BITPIX  =                    8                                                  NAXIS   =                    2                                                  NAXIS1  =                   28                                                  NAXIS2  =                  114                                                  HISTORY Written by XV 3.10a                                                     END                                                                                                                                                                                                                                                                                                                                                                                                                                                                                                                                                                                                                                                                                                                                                                                                                                                                                                                                                                                                                                                                                                                                                                                                                                                                                                                                                                                                                                                                                                                                                                                                                                                                                                                                                                                                                                                                                                                                                                                                                                                                                                                                                                                                                                                                                                                                                                                                                                                                                             XXXXXXXXXXXXXXXXXXXXXXXXXXXXXXXXXXXXXXXXXXXXXXXXXXXXXXXXXXXXXXXXXXXXXXXXXXXXXXXXXXXXXXXXXXXXXXXXXXXXXXXXXXXXXXXXXXXXXXXXXXXXXXXXXXXXXXXXXXXXXXXXXXXXXXXXXXXXXXXX¿¿¿XXXXXXXXXXXXXXXXXXXXXXX¿¿¿¿¿XXXXXXXXXXXXXXXXXXXXXXX¿¿¿¿¿XXXXXXXXXXXXXXXX¿XXXXXXXXX¿¿XXXXXXXXXXXXX¿¿¿¿¿XXXXXXXXX¿XXXXXXXXXXXXX¿¿¿¿¿¿¿XXXXXXX¿XXXXXXXXXXXX¿¿¿¿¿¿¿¿XXXXXX¿¿XXXXXXXXXXX¿¿XXXX¿¿¿¿XXXX¿¿¿XXXXXXXXXXX¿¿XXXXX¿¿¿¿¿¿¿¿¿XXXXXXXXXXXX¿XXXXXX¿¿¿¿¿¿¿¿XXXXXXXXXXXXX¿¿¿XXXXXX¿¿¿¿¿XXXXXXXXXXXXXX¿¿¿¿XXXXXX¿XXXXXXXXXXXXXXXXX¿¿¿¿XXXXXXXXXXXXXXXXXXXXXXXX¿¿XXXXXXXXX¿¿¿¿¿XXXXXXXXXXXXXXXXXXXX¿¿¿¿¿¿¿¿¿XXXXXXXXXXXXXXXXXXX¿¿¿¿¿¿¿¿¿XXXXXXXXXXXXXXXXX¿¿¿¿¿XXXXX¿XXXXXXXXXXXXXXXXX¿¿XXXXXXXX¿XXXXXXXXXXXXXXXX¿¿¿XXXXXX¿¿¿XXXXXXXXXXXXXXXX¿XXXXXXXX¿¿XXXXXXXXXXXXXXXXX¿XXXXX¿¿¿¿¿XXXXXXXXXXXXXXXXX¿¿¿¿¿¿¿¿¿XXXXXXXXXXXXXXXXXXX¿¿¿¿¿¿¿¿¿XXXXXXXXXXXXXXXXXXXX¿¿¿¿¿XXXXX¿XXXXXXXXXXXXXXXXXXXXXXXXX¿¿¿XXXXXXXXXXXXXXXXXXXXXX¿¿¿¿¿¿XXXXXXXXXXXXXXXXXXX¿¿¿¿¿¿¿¿¿XXXXXXXXXXXXXXXX¿¿¿¿¿¿¿¿¿XX¿XXXXXXXXXXXXX¿¿¿¿¿¿¿¿¿XXXXXXXXXXXXXXXXX¿X¿¿¿¿¿¿XXXXXX¿¿XXXXXXXXXXXX¿¿¿¿¿XXXXXXX¿¿¿¿¿XXXXXXXXXX¿¿¿XXXXXXXXX¿¿¿¿¿¿XXXXXXXXXX¿¿¿XXXXX¿¿XX¿¿¿X¿¿XXXXXXXXXXXXXXXXX¿¿¿X¿¿XXXX¿XXXXXXXXXXXXXXXX¿¿¿XX¿XXXX¿¿XXXXXXXXXXXXXXXX¿¿XX¿¿XXX¿¿¿XXXXXXXXXXXXXXXX¿XXX¿¿¿¿¿¿¿¿XXXXXXXXXXXXXXXX¿XX¿¿¿¿¿¿¿¿¿XXXXXXXXXXXXXXXX¿¿¿¿¿¿¿¿¿XX¿XXXXXXXXXXXXXXXX¿¿¿¿¿¿XXXXXXXXXXXXXXXXXXXXXXXX¿XXXXXXXX¿XXXXXXXXXXXXXXXXXXXXXXXXX¿¿¿XXXXXXXXXXXXXXXXXXXXXX¿¿¿¿¿¿XXXXXXXXXXXXXXXXX¿X¿¿¿¿¿¿¿¿¿XXXXXXXXXXXXXXXXX¿¿¿¿¿¿¿¿XX¿XXXXXXXXXXXXXXXXX¿¿¿¿¿XXXXX¿XXXXXXXXXXXXXXXX¿¿¿XXXXXXXXXXXXXXXXXXXXXXXXX¿¿¿XXXXXXXXXXXXXXXXXXXXXXXXX¿¿XXXXXXXXX¿XXXXXXXXXXXXXXXX¿¿¿XXXXXX¿¿¿XXXXXXXXXXXXXXXX¿¿¿XXX¿¿¿¿¿¿XXXXXXXXXXXXXXXXXXXX¿¿¿¿¿¿¿¿XXXXXXXXXXXXXXXXX¿X¿¿¿¿¿¿XX¿XXXXXXXXXXXXXXXXX¿¿¿¿¿XXXXXXXXXXXXXXXXXXXXXX¿¿¿¿XXXXX¿¿¿XXXXXXXXXX¿¿¿¿XXX¿¿¿XXXXX¿¿¿¿XXXXXXXXX¿¿¿¿XXXXXX¿¿XXX¿X¿¿XXXXXXXXXX¿¿¿XXXXXX¿¿¿XXXX¿¿XXXXXXXXXXXXXXXXXX¿¿¿¿¿XXXX¿XXXXXXXXXXXXXXXXX¿¿X¿¿¿¿X¿¿¿XXXXXXXXXXXXXXXX¿¿XXX¿¿¿¿¿¿XXXXXXXXXXXXXXXXX¿XXXX¿¿¿¿¿XXXXXXXXXXXXXXXXXX¿¿¿XXXX¿¿XXXXXXXXXXXXXXXXXXX¿¿¿XXXXXXXXXXXXXXXXXXXXXXXXXXXXXXXXXXXXXXXXXXXXXXXXXXXXXXXXXXXXXXXXXXXXXXXXXXXXXXXXXXXXXXXXXXXXXXXXXXXXXXXXXXXXXXXXXXXXXXXXXXXXXXXXXXXXXXXXXXXXXXXXXXXXXXXXXXXXXXXXXXXXXXXXXXXXXXXX¿XXXXXXXXXXXXXXXXXXXXXXXXXXX¿XXXXXXXXXXXXXXXXXXXXXXXXX¿¿¿XXXXXXXXXXXXXXXXXXXXXX¿¿¿¿¿¿XXXXXXXXXXXXXXXXXXX¿¿¿¿¿¿XX¿XXXXXXXXXXXXXXXX¿¿¿¿¿¿XXXXX¿XXXXXXXXXXX¿X¿¿¿¿¿¿XXXXXXXXXXXXXXXXXXXX¿¿¿¿¿XXXXXXXXXXXXXXXXXXXXXXX¿¿¿¿¿¿¿X¿XXXXXXXXXXXXXXXXXXX¿¿¿¿¿¿¿¿¿¿¿¿¿X¿XXXXXXXXXXXXX¿¿X¿¿¿¿¿¿¿¿¿¿¿¿¿¿XXXXXXXXXXXXXXXXXX¿X¿¿¿¿¿¿¿¿XXXXXXXXXXXXXXXXXXXXXX¿¿¿¿¿¿XXXXXXXXXXXXXXXXXXX¿¿¿¿¿¿XXXXXXXXXXXXXXXXXXX¿¿¿¿¿¿XXXXXXXXXXXXXXXXX¿X¿¿¿¿¿¿XXXXXXXXXXXXXXXXXXXX¿¿¿¿¿XXXXXXXXXXXXXXXXXXXXXXX¿¿XXXXXXXXXXXXXXXXXXXXXXXXXX¿XXXXXXXXXXXXXXXXXXXXXXXXXXX¿XXXXXXXXXXXXXXˇ  XXXXXXXXXXXX   XXXXXXXXXXˇ¿ XXXXXXXXXX  ¿¿ XXXXXXXXX ˇ¿ XXXXXXXXXˇ¿¿¿¿ XXXXXXX  ¿¿¿ XXXXXXXXXˇ¿¿ ˇXXXXX  ¿¿¿¿¿¿ XXXXXXXXXˇ¿¿ XXX  ¿¿¿¿¿¿¿¿¿ XXXXXXXXXˇ¿    ¿¿¿¿¿¿¿¿¿ ˇ¿ XXXXXXXXXˇ¿ ¿¿¿¿¿¿¿¿¿ ˇˇXˇ¿ XXXXXXXXXˇ¿¿¿¿¿¿¿¿ ˇˇXXXXˇˇˇXXXXXXXXXˇ¿¿¿¿¿ ˇˇXXXXXXXXXXXXXXXXXXXˇ¿¿ ˇˇXXXXXXXXXXXXXXXXXXXXXXˇ¿ XXXXXXXXXXXXXXXXXXXXXXXXXˇ¿   XXXXXXXXXXXXXXXXXXXXXXXˇ¿¿¿¿ XXXXXXXXXXXXXXXXXXXXXXˇ¿¿¿¿ XXXXXXXXXXXXXXXXXXXXXXˇ¿¿ ˇXXXXXXXXXXXXXXXXXXXXXXXˇˇˇXXXXXXXXXXXXXXXXXXXXXXXXXXXXXXXXXXXXXXXXXXXXXXXXXXXXXXXXXXXXXXXXXXXXXXXXXXXXXXXXXXXXXXXXXXXXXXXXXXXXXXXXXXXXXXXXXXXXXXXXXXXXXXXXXXX                                                                                                                                                                                                                                                                                                                                                                                                                                                                                                                                                                                                                                                                                                                                                                                                                                                                                                                                                                                                                                                                                                                                                                                                                                                                                                                                                                                                                                                                                                                                                                                                                                                                                                                                                                                                                                                                                                                                                                                                                                                                                                                                                                                                                                                                                                                                                                                                                                                                                                                                                                                                                                                                        
