/* XPM */
static char * utilities_menu_xpm[] = {
"24 200 16 1",
" 	s None	c None",
".	c #f0f0f0",
"X	c #e0e0e0",
"o	c #d0d0d0",
"O	c #c0c0c0",
"+	c #b0b0b0",
"@	c #a0a0a0",
"#	c #909090",
"$	c #808080",
"%	c #707070",
"&	c #606060",
"*	c #505050",
"=	c #404040",
"-	c #303030",
";	c #202020",
":	c black",
"                        ",
"                        ",
"                        ",
"                        ",
"                        ",
"                        ",
"                        ",
"                        ",
"                        ",
"                        ",
"                        ",
"                        ",
"                        ",
"                        ",
"                        ",
"                        ",
"                        ",
"                        ",
"                        ",
"                        ",
"                        ",
"                        ",
"                        ",
"                        ",
"                        ",
"                        ",
"                       .",
"                      ..",
"                     ...",
"                    ....",
"                   .....",
"                  ......",
"                 .......",
"                ........",
"               .........",
"              .........X",
"             .........XX",
"            .........XXX",
"           .........XXXX",
"          .........XXXXX",
"         .........XXXXXX",
"        .........XXXXXXX",
"       .........XXXXXXXX",
"      .........XXXXXXXXX",
"     .........XXXXXXXXXo",
"    .........XXXXXXXXXoo",
"   .........XXXXXXXXXooo",
"  .........XXXXXXXXXoooo",
" .........XXXXXXXXXooooo",
".........XXXXXXXXXoooooo",
"........XXXXXXXXXooooooo",
".......XXXXXXXXXoooooooo",
"......XXXXXXXXXooooooooo",
".....XXXXXXXXXoooooooooO",
"....XXXXXXXXXoooooooooOO",
"...XXXXXXXXXoooooooooOOO",
"..XXXXXXXXXoooooooooOOOO",
".XXXXXXXXXoooooooooOOOOO",
"XXXXXXXXXoooooooooOOOOOO",
"XXXXXXXXoooooooooOOOOOOO",
"XXXXXXXoooooooooOOOOOOOO",
"XXXXXXoooooooooOOOOOOOOO",
"XXXXXoooooooooOOOOOOOOO+",
"XXXXoooooooooOOOOOOOOO++",
"XXXoooooooooOOOOOOOOO+++",
"XXoooooooooOOOOOOOOO++++",
"XoooooooooOOOOOOOOO+++++",
"oooooooooOOOOOOOOO++++++",
"ooooooooOOOOOOOOO+++++++",
"oooooooOOOOOOOOO++++++++",
"ooooooOOOOOOOOO+++++++++",
"oooooOOOOOOOOO+++++++++@",
"ooooOOOOOOOOO+++++++++@@",
"oooOOOOOOOOO+++++++++@@@",
"ooOOOOOOOOO+++++++++@@@@",
"oOOOOOOOOO+++++++++@@@@@",
"OOOOOOOOO+++++    @@@@@@",
"OOOOOOOO   +++     @@@@@",
"OOOOOOO   +++      @@@@@",
"OOOOOO+   +++       @@@@",
"OOOOO++   ++        @@@#",
"OOOO+++   ++   @@   @@##",
"OOO++++   ++   @@   @###",
"OO+++++        @@   ####",
"O++++++       @@@   ####",
"+++++++       @@@   ####",
"++++++++     @@@    ####",
"+++++++@@    @@@   #####",
"++++++@@@@@@@@@#########",
"+++++@@@@@@@@@#########$",
"++++@@@@@@@@@#########$$",
"+++@@@@@@@@    #   ##$$$",
"++@@@@@@@      ##   $$$$",
"+@@@@@@@       ##   $$$$",
"@@@@@@@        ##   $$$$",
"@@@@@@@        ##   $$$$",
"@@@@@@@   ##   #$   $$$$",
"@@@@@@#   ##   $$   $$$$",
"@@@@@##   ##   $    $$$%",
"@@@@###             $$%%",
"@@@#####           $$%%%",
"@@######           $%%%%",
"@########         $%%%%%",
"#########$$     $$%%%%%%",
"########$$$$$$$$$%%%%%%%",
"#######$$$$$$$$$%%%%%%%%",
"######$$$$$$$$$%%%%%%%%%",
"##   $$             %%%&",
"##   $$             %%&&",
"##   $$             %&&&",
"##   $$             &&&&",
"#$   $$             &&&&",
"$$$$$$$$$%%%%%%%%%&&&&&&",
"$$$$$$$$%%%%%%%%%&&&&&&&",
"$$$$$$$   %%%%%%&   &&&&",
"$$$$$$%   %%%%%&&   &&&&",
"$$$$$%%   %%%%&&&   &&&*",
"$$$$                &&**",
"$$$%                &***",
"$$%%                ****",
"$%%%               *****",
"%%%%%             ******",
"%%%%%%%   &&&&&&&*******",
"%%%%%%%&&&&&&&&&********",
"%%%%%%&&&&&&&&&*********",
"%%%%%&&&&&&&&&*********=",
"%%   &&             **==",
"%%   &&             *===",
"%%   &&             ====",
"%&   &&             ====",
"&&   &&             ====",
"&&&&&&&&*********=======",
"&&&&&&&*********========",
"&&&&&&*********=========",
"&&&&&*********=========-",
"&&                  ==--",
"&&                  =---",
"&&                  ----",
"&*                  ----",
"**                  ----",
"********=========-------",
"*******=========--------",
"******=========---------",
"*****=========---------;",
"**   ==             --;:",
"**   ==             -;::",
"**   ==             ;:::",
"*=   ==             ::::",
"==   ==             ::::",
"========---------;::::::",
"=======---------;:::::::",
"======-   -----;:   ::::",
"=====--   ----;::   ::::",
"====---   ---;:::   ::::",
"===-                ::::",
"==--                ::::",
"=---                ::::",
"----               :::::",
"-----             ::::::",
"-------   ::::::::::::::",
"------;:::::::::::::::::",
"-----;::::::::::::::::::",
"----;:::::::::::::::::::",
"---             ::::::::",
"--;               ::::::",
"-;:                :::::",
";::                :::::",
":::                 ::::",
"::::::::::::::::    ::::",
":::::::::::::::::   ::::",
":::::::::::::::::   ::::",
":::::::::::::::::   ::::",
"::::::::::::::::    ::::",
":::                 ::::",
":::                :::::",
":::                :::::",
":::               ::::::",
":::             ::::::::",
"::::::::::::::::::::::::",
"::::::::::::::::::::::::",
"::::::::::::::::::::::::",
"::::::::::::::::::::::::",
"::::::::::::::::::::::::",
"::::::::::::::::::::::::",
"::::::::::::::::::::::::",
"::::::::::::::::::::::::",
"::::::::::::::::::::::::",
"::::::::::::::::::::::::",
"::::::::::::::::::::::::",
"::::::::::::::::::::::::",
"::::::::::::::::::::::::",
"::::::::::::::::::::::::",
"::::::::::::::::::::::::",
"::::::::::::::::::::::::",
"::::::::::::::::::::::::",
"::::::::::::::::::::::::",
"::::::::::::::::::::::::",
"::::::::::::::::::::::::",
"::::::::::::::::::::::::",
"::::::::::::::::::::::::"};
