/* XPM */
static char * arrows_xpm[] = {
/* width height ncolors chars_per_pixel */
"32 32 10 1",
/* colors */
" 	s None	c None",
".	c black",
"X	c #007700",
"o	c #005500",
"O	c green",
"+	c #00AB00",
"@	c #DC0000",
"#	c red",
"$	c #770000",
"%	c #AB0000",
/* pixels */
"                                ",
"                                ",
"                                ",
"                    .           ",
"                   .X.          ",
"                  .XXo.         ",
"                   .Xoo.        ",
"                    .ooo.       ",
"    .O...O............ooo.      ",
"     OOOOOOOO++++XXXXoooo..     ",
"      .O...OO++++XXXXoooo...    ",
"       OOOOOO++++XXXXoooo..     ",
"        .O...+........ooo.      ",
"                    .ooo.       ",
"           .       .Xoo.        ",
"          .@.     .XXo.         ",
"         .@@@.     .X.          ",
"        .@@@.       .           ",
"       .#@@.                    ",
"      .##@............$.....    ",
"     .###@@@@%%%%$$$$$$$$$.     ",
"    .####@@@@%%%%$$$$...$.      ",
"     .###@@@@%%%%$$$$$$$$       ",
"      .##@........$...$.        ",
"       .#@@.                    ",
"        .@@@.                   ",
"         .@@@.                  ",
"          .@.                   ",
"           .                    ",
"                                ",
"                                ",
"                                "};
