/* XPM */
static char *hp_Alphabetical.recol_bad_xpm[] = {
/* width height ncolors chars_per_pixel */
"54 54 9 1",
/* colors */
"` c black",
"a c lavender",
"b c gainsboro",
"c c sky blue",
"d c grey",
"e c dark slate grey",
"f c white",
"g c slate grey",
"h c blue",
/* pixels */
"ffffffffffffffffffffffffffffffffffffffffffffffffffffff",
"ffffffffffffffffffffffffffffffffffffffffffffffffffffff",
"ff``````````````````````````````````````````````````ff",
"ff``````````````````````````````````````````````````ff",
"ff```````````````````````````````ggbfffff```````````ff",
"ff````````````````````````````gbfffffffff```````````ff",
"ff`````````````````````````gbfffffffffffff``````````ff",
"ff````````````````````````aaffffffffffffff``````````ff",
"ff```````````````````````aaffffffffffffffff`````````ff",
"ff````````ggbaaabg``````aafffffffffffffffff`````````ff",
"ff`````gbffffffffabg```bafhhffffffffffffffff````````ff",
"ff``gfffffffffffffabgggaahffffffffffffgbffffg```````ff",
"f`abffffffffffffffaabg`aahhfhffffffffffffffff```````ff",
"f`aaffhhfffffffffafabdgbaahhfffffffffffgbfffff``````ff",
"f`aaffhfhffffffffffabbgbaaafffggffffffffffffff``````ff",
"fa`affhhhhfffffffffaabg`baaffgffffffffffgbfffff`````ff",
"fa`aafhfffffffffffbgbbdgbaaggffffffffffffffffff`````ff",
"fb`aaffffffgggffffffafbdbbaafffggfffffffffffffff````ff",
"fbg`aafffggffffffffbgbbdgbaafggfffffffffffffffff````ff",
"f`a`aafagffffggffffffaab`bbagfffggfffffffffffffff```ff",
"f`b`aafffffggffffffffaabgbbaaffgfffffffffffffffff```ff",
"fgbg`aafaggfffffffffffaab`baaggfffffffffffffffffff``ff",
"ff`a`aaffffffffffffffafabgbbafffffffffffffffgbffff``ff",
"ff`b`bafffhhhffffffffffabdgaaahhhffffffffffffffffff`ff",
"ff`bg`aaffhfhffffffffffaab`baahffhfffffffffffgbffff`ff",
"ff``b`aaffhhhhffffffffffabgbaaahfhfffgffffffffffffff`f",
"ff``a`bafffhfhffffffffffaab`baahhffggfffffffffffffgg`f",
"ff``bg`aaffhhfffffffffbgbab`bbafffgfffgffffffagg```ggf",
"ff`g`a`aafffffffggffffffaaadgbaaggfffgfffffag`gggggggf",
"ff`c`b`baaffffggfffffffbgaab`baaaffgffffag``gggbbbbbbf",
"ffce`bg`aaffggfffgfffffffaabgbaafggfffa`gggbbbaaaaaaaf",
"ffgcg`a`aafffffgfffffffabgabdgbaafffa`gggbbbaafaffffff",
"ffcgc`a`baaffggffffffffffffab`bbaaf`gggbbbaaag````````",
"ffgcg`bb`aafffffggffffffffabbgbaab`ggbbbaag```g`````ff",
"ffegc`gb`aafffggfffffffffaaaadgbbgggbbbd``geeeege```ff",
"ff`egc`a`baafffffffffbgg```ggdgb`gdbbd``eeeeeeeegg``ff",
"ff``eg`ag`aaffffffabg`gggggggg`ggdbd``eeeeeeeeeeeeggff",
"ff```g`bb`aafaffb```daaadddgg`ggggd`eeeeeeeeeeeeee`gff",
"ff`````ga`aaafg``aafag```````ggggg`eeeeeeeeeeee```g`ff",
"ff``````ag````gafff`eeeeeeee`gddd`eeeeeeeeg````gggg`ff",
"ff``````bgbbaafff``eeeeeeeeee`````eeeeeee```ggggggg`ff",
"ff``````gbaabbg```egegegegegeeeeeeeeee```gggggggggg`ff",
"ff````````````cgcg`egegegegegegegeg```ggggggggggggdeff",
"ff```````````cgcgcg`egegegegegeg```ggggggggggggddd``ff",
"ff```````````ecgcgcgc`gegegeg```gggggggggggggdd`````ff",
"ff````````````eegcgcgc`geg```dddddddggggggddd```````ff",
"ff``````````````egcgcgc```dddddddddddgggdd``````````ff",
"ff```````````````egcgcgcedddddddddgggaaa````````````ff",
"ff````````````````egcgcedddddddgggaaa```````````````ff",
"ff`````````````````egccedddddgggaa``````````````````ff",
"ff``````````````````egceddgggaaa````````````````````ff",
"ff```````````````````ecgddaaa```````````````````````ff",
"ffffffffffffffffffffffeggg``gfffffffffffffffffffffffff",
"ffffffffffffffffffffffffffffffffffffffffffffffffffffff"
};
