/* XPM */
static char *hp_Reference.recol_bad_xpm[] = {
/* width height ncolors chars_per_pixel */
"54 54 10 1",
/* colors */
"` c black",
"a c lavender",
"b c gainsboro",
"c c peru",
"d c sky blue",
"e c grey",
"f c sienna",
"g c dark slate grey",
"h c white",
"i c slate grey",
/* pixels */
"hhhhhhhhhhhhhhhhhhhhhhhhhhhhhhhhhhhhhhhhhhhhhhhhhhhhhh",
"hhhhhhhhhhhhhhhhhhhhhhhhhhhhhhhhhhhhhhhhhhhhhhhhhhhhhh",
"hh``````````````````````````````````````````````````hh",
"hh``````````````````````````````````````````````````hh",
"hh`````````````````````````````````````````giddiigg`hh",
"hh````````iiaaabeiig```````````````````````ggiiiggg`hh",
"hh`iddigg`iieeeiiiig```````aaaabe``````````ggiiiggg`hh",
"hh`giiggg`iieeeiiiig```````ibbeii`ieaaeiig`ggiiiggg`hh",
"hh`giiggg`iebaabbeig`gccfg`ibbeii`iieeiiig`ggiiiggg`hh",
"hh`giiggg`iiiiiiiiig`gffgg`ibbeii`iieeiiig`ggiiiggg`hh",
"hh`gigggg`iieeeiiiig`gffgg`ibeiii`iiiiiigg`ggddiiig`hh",
"hh`gigggg`iieeeiiiig`gffgg`ibeeii`iiiiiigg`gggggggg`hh",
"hh`gigggg`iieeiggiig`gfggg`ibeiii`iiiigggg`ggiiiggg`hh",
"hh`gigggg`iieeiigiig`gfg```ibbbii`iiiiiigg`ggiiiggg`hh",
"hh`gigggg`iieeiigiig`gf`idg`````i`iiiigggg`ggiggggg`hh",
"hh`gigggg`iieeegiiig`gf`didididg````iiiigg`ggigiggg`hh",
"hh`giiggg`iieeiigiig`g`didididididig```igg`ggiggggg`hh",
"hh`giiggg`iieeiigiig`g`idigggididididig````ggigiggg`hh",
"hh`giiggg`iieeegiiig``idigggggggidididididi```ggggg`hh",
"hh`giiggg`iieeiigiig``didggdggggggggiidididiii`iggg`hh",
"hh`giiggg`iieeiigiig`didgggddgdgiggggggiididiiggggg`hh",
"hh`giiggg`iieeiigiig`idigggggggddidgggggggdiiigiggg`hh",
"hh`giiggg`iieeeiiii`idigiiigggggggdidgigggiiigigggg`hh",
"hh`giiggg`iieeiigii`didgiiiiiigggggggddgggiiigbiggg`hh",
"hh`giiggg`iieeegii`didgiiiidiiiiiigggggggiiigibgggg`hh",
"hh`giiggg`iieeeiii`idigiiiddiiiiddiiiggggiiigeiiggg`hh",
"hh`giiggg`iieeeii`idigii`dd``iiddiiiiiigiiigieggggg`hh",
"hh`giiggg`iieeeii`didgi````````d````iiigiiigee`iggg`hh",
"hh`giiggg`iieeei`didgiiii`iiii``d`iiiii`iiigeiiiggg`hh",
"hh`giiggg`iieeei`idigiiiiddiiiidd``iii`iiigiegiiggg`hh",
"hh`giiggg`iieee`idigii``dd````dd`````i`iiigee`iiggg`hh",
"hh`giiggg`ieaae`didgii``diii``d``iiiigiiigieiiiiggg`hh",
"hh`giiggg`iiii`didi`iii```iii`````iii`iiigeegiiiggg`hh",
"hh`giiggg`iiee`ididigggiiiiiii`````ii`iiigei`iiiggg`hh",
"hh`giiggg`iie`ididididigggiiiiiiiiii`iiigeeigiiiggg`hh",
"hh`giiggg`iie`dididididiiigg``iiiiii`iiigeeggddiiii`hh",
"hh`giiggg`ii`iidididididiiiiiigggii`iiigiei`ggggggg`hh",
"hh`giiggg`ii`ididididididiiiiiiiigg`iiigeegggiiiggg`hh",
"hh`gigggg`i`ididididididiiiiiiiiiiiiiiigei`ggiiiggg`hh",
"hh`giiggg`i`iididididididiiiiiiiiiiiiigeeg`ggiiiggg`hh",
"hh`gddigg```giididididididiiiiiiiiiiiigei``ggiigggg`hh",
"hh`gigggg``iigggiidididididiiiiiiiiiigiegg`gggggggg`hh",
"hh````````igabggggggididididiiiiiiiiigeeg```````````hh",
"hh````````igaaaabigggggidididiiiiiiiigeg````````````hh",
"hh````````igiaaaaaabigggggidiiiiiiiigee`````````````hh",
"hh````````igg`daaaaaaabiggggggiiiiiigei`````````````hh",
"hh``````````gggg`idaaaaaabiggggggiigeeg`````````````hh",
"hh``````````````ggg`idaaaaaabbigggggee``````````````hh",
"hh`````````````````gggg`idaaaabbaggaeg``````````````hh",
"hh`````````````````````gggg`idbbbbbae```````````````hh",
"hh`````````````````````````ggggidbabdg``````````````hh",
"hh```````````````````````````big``gdgb``````````````hh",
"hhhhhhhhhhhhhhhhhhhhhhhhhhhhhhhhhigg`hhhhhhhhhhhhhhhhh",
"hhhhhhhhhhhhhhhhhhhhhhhhhhhhhhhhhhhhhhhhhhhhhhhhhhhhhh"
};
