/* XPM */
static char * image_name[] = {
"56 46 30 1",
" 	c #FFFFFFFFFFFF",
".	c #BEFBB6DABEFB",
"X	c #CF3CC71BCF3C",
"o	c #000000000000",
"O	c #AEBAAEBAB6DA",
"+	c #AEBAAEBAAEBA",
"@	c #BEFBC30BBEFB",
"#	c #B6DAAEBAB6DA",
"$	c #BEFBC30BCF3C",
"%	c #BEFBBAEABEFB",
"&	c #DF7DBAEA8E38",
"*	c #D75CD34CD75C",
"=	c #69A68617BEFB",
"-	c #000000001040",
";	c #000008200820",
":	c #AEBAB2CACF3C",
">	c #082004100820",
",	c #A699A289A699",
"<	c #9E799A699E79",
"1	c #96589658AEBA",
"2	c #E79DD75C9E79",
"3	c #514471C68E38",
"4	c #965896589658",
"5	c #AEBAAAAAAEBA",
"6	c #000000001861",
"7	c #AEBAA699AEBA",
"8	c #A6999E79A699",
"9	c #FFFFFBEEFFFF",
"0	c #F7DEB2CAAEBA",
"q	c #A699A699A699",
"                                                       .",
" .X..X..X..X..X..X..X..X..X..X..X..X..X..X..X..X..X..X.o",
" ..XO.X.+X.OX.OX.OX.OX.OX.OX.OX.OX.OX.OX.OX.OX.OX.OX.OXo",
" .+@@+@O@@+.@O@@+.@O@@+.@+@@+.@O@@+.@+@@+.@O@@+.@+@@.@#o",
" +@O@+.+@+@+.+@.@++X$+@+.O@+@+%O@+@+..@.@++X$+@+.++.++.o",
" .@..X.@@+@.@@.@O@O@&+@@@@+.X.X&@.@@O$&+@.@O$&+*O.@@@@.o",
" +%O++@=o-oooooo;;ooo;oo=+@+.+@OO+%+@+:+.+O+.O@+@+.+#+@o",
" OX&@.+==ooooooo;ooooo>==.@O.+O@@.O@&.+@X&@    @&@@.+.+o",
" +%O:+.=+, .@<.@<.1@. #+=+.+.+.,O+.+$+O+O+ O.+O :#.+@+.o",
" @.O+&$=ooooooooo-oooooo=<X++.X.+X.$+.X.+.:#+X. +.+X+.Xo",
" +X+$+:=o=1ooooooooooooo=+.+.+++O+@+O+.+.+.+@+ +#+$+O+.o",
" #+@.O+=oooooooooo;ooooo=<++X.O$+.+.X.+O+$+O  ,X+.O+..+o",
" +#+O+@=o==============-=+++.+&O.+@+@+$+.+. .+O+#+.+2+Oo",
" X+.+.+=o+$+@$+@$+@$+%#;3<+O+$O@+.+OO&+.+O ++.+.+$+OOO+o",
" +#+@+@=>< .@O.@%&1<=O<o=#.+.+O+.+X+.+2OO .+%+$+O+%+XO.o",
" ++$+++=o4 %&XO%<$<4+.+o=<+@+++@O++.+OO$+.     O+++.5++o",
" +#+O+$=o<1===========3-=55+$O#+.+.+++O+O+.OO+.+@+&O$O.o",
" ++++O.3=>o-o-oo>-o->o6==1+O++++++++++++++++5++++#555++o",
" +X52O.=                =,.+#+.+@+$+@5$OX5.   .+.+@O#+#o",
" 55OO+O= #< #< #< #< .< 3<+7+++7+7O+ +O+5+ 5++ 7+++++++o",
" ++7#7+3                =.7+@7+7@+7+ 8+7.5#O. #+X+7O#++o",
" O7+OO#= #< #< #< #< #< 3<++7+7++#    9X5++  X++5+7+++5o",
" +55+7O=                =1O7+O57+7O+ +O5555O+ ++75+7+75o",
" 5557+5= =o =o =o 00 00 =<557+.57+++ +557+++++ 555O5555o",
" <+751+3 oo oo oo 0@ 0X =#575<5++<75#+7+ <777< +5<75555o",
" O5555.=                =<7+5#7+7.57+7++ $77+ O+7.55#55o",
" +5<557= =- =o =- 4< 44 =+5<.4.<7++<7<5<+    .+<7++5O<7o",
" 5557+O= oo oo oo 1= += =1555+57++777577O+++++7+7+7+#7+o",
" <O<.<7=                =45<5<7 @ .  .             <+<+>",
" 7+7+7+= =o =o =o 4< 4< 3<7+.7++O55555+++++++++++O+7+7+o",
" <7<71+3 oo oo oo <= <= =#+<7<7<+<5<5<O<7<O<7<O<7<7<#<7>",
" +<#+O1=                3<<+O7<+77<O57<7O7 9   775<+55<o",
" <7<+<.=oooooooooooooooo=1.<7<5<7<7<7<#<7 .4+<7<7<7<#<7o",
" O<5<7O13===============<5<7<55#<#<%<+<+ X<7<O<5<71.<7<o",
" <#<5<78:1+1+1+1+1+1+151O<7<#<5<.<5<7<7<%   %<#<.<.<5<5o",
" <<5<<5<<1<1<1<1<1<1<1<8<1<5<8<7<<<.15<7<<<+ %<5<<<587<o",
" <#15<#<5<5<5<5<+<5<+<5<787<71#4#87<51515<5<7 +<5<#<5<#o",
" 5<<<78<8<<<<<<<<<<<<q<<8<<<5<<#<<8<<5<<<<51< <18<<<<1<o",
" <#<#<7<#<#<q87<#<q8#<q87<587<7<5<5<#85<917<5 515<#<#<5>",
" 81<<<8<7<<88<<<<<8<1<8<<8<+<<<<8<88<<<q#    X8<<<1q<8<o",
" <815<1<7<8<7<8878<87<<<7<<<7<7871<q7<<<5<<<5<<q78<87<8>",
" <8<<q<8<8<<<7<<<<8<<<7<81<<1<<<<<1<<8<8<<7<8<81<<8<81<o",
" <7<q<<8<<78<<<<7<7<78<8<87<8<<<8<#<<<188<7<1<<<8<7<<<8o",
" <<8<<88<88<8<<8<<<8<<<<8<<8<<7<8<8<8<8<<8<8<8<8<8<<81<o",
" <8<<8<<8<<<88<7<8<8<88<<88<88<<<8<8<8<88<<8q<88<q<8q<8>",
"#>o>>>>>>>>>>>>>>>>>>>>>>>>>>>>>>>>>>>>>>>>>>>>>>>>>>>>o"};
