/* XPM */
static char * colours_xpm[] = {
/* width height ncolors chars_per_pixel */
"32 32 9 1",
/* colors */
" 	s None	c None",
".	c red",
"X	c yellow",
"o	c green",
"O	c blue",
"+	c magenta",
"@	c black",
"#	c grey",
"$	c slate grey",
/* pixels */
"                 .   X   o   O  ",
"                . XX o ooOO O OO",
"               ...XXooo O OOOO +",
"              ...XXXoooOOOOOOO+ ",
"             ....XXoooOOOOOO++  ",
"             ...XXXooOOOOOO++   ",
"             ..XXXoooOOOO++     ",
"            ...XXXooOOOO++      ",
"            ..XXXooOOOO++       ",
"           ...XXXooOOO++        ",
"           ...XXooOOO++         ",
"           ..XXooOOO++          ",
"          ...XXoOOO++           ",
"          ...XooOO++            ",
"          ..XXoOOO+             ",
"          ..XXoOO++             ",
"          ..XXoOO+              ",
"         @@@@@@@@@              ",
"         @###$$$$@              ",
"          @@@@@@@               ",
"        @@###$$$$@@             ",
"       @####$$$$$$$@            ",
"       @###$$$$$$$$@            ",
"      @###$$$$$$$$$$@           ",
"      @###$$$$$$$$$$@           ",
"      @###$$$$$$$$$$@           ",
"      @##$$$$$$$$$$$@           ",
"       @#$$$$$$$$$$@            ",
"       @#$$$$$$$$$$@            ",
"     @@@@@$$$$$$$@@@@@          ",
"     @@   @@@@@@@   @@          ",
"                                "};
