/* XPM */
static char * color_chart_xpm[] = {
/* width height ncolors chars_per_pixel */
"32 32 8 1",
/* colors */
" 	s None	c None",
".	c red",
"X	c magenta",
"o	c white",
"O	c blue",
"+	c yellow",
"@	c black",
"#	c green",
/* pixels */
"                                ",
"                                ",
"                                ",
"                                ",
"                                ",
"                                ",
"                                ",
"                                ",
"                                ",
"           ..     XXX           ",
"         ....    XXXXX          ",
"        ......   XXXXX          ",
"        ....... XXXXXX          ",
"         ...... XXXXXX          ",
"         .....ooooXXXX  OOO     ",
"     +.+  ....oooXXXXX OOOOO    ",
"   .+.+.+ ....oooXXXXX OOOOOO   ",
"   +.+.+. ....oooXXXX@OOOOOOO   ",
"   .+.+.+.@...oooXXXX@OOOOOO    ",
"    .+.+.+@...oooXXX@OOOOOO     ",
"      +.+.+@..oooXXX@OOOOOO     ",
"       +.+.+@.oooXX@OOOOO       ",
"        +.+.@@ooooX@OOO@@###    ",
"  ++++++@@.+.ooooooOO@@#######  ",
"  ++++++++@.+oooooo@@#########  ",
"  +++++++++@ooooooo###########  ",
"  ++++++++++ooooooo###########  ",
"                                ",
"                                ",
"                                ",
"                                ",
"                                "};
