/* XPM */
static char *communicatord1616[] = {
/* width height num_colors chars_per_pixel */
"    16    16        8            1",
/* colors */
". c #000000",
"# c #000084",
"a c #0000ff",
"b c #008484",
"c c #848484",
"d c #ffff00",
"e c #ffffff",
"f c None",
/* pixels */
"abababababababab",
"babababababababf",
"abab#########bff",
"bab.cdddddddd.ff",
"ab#deeeeeeeedd#f",
"ba#ee##e#e#eed#f",
"ab#deeeeeeeeed#f",
"ba#ee##e###eed#f",
"ab#deeeeeeeeed#f",
"ba#ee##e#eeeed#f",
"ab#deeeeeeeedd#f",
"bab.deddddeed#ff",
"abaf######ee#fff",
"bafffffff#e#ffff",
"affffffff##fffff",
"fffffffff#ffffff"
};
SIMPLE  =                    T                                                  BITPIX  =                    8                                                  NAXIS   =                    2                                                  NAXIS1  =      
             16                                                  NAXIS2  =                   16                                                  HISTORY Written by XV 3.10a                                                     END                           
                                                                                                                                                                                                                                                               
                                                                                                                                                                                                                                                               
                                                                                                                                                                                                                                                               
                                                                                                                                                                                                                                                               
                                                                                                                                                                                                                                                               
                                                                                                                                                                                                                                                               
                                                                                                                                                                                                                                                               
                                                                                                                                                                                                                                                               
                                                                                                                                                                                                                                                               
                                                                           ллллллллллллллл'лллллллллллллV'ллллллл лллл'V'л  лллV'V
        ╫╫лV'V










