/* XPM */
static char *communicatorj1616[] = {
/* width height num_colors chars_per_pixel */
"    16    16       12            1",
/* colors */
". c #000000",
"# c #0000ff",
"a c #008400",
"b c #00ff00",
"c c #840000",
"d c #848400",
"e c #848484",
"f c #c6c6c6",
"g c #ff0000",
"h c #ffff00",
"i c #ffffff",
"j c None",
/* pixels */
"jeeeeeeeeeeeejjj",
"jeiiiiiiiiieiejj",
"jeieeeeeeeeeii.j",
"jeiefeebbee....j",
"jeifeebibafeef.j",
"jeieffbba##ffe.j",
"jeifffaa###fff.j",
"jeifgff##affhf.j",
"jeifgcfhhhhh.h.j",
"jeiggcchhddd.h.j",
"jeiggccchddd.h.j",
"jeigggcciddd.h.j",
"jeiiggihhddd.h.j",
"jeiiihiiihihih.j",
"jehihihihihihi.j",
"j..............j"
};
SIMPLE  =                    T                                                  BITPIX  =                    8                                                  NAXIS   =                    2                                                  NAXIS1  =      
             16                                                  NAXIS2  =                   16                                                  HISTORY Written by XV 3.10a                                                     END                           
                                                                                                                                                                                                                                                               
                                                                                                                                                                                                                                                               
                                                                                                                                                                                                                                                               
                                                                                                                                                                                                                                                               
                                                                                                                                                                                                                                                               
                                                                                                                                                                                                                                                               
                                                                                                                                                                                                                                                               
                                                                                                                                                                                                                                                               
                                                                                                                                                                                                                                                               
                                                                           «
„„ÿBÆ„„Æ










