/* XPM */
static char *communicatorg1616[] = {
/* width height num_colors chars_per_pixel */
"    16    16       11            1",
/* colors */
". c #000000",
"# c #000084",
"a c #0000ff",
"b c #008484",
"c c #00ffff",
"d c #848484",
"e c #c6c6c6",
"f c #ff0000",
"g c #ffff00",
"h c #ffffff",
"i c None",
/* pixels */
"agaaaagabababaii",
"aagfggabababaiii",
"ggfffggggggaiiii",
"abfffgaaaa#iiiii",
"bg#f#ag##aiiecde",
"gbag##a.a###ddd#",
"baag#.#.iecc##d.",
"abag#.#i.ecccd..",
"babg#.iee.ehed..",
"abaa#.eeee.ed...",
"babai.ehhed....d",
"abaid.dhdd.....i",
"baiddd........di",
"aiii##.......dd.",
"iiiiiiiii..e.#..",
"iiiiiiii#dd....."
};
SIMPLE  =                    T                                                  BITPIX  =                    8                                                  NAXIS   =                    2                                                  NAXIS1  =      
             16                                                  NAXIS2  =                   16                                                  HISTORY Written by XV 3.10a                                                     END                           
                                                                                                                                                                                                                                                               
                                                                                                                                                                                                                                                               
                                                                                                                                                                                                                                                               
                                                                                                                                                                                                                                                               
                                                                                                                                                                                                                                                               
                                                                                                                                                                                                                                                               
                                                                                                                                                                                                                                                               
                                                                                                                                                                                                                                                               
                                                                                                                                                                                                                                                               
                                                                           ««««««««„„
'×'««Æ§„Æ'VWWW×''''«««««××WWW××××××'««««''×W××'V'V'V'«««'×''''×'V'V'V'««










