/* XPM */
static char *communicatorc1616[] = {
/* width height num_colors chars_per_pixel */
"    16    16        9            1",
/* colors */
". c #000000",
"# c #0000ff",
"a c #008484",
"b c #848400",
"c c #848484",
"d c #c6c6c6",
"e c #ffff00",
"f c #ffffff",
"g c None",
/* pixels */
"a#a#a#a#a#a#a#a#",
"#a###a#a#a#a#a#g",
"a#e###a#a#a#a#gg",
"#a#eed#a#a#a#ggg",
"a##ef.b#a#a#gggg",
"#a#bdc..#a#ggggg",
"a#a#acf..#gggggg",
"#a#a#acf..gggggg",
"a#a#a#acf..ggggg",
"#a#a#a#gcd..cggg",
"a#a#a#gggc...cgg",
"#a#a#gggggcd..cg",
"a#a#ggggg.gcf..c",
"#a#ggggggg.gcf..",
"a#ggggggggg.gcf.",
"#ggggggggggg.gcc"
};
SIMPLE  =                    T                                                  BITPIX  =                    8                                                  NAXIS   =                    2                                                  NAXIS1  =      
             16                                                  NAXIS2  =                   16                                                  HISTORY Written by XV 3.10a                                                     END                           
                                                                                                                                                                                                                                                               
                                                                                                                                                                                                                                                               
                                                                                                                                                                                                                                                               
                                                                                                                                                                                                                                                               
                                                                                                                                                                                                                                                               
                                                                                                                                                                                                                                                               
                                                                                                                                                                                                                                                               
                                                                                                                                                                                                                                                               
                                                                                                                                                                                                                                                               
                                                                           'ллллллллллл
 










