/* XPM */
static char *communicatork1616[] = {
/* width height num_colors chars_per_pixel */
"    16    16        9            1",
/* colors */
". c #000000",
"# c #0000ff",
"a c #008484",
"b c #848400",
"c c #848484",
"d c #c6c6c6",
"e c #ffff00",
"f c #ffffff",
"g c None",
/* pixels */
"gc............gg",
"cdcdcdcdcdccc..g",
"cfffffffffff.dc.",
"ccbcbcbcbcbcc.c.",
"g............d.g",
"gcdddddddddddc.g",
"gcf...##ffffd.gg",
"gcf#fafafcced.gg",
"cff#fffaffffd.gg",
"cffaf..adcccd.gg",
"cef.....fefe.ggg",
"cfeeeeeecccf...g",
"cdededededed.c.c",
"ccdcdcdcdcdcd.c.",
"ccccccccccccc.c.",
"g..............g"
};
SIMPLE  =                    T                                                  BITPIX  =                    8                                                  NAXIS   =                    2                                                  NAXIS1  =      
             16                                                  NAXIS2  =                   16                                                  HISTORY Written by XV 3.10a                                                     END                           
                                                                                                                                                                                                                                                               
                                                                                                                                                                                                                                                               
                                                                                                                                                                                                                                                               
                                                                                                                                                                                                                                                               
                                                                                                                                                                                                                                                               
                                                                                                                                                                                                                                                               
                                                                                                                                                                                                                                                               
                                                                                                                                                                                                                                                               
                                                                                                                                                                                                                                                               
                                                                           «











