/* XPM */
static char *communicatori1616[] = {
/* width height num_colors chars_per_pixel */
"    16    16        8            1",
/* colors */
". c #000000",
"# c #008484",
"a c #848400",
"b c #848484",
"c c #c6c6c6",
"d c #ff0000",
"e c #ffffff",
"f c None",
/* pixels */
"fbbbbbbbbbbbbfff",
"fbeeeeeeeeebebff",
"fbeccccccccbee.f",
"fbeccc##ccc....f",
"fbecc####cccce.f",
"fbecc####cccce.f",
"fbeccc##ccccce.f",
"fbedccccccccce.f",
"fbeddcccaaaace.f",
"fbedddccaaaace.f",
"fbedddccaaaace.f",
"fbeddcccaaaace.f",
"fbedccccccccce.f",
"fbecccccccccce.f",
"fbeeeeeeeeeeee.f",
"f..............f"
};
SIMPLE  =                    T                                                  BITPIX  =                    8                                                  NAXIS   =                    2                                                  NAXIS1  =      
             16                                                  NAXIS2  =                   16                                                  HISTORY Written by XV 3.10a                                                     END                           
                                                                                                                                                                                                                                                               
                                                                                                                                                                                                                                                               
                                                                                                                                                                                                                                                               
                                                                                                                                                                                                                                                               
                                                                                                                                                                                                                                                               
                                                                                                                                                                                                                                                               
                                                                                                                                                                                                                                                               
                                                                                                                                                                                                                                                               
                                                                                                                                                                                                                                                               
                                                                           «
ÆVVVVÆÆÆÆÿ










