/* XPM */
static char *communicatora1616[] = {
/* width height num_colors chars_per_pixel */
"    16    16        9            1",
/* colors */
". c #000000",
"# c #0000ff",
"a c #008484",
"b c #848400",
"c c #848484",
"d c #c6c6c6",
"e c #ffff00",
"f c #ffffff",
"g c None",
/* pixels */
"a#a#a#ab.#a#a#a#",
"#a.a#a#d.a#a#be.",
"aeb.a#be.ba#bd.g",
"#bfb.efffedbe.gg",
"a#bfeb.f.dbe.ggg",
"#a#bfb#e.aeb.ggg",
"a#bd.ebe..cgb.gg",
"#aed.aecc.ggb.gg",
"cdfffecfedddddeb",
"..be..cec...e..g",
"a#aeb.gc.eg.b.gg",
"#a#bebgg.gebe.gg",
"a#be.ebe.bbeb.gg",
"#be.g.bd.b..eb.g",
"ae.ggggdb.gggeb.",
"#.gggggb.ggggggg"
};
SIMPLE  =                    T                                                  BITPIX  =                    8                                                  NAXIS   =                    2                                                  NAXIS1  =      
             16                                                  NAXIS2  =                   16                                                  HISTORY Written by XV 3.10a                                                     END                           
                                                                                                                                                                                                                                                               
                                                                                                                                                                                                                                                               
                                                                                                                                                                                                                                                               
                                                                                                                                                                                                                                                               
                                                                                                                                                                                                                                                               
                                                                                                                                                                                                                                                               
                                                                                                                                                                                                                                                               
                                                                                                                                                                                                                                                               
                                                                                                                                                                                                                                                               
                                                                           '
×o










