/* XPM */
static char *communicatorh1616[] = {
/* width height num_colors chars_per_pixel */
"    16    16        8            1",
/* colors */
". c #000000",
"# c #000084",
"a c #0000ff",
"b c #008484",
"c c #848484",
"d c #c6c6c6",
"e c #ff0000",
"f c None",
/* pixels */
"abababababababab",
"bababadddddd.abf",
"ababaadbbbbd.bff",
"bababadbbbbd.fff",
"ababaadbbbbd.fff",
"bababadddddd.fff",
"ababaaacccccffff",
"babaddddddddddcf",
"ababddddaaddddcf",
"babeedddaaddd##f",
"abaeedddddddd##f",
"babffcdaaaadccff",
"abeeeefaaaaf####",
"bfeeeefaaaaf####",
"ffeeeefaaaaf####",
"ffeeeeffffff####"
};
SIMPLE  =                    T                                                  BITPIX  =                    8                                                  NAXIS   =                    2                                                  NAXIS1  =      
             16                                                  NAXIS2  =                   16                                                  HISTORY Written by XV 3.10a                                                     END                           
                                                                                                                                                                                                                                                               
                                                                                                                                                                                                                                                               
                                                                                                                                                                                                                                                               
                                                                                                                                                                                                                                                               
                                                                                                                                                                                                                                                               
                                                                                                                                                                                                                                                               
                                                                                                                                                                                                                                                               
                                                                                                                                                                                                                                                               
                                                                                                                                                                                                                                                               
                                                                           ««WWWW««««««««WWWW«''''«V«WWWW«''''«'VWWWW«''''«V'V««„Æ''''Æ„„««'V'WWÆÆÆÆÆÆÆÆ«V'VWWÆÆÆ''ÆÆÆ«'V'VÆÆÆÆ''ÆÆÆÆ„«V'V'ÆÆÆÆÆÆÆÆÆÆ„«'V'V'''„„„„„««««V'V'V'ÆÆÆÆÆÆ
''ÆVVVVÆ










