/* XPM */
static char *communicatore1616[] = {
/* width height num_colors chars_per_pixel */
"    16    16       11            1",
/* colors */
". c #000000",
"# c #000084",
"a c #0000ff",
"b c #008400",
"c c #008484",
"d c #00ffff",
"e c #848484",
"f c #c6c6c6",
"g c #ffff00",
"h c #ffffff",
"i c None",
/* pixels */
"cacacacacacacaca",
"acacacefffffecai",
"cacffffgfgfgffei",
"acafghhfgggffhfe",
"cacffffhhhhhheee",
"acaf#efffhhfeeee",
"cacf#b#efhfeeeee",
"acaf#db#fhefeeee",
"cacf#cb#fhfeeeee",
"acaf#bccfhefeeee",
"cacffcbcfhfeeeei",
"acaeffccfhefeeii",
"cacaeefffhfee#ii",
"acaii.eefhef#.#i",
"caiife#.fhf###fi",
"aiiiifeee##eefii"
};
SIMPLE  =                    T                                                  BITPIX  =                    8                                                  NAXIS   =                    2                                                  NAXIS1  =      
             16                                                  NAXIS2  =                   16                                                  HISTORY Written by XV 3.10a                                                     END                           
                                                                                                                                                                                                                                                               
                                                                                                                                                                                                                                                               
                                                                                                                                                                                                                                                               
                                                                                                                                                                                                                                                               
                                                                                                                                                                                                                                                               
                                                                                                                                                                                                                                                               
                                                                                                                                                                                                                                                               
                                                                                                                                                                                                                                                               
                                                                                                                                                                                                                                                               
                                                                           '««««Æ„„„„„Æ««V'««Æ„
ÆÆÆÿÿÿÿÿÿ„„„'V'Æ×ÿÿÆ×××ÆÆÿÆ„V'VÆÆÆÆ×Æ×Æ×ÆÆ„«'V'V'V„ÆÆÆÆÆ„V'«V'V'V'V'V'V'V'V'










