/* XPM */
static char *communicatore3232[] = {
/* width height num_colors chars_per_pixel */
"    32    32       11            1",
/* colors */
". c #000000",
"# c #000084",
"a c #0000ff",
"b c #008400",
"c c #008484",
"d c #00ffff",
"e c #848484",
"f c #c6c6c6",
"g c #ff0000",
"h c #ffffff",
"i c None",
/* pixels */
"acacacacacacacacacacacacacacacae",
"cacacacacacacacacacacacacacacae.",
"acacacacacacacacacecacaca.a.ae.i",
"cacacacacacacaeefffffe.a.a.ae.ii",
"acacacacaceeffffffffffffe.a..iii",
"cacacahhffffeefffffffffffffffeii",
"acacachfhhffffeefffffffffffehhee",
"caca.ahfffhhhfffeeeffffffhhhfefe",
"aca.a.hfffffhhhffffeefhhhhffeffe",
"caca.ahe#effffhhhhfffefhfefefefe",
"aca.a.he#b#effffhhhhhfefefefeffe",
"caca.ahe#cbc#effffhffefeeefeeefe",
"aca.a.he#bdbcb#effhfefe.efeeeefe",
"caca.ahe#cdcccb#.fhefef.eeeeeefe",
"aca.a.he#bcbcbcbcfhfefe.eeeeeefe",
"caca.ahe#cbcbcbccfhefef.eeeeeefe",
"aca.a.he#bcbcbcccfhfefe.eeeeeefe",
"caca.ahe#cbcbcbccfhefef.eeeeeefe",
"aca.a.he#bcbcbcbcfhfefe.eeefefee",
"caca.aheecbcbcbcbfhefef.eefefe#f",
"aca.a.hhfeebcbcbcfhfefe.efefe#ei",
"caca.ahfhhfeecbcbfhefef.eefe#iii",
"acafhfffffhhheeeefhfefe.efe#iiii",
"cfhhffeceffffhhfefhefef.ee#iefei",
"fhffhffeeeeeffffffhfefe.###ffefe",
"efhhfhhffeeeeefgffhefef.###efeee",
".cefhhfhhhf##eeeefhfef####e#feei",
"c..eefhhffhhe##eeehe####eee#feei",
"aca..effhhfffff...######ee.feeii",
"cae.i...ffhffeee.######ee.feeiii",
"ae.iiiie..fee...#####e###eeeiiii",
"c.iiiiiiie....eeeeiiiiiiiiiiiiii"
};
SIMPLE  =                    T                                                  BITPIX  =                    8                                                  NAXIS   =                    2                                                  NAXIS1  =      
             32                                                  NAXIS2  =                   32                                                  HISTORY Written by XV 3.10a                                                     END                           
                                                                                                                                                                                                                                                               
                                                                                                                                                                                                                                                               
                                                                                                                                                                                                                                                               
                                                                                                                                                                                                                                                               
                                                                                                                                                                                                                                                               
                                                                                                                                                                                                                                                               
                                                                                                                                                                                                                                                               
                                                                                                                                                                                                                                                               
                                                                                                                                                                                                                                                               
                                                                           V
„Æ„Æ„„«„ÆÿÿÆÿÿÆÆ„„„„„ÆWÆÆÿ„Æ„Æ
Æ„Æ„
ÿÿÿÆ„Æ„Æ„Æ„ÆÆ„V'V'
V„V'V'V'







