/* XPM */
static char *communicatorf1616[] = {
/* width height num_colors chars_per_pixel */
"    16    16       10            1",
/* colors */
". c #000000",
"# c #000084",
"a c #0000ff",
"b c #008484",
"c c #848484",
"d c #c6c6c6",
"e c #ff0000",
"f c #ffff00",
"g c #ffffff",
"h c None",
/* pixels */
"babaefa#d#bababa",
"ababafedgd#babah",
"baeab#dgdcc#bahh",
"abffecggcccc#hhh",
"bfbeafaffeeafhhh",
"afebac.d.c.c#hhh",
"bbfebadgdcc#eehh",
"abffeadgdc.hfeeh",
"babffedgdc.hhfee",
"ababffegdc.hhhee",
"bababfffec.hhhee",
"ababaheffeeeeeee",
"babahhdeefeeeeeh",
"abahhhdgdc.hhhhh",
"bahhhcdgdcc.hhhh",
"ahhhc.cccc...hhh"
};
SIMPLE  =                    T                                                  BITPIX  =                    8                                                  NAXIS   =                    2                                                  NAXIS1  =      
             16                                                  NAXIS2  =                   16                                                  HISTORY Written by XV 3.10a                                                     END                           
                                                                                                                                                                                                                                                               
                                                                                                                                                                                                                                                               
                                                                                                                                                                                                                                                               
                                                                                                                                                                                                                                                               
                                                                                                                                                                                                                                                               
                                                                                                                                                                                                                                                               
                                                                                                                                                                                                                                                               
                                                                                                                                                                                                                                                               
                                                                                                                                                                                                                                                               
                                                                           '«««„
'×'××WW'×«««'V××W„ÿÿ„„„„«««V'W'VÆÿÆ„„V'««'V'V'×WÆÿÆV'V'«V'V'W×'ÆV'V'V'










