/* XPM */
static char *communicatorj3232[] = {
/* width height num_colors chars_per_pixel */
"    32    32       12            1",
/* colors */
". c #000000",
"# c #0000ff",
"a c #008400",
"b c #00ff00",
"c c #840000",
"d c #848400",
"e c #848484",
"f c #c6c6c6",
"g c #ff0000",
"h c #ffff00",
"i c #ffffff",
"j c None",
/* pixels */
"jeeeeeeeeeeeeeeeeeeeeejjjjjjjjjj",
"jeiiiiiiiiiiiiiiiiiiieejjjjjjjjj",
"jeiiiiiiiiiiiiiiiiiiiefejjjjjjjj",
"jeiieeeeeeeeeeeeeeeeeeifejjjjjjj",
"jeiifefefefefefefefefeiifejjjjjj",
"jeiiefefefefbbbaaeefeeiiifejjjjj",
"jeiifefefefbibabaaeefeiiiifejjjj",
"jeiiefefefbiibbabaaeeeiiiiifejjj",
"jeiifefeffbibbabaaaef........jjj",
"jeiiefffffbbbabaaa#fffeeeeee.ejj",
"jeiieffeffababaaa##ffefffefi.ejj",
"jeiiffffffbabaaa#a#ffffffffi.ejj",
"jeiiffhffffaaaa#a#ffffhffffi.ejj",
"jeiiffffffffaa#a#ffffffffffi.ejj",
"jeiiffffhfhfhfhfhfhfhfhfhffi.ejj",
"jeiifhfcfhfhfhfhfhfhfhfhfhfi.ejj",
"jeiifffcchfhfhfhfhfhfhfhfhfi.ejj",
"jeiifhgccchhhhhhhffddddd.hfi.ejj",
"jeiiffggccchfhfhfihhhhh..ffi.ejj",
"jeiifeggcccchhhhfiddddd..hfi.ejj",
"jeiifgggccccchhhfhddddd..hhi.ejj",
"jeiiggggccccciiifhddddd..ifi.ejj",
"jeiigggggccchihifhddddd..ihi.ejj",
"jeiifegggcciiiiifhddddd..ifi.ejj",
"jeiifhhggciihihiffddddd.hhhi.ejj",
"jeiiiihhhiiiiiiiiiiiiiiiiiii.ejj",
"jeiihihhhihihihihihihihihhhi.ejj",
"jeiihhhhhhhhhhhhhhhhhhhhhhhi.ejj",
"jeiiiiiiiiiiiiiiiiiiiiiiiiii.ejj",
"jeiiiiiiiiiiiiiiiiiiiiiiiiii.ejj",
"j............................ejj",
"jjeeeeeeeeeeeeeeeeeeeeeeeeeeeejj"
};
SIMPLE  =                    T                                                  BITPIX  =                    8                                                  NAXIS   =                    2                                                  NAXIS1  =      
             32                                                  NAXIS2  =                   32                                                  HISTORY Written by XV 3.10a                                                     END                           
                                                                                                                                                                                                                                                               
                                                                                                                                                                                                                                                               
                                                                                                                                                                                                                                                               
                                                                                                                                                                                                                                                               
                                                                                                                                                                                                                                                               
                                                                                                                                                                                                                                                               
                                                                                                                                                                                                                                                               
                                                                                                                                                                                                                                                               
                                                                                                                                                                                                                                                               
                                                                           ««„„„„„„„„„„„„„„„„„„„„„„„„„„„„«««
×ÿ×ÿ×××ÿ
××××
'ÆÆ„ÆÆÆ„Æÿ
ÿÿÿÿ„Æ„«««««««««„ÿÿÿÿÿÿÿÿÿÿÿÿÿÿÿÿÿÿÿ„„««««««««««„„„„„„„„„„„„„„„„„„„„„««««««««««







