/* XPM */
static char *communicatorb3232[] = {
/* width height num_colors chars_per_pixel */
"    32    32        7            1",
/* colors */
". c #000000",
"# c #000084",
"a c #008484",
"b c #848484",
"c c #c6c6c6",
"d c #ffffff",
"e c None",
/* pixels */
"eeebbbbbbbbbbbbbbbbbbbeeeeeeeeee",
"eeebdddddddddddddddddb.eeeeeeeee",
"eeebdddddddddddddddddbb.eeeeeeee",
"eeebddaaaaaaaaaaaddddbcb.eeeeeee",
"eeebddaaaaaaaaaaadbbdbccb.eeeeee",
"eeebddaadddadddaaddddbdccb.eeeee",
"eeebddaaaddaadaaadbbdbdddcb.eeee",
"eeebddaaadadadaaaddddb......beee",
"eeebddaaadaaddaaadbbddddddd.beee",
"eeebddaaadaaadaaadddddddddd.beee",
"eeebdda.ddd...#aadbbbbbbddd.beee",
"eeebdda.........#dddddddddd.beee",
"eeebdda..........dbbbbbbddd.beee",
"eeebddddddddddddddddddddddd.beee",
"eeebddbbbbbbbbbbbbbbbbbbddd.beee",
"eeebddddddddddddddddddddddd.beee",
"eeebddbbbbbbbbbddbbbbbbbddd.beee",
"eeebdddddddddddddbbbbbbbddd.beee",
"eeebddbbbbbbbbbddbbbbbbbddd.beee",
"eeebdddddddddddddbbbbbbbddd.beee",
"eeebddbbbbbbbbbddbbbbbbbddd.beee",
"eeebddddddddddddddddddddddd.beee",
"eeebddbbbbbbbbbbbbbbbbbbddd.beee",
"eeebddddddddddddddddddddddd.beee",
"eeebddbbbbbbbbbbbbbbbbbbddd.beee",
"eeebddddddddddddddddddddddd.beee",
"eeebddbbbbbbbbbdddddddddddd.beee",
"eeebddddddddddddddddddddddd.beee",
"eeebddddddddddddddddddddddd.beee",
"eeebddddddddddddddddddddddd.beee",
"eee.........................beee",
"eeeebbbbbbbbbbbbbbbbbbbbbbbbbeee"
};
SIMPLE  =                    T                                                  BITPIX  =                    8                                                  NAXIS   =                    2                                                  NAXIS1  =      
             32                                                  NAXIS2  =                   32                                                  HISTORY Written by XV 3.10a                                                     END                           
                                                                                                                                                                                                                                                               
                                                                                                                                                                                                                                                               
                                                                                                                                                                                                                                                               
                                                                                                                                                                                                                                                               
                                                                                                                                                                                                                                                               
                                                                                                                                                                                                                                                               
                                                                                                                                                                                                                                                               
                                                                                                                                                                                                                                                               
                                                                                                                                                                                                                                                               
                                                                           ««««„„„„„„„„„„„„„„„„„„„„„„„„„««««««
ÿÿÿÿÿÿÿ
„„„„„ÿÿÿ
„„„„„„ÿÿÿ
ÿÿÿÿ„„







