/* XPM */
static char *communicatorl1616[] = {
/* width height num_colors chars_per_pixel */
"    16    16        9            1",
/* colors */
". c #000000",
"# c #000084",
"a c #0000ff",
"b c #008400",
"c c #008484",
"d c #848484",
"e c #ff0000",
"f c #ffffff",
"g c None",
/* pixels */
"cacaca#.cacacac.",
"acaca#ff.cacac.g",
"cacaeeffa.cac.gg",
"aca#ffffff.c.ggg",
"ca#affdfffe#gggg",
"a#fffffdffff.ggg",
"c#fffdffdfffa.gg",
"ac#affdffdffff#g",
"cac#fffdfffbbfe#",
"acac#effdffbbff.",
"cacac.fffffffe.g",
"acac.g.afffff.gg",
"cac.ggg.fffa.ggg",
"ac.ggggg.ef.gggg",
"c.ggggggg.#ggggg",
".ggggggggggggggg"
};
SIMPLE  =                    T                                                  BITPIX  =                    8                                                  NAXIS   =                    2                                                  NAXIS1  =      
             16                                                  NAXIS2  =                   16                                                  HISTORY Written by XV 3.10a                                                     END                           
                                                                                                                                                                                                                                                               
                                                                                                                                                                                                                                                               
                                                                                                                                                                                                                                                               
                                                                                                                                                                                                                                                               
                                                                                                                                                                                                                                                               
                                                                                                                                                                                                                                                               
                                                                                                                                                                                                                                                               
                                                                                                                                                                                                                                                               
                                                                                                                                                                                                                                                               
                                                                           
  Д   Wлллл'V'      










