/* XPM */
static char *communicatorb1616[] = {
/* width height num_colors chars_per_pixel */
"    16    16        7            1",
/* colors */
". c #000000",
"# c #000084",
"a c #0000ff",
"b c #008484",
"c c #848484",
"d c #ffffff",
"e c None",
/* pixels */
"ecccccccccccceee",
"ecdddddddddcdcee",
"ecd..#aadddcdd.e",
"ecdad#daddd....e",
"ecdbdddbdccddd.e",
"ecdbd.bbdddddd.e",
"ecd.....dcccdd.e",
"ecdddddddddddd.e",
"ecdccccccdcccd.e",
"ecddddddddcccd.e",
"ecdccccccdcccd.e",
"ecdddddddddddd.e",
"ecdccccccccccd.e",
"ecdddddddddddd.e",
"ecdddddddddddd.e",
"e..............e"
};
SIMPLE  =                    T                                                  BITPIX  =                    8                                                  NAXIS   =                    2                                                  NAXIS1  =      
             16                                                  NAXIS2  =                   16                                                  HISTORY Written by XV 3.10a                                                     END                           
                                                                                                                                                                                                                                                               
                                                                                                                                                                                                                                                               
                                                                                                                                                                                                                                                               
                                                                                                                                                                                                                                                               
                                                                                                                                                                                                                                                               
                                                                                                                                                                                                                                                               
                                                                                                                                                                                                                                                               
                                                                                                                                                                                                                                                               
                                                                                                                                                                                                                                                               
                                                                           «
ÿÿÿVÿ„„ÿÿÿ










