/* XPM */
static char *communicatori3232[] = {
/* width height num_colors chars_per_pixel */
"    32    32        8            1",
/* colors */
". c #000000",
"# c #008484",
"a c #848400",
"b c #848484",
"c c #c6c6c6",
"d c #ff0000",
"e c #ffffff",
"f c None",
/* pixels */
"fbbbbbbbbbbbbbbbbbbbbbffffffffff",
"fbeeeeeeeeeeeeeeeeeeebbfffffffff",
"fbeeeeeeeeeeeeeeeeeeebcbffffffff",
"fbeecccccccccccccccccbecbfffffff",
"fbeecccccccccccccccccbeecbffffff",
"fbeecccccccc#####ccccbeeecbfffff",
"fbeeccccccc#######cccbeeeecbffff",
"fbeecccccc###e#e###ccbeeeeecbfff",
"fbeecccccc##e#e#e##cc........fff",
"fbeecccccc###e#e###cccbbbbbb.bff",
"fbeecccccc##e#e#e##cccccccee.bff",
"fbeecccccc###e#e###cccccccee.bff",
"fbeeccccccc#######ccccccccee.bff",
"fbeecccccccc#####cccccccccee.bff",
"fbeeccccccccccccccccccccccee.bff",
"fbeeccddccccccccccccccccccee.bff",
"fbeeccdddcccccccccccccccccee.bff",
"fbeeccddddccccccaaaaaaaaccee.bff",
"fbeeccddeddcccccaaaaaaaaccee.bff",
"fbeeccdddeddccccaaaeaeaaccee.bff",
"fbeeccddededdcccaaeaeaaaccee.bff",
"fbeeccdddedddcccaaaeaeaaccee.bff",
"fbeeccddedddccccaaeaeaaaccee.bff",
"fbeeccdddddcccccaaaaaaaaccee.bff",
"fbeeccddddccccccaaaaaaaaccee.bff",
"fbeeccdddcccccccccccccccccee.bff",
"fbeeccddccccccccccccccccccee.bff",
"fbeeccccccccccccccccccccccee.bff",
"fbeeeeeeeeeeeeeeeeeeeeeeeeee.bff",
"fbeeeeeeeeeeeeeeeeeeeeeeeeee.bff",
"f............................bff",
"fbbbbbbbbbbbbbbbbbbbbbbbbbbbbbff"
};
SIMPLE  =                    T                                                  BITPIX  =                    8                                                  NAXIS   =                    2                                                  NAXIS1  =      
             32                                                  NAXIS2  =                   32                                                  HISTORY Written by XV 3.10a                                                     END                           
                                                                                                                                                                                                                                                               
                                                                                                                                                                                                                                                               
                                                                                                                                                                                                                                                               
                                                                                                                                                                                                                                                               
                                                                                                                                                                                                                                                               
                                                                                                                                                                                                                                                               
                                                                                                                                                                                                                                                               
                                                                                                                                                                                                                                                               
                                                                                                                                                                                                                                                               
                                                                           «„„„„„„„„„„„„„„„„„„„„„„„„„„„„„«««
ÆÆÆÆÆÆÿÿ
oooooÆÆÿÿ
VÆÆÆÆÆÆÆÿÿ
ÿÿÿÿ„Æ„«««««««««„ÿÿÿÿÿÿÿÿÿÿÿÿÿÿÿÿÿÿÿ„„««««««««««„„„„„„„„„„„„„„„„„„„„„««««««««««







