/* XPM */
static char *communicatora3232[] = {
/* width height num_colors chars_per_pixel */
"    32    32        9            1",
/* colors */
". c #000000",
"# c #0000ff",
"a c #008484",
"b c #840000",
"c c #848400",
"d c #848484",
"e c #c6c6c6",
"f c #ffff00",
"g c None",
/* pixels */
"#a#a#a#a#a#a#a#a#a#a#a#a#a#a#a#a",
"a#a#a#a#a#a#a#b.c#.#a#a#a#a#a#e.",
"#a#a#a#a#a#a#abeb.#.#a#a#a#a#e.g",
"a#a#a....#a#a#cfb..#a#a#a..#d.gg",
"#a#a.cb...#a.acg..#.#a#a.cf..ggg",
"a#a#.fcb....b.deb...a#a.cfdb.dgg",
"#a#a#.ecb.b.beefdbcb..#cedb.edgg",
"a#a#a#.eccdfefcedfeccbbedb.eddgg",
"#a#a#a#.gffcccdebccffeedb.eddggg",
"a#a#a#beggfb..dfb.a.becb.eddgggg",
"#a#a#adgccge.adfb.#ecbfc.ddggggg",
"a#a#aceecb.ge.dgb.ecb.feb.gggggg",
"#a#a#decb.#.eedebecb.dbec.gggggg",
"a#a#befb..a#.fdecc..dg.fcbgggggg",
"#bbbdecc.bbb.cgfecbdeedcd.bbbbbd",
"eefecffbffgeegfefeceffeeffeffed.",
".dddeeedddddefefeebdbb..edccccd.",
"....cec.bbbbedfeedb.....fe.b...d",
"#.#.ceb.#a#ec.eeddeb..ecfdb.eedd",
"a#.#cfe..#ecb.gb..bfb.efdb.ddddg",
"#a#a#cfb.ecb..gb...becfedb.ggggg",
"a#a#abfecc..d.gb....ceed..dggggg",
"#a#a#abee..dg.ec..bbdfgdb.edgggg",
"a#a#a#.efcb..bfc.bccgebccb.edggg",
"#a#a#cebbgecbcecccfdcbcdfdb.edgg",
"a#a#cfecbbcfeegegdcbbc.bcfd.eddg",
"#a#ceccb...cccfcbbbc..ggbcfd.edg",
"a#abdcb.edg..cgbe...gggggbdd.ddg",
"#a#.b..edggg.ced.edggggggg..ddgg",
"a#e..eedgggggbed.edggggggggggggg",
"#e.ggddggggggbdc.edggggggggggggg",
"a.gggggggggggg..ddgggggggggggggg"
};
SIMPLE  =                    T                                                  BITPIX  =                    8                                                  NAXIS   =                    2                                                  NAXIS1  =      

             32                                                  NAXIS2  =                   32                                                  HISTORY Written by XV 3.10a                                                     END                           

                                                                                                                                                                                                                                                               

                                                                                                                                                                                                                                                               

                                                                                                                                                                                                                                                               

                                                                                                                                                                                                                                                               

                                                                                                                                                                                                                                                               

                                                                                                                                                                                                                                                               

                                                                                                                                                                                                                                                               

                                                                                                                                                                                                                                                               

                                                                                                                                                                                                                                                               

                                                                           V

-
'Æo-×o








