/* XPM */
static char * 35disk_xpm[] = {
/* width height ncolors chars_per_pixel */
"32 32 5 1",
/* colors */
" 	c black",
".	c slate grey",
"X	c red",
"o	c grey",
"O	c white",
/* pixels */
"                                ",
"  .. XXXXXXXXXXXXXXXXXXXXXo...  ",
" ... XXXXXXXXXXXXXXXXXXXXXo...  ",
" ... OOOOOOOOOOOOOOOOOOOOOo. .  ",
" ... OOOOOOOOOOOOOOOOOOOOOo. .  ",
" ... OooooooooooooOOOOOOOOo...  ",
" ... OOOOOOOOOOOOOOOOOOOOOo...  ",
" ... OooooooooOOOOOOOOOOOOo...  ",
" ... OOOOOOOOOOOOOOOOOOOOOo...  ",
" ... OOOOOOOOOOOOOOOOOOOOOo...  ",
" ... OOOOOOOOOOOOOOOOOOOOOo...  ",
" ... OOOOOOOOOOOOOOOOOOOOOo...  ",
" ... OOOOOOOOOOOOOOOOOOOOOo...  ",
" ... OOOOOOOOOOOOOOOOOOOOOo...  ",
" ... OOOOOOOOOOOOOOOOOOOOOo...  ",
" ... OOOOOOOOOOOOOOOOOOOOOo...  ",
" ...ooooooooooooooooooooooo...  ",
" .............................  ",
" .............................  ",
" .............................  ",
" ........                 ....  ",
" ........ oooooooooooo ..oo...  ",
" ........ oooooooooooo ...o...  ",
" ........ oo    Oooooo ...o...  ",
" ........ oo ...Oooooo ...o...  ",
" ........ oo ...Oooooo ...o...  ",
" ........ oo ...Oooooo ...o...  ",
" ........ oo ...Oooooo ...o...  ",
" ........ ooOOOOOooooo ...o...  ",
"  ....... oooooooooooo ...o..   ",
"                                ",
"                                "};
