/* XPM */
static char * spd-dsk1_xpm[] = {
/* width height ncolors chars_per_pixel */
"32 32 5 1",
/* colors */
" 	c white",
".	c slate grey",
"X	c black",
"o	c grey",
"O	c red",
/* pixels */
"                                ",
"                                ",
"                                ",
". ..... .  XXXXXXXXXXXXXXXXXXX  ",
"          XXXXXXXXXXXXXXXXXXX   ",
"          XXXXXXXXXXXXXXXXXXX   ",
".....    XXXXXXXXXXXXXXXXXX     ",
"         XXXXXXXXXXXXXXXXX      ",
"....    XXXXXXXXXXXXXXXXXXX     ",
"        XXXXXXXXooXXXXXXXXX     ",
"       XXXXXXXXo  oXXXXXXX      ",
"       XXXXXXXXo  XXXXXXXX      ",
" ......XXXXXXXXXoXXXXXXXX       ",
"      XXXXXXXXXXXXXXXXXXX       ",
"     XXXXXXXXooXXXoXXXXX        ",
"...  XXXXXXXXooXXXXXXXXX        ",
"    XXXXXXXXooXXXXXXXXX         ",
"    XXXXXXXXooXXXXXXXXX         ",
".. XXXXXXXXooXXXXXXXXX          ",
"   XXXXXXXXXXXXXXX   XX         ",
"  XXXXXXXXXXXXXXX     X XXXX    ",
"         X  X    XXX XXXXOOXX   ",
"    XXXX  X  X     X XXXOOXooX  ",
"   XoXOXXXX  X     XX  XO XooX  ",
" . XoOOX     X .. X   XO XoooX  ",
"   XoOOOX   X     X  X  XoooX   ",
"   XoOOXXXXX       XX XXooXX    ",
"..  XoOOOX    .. .. XXoooX      ",
"    XooOOOX         XooXX       ",
"    XXooOOX    ..... XX         ",
" ..  XXooOX                     ",
"      XXXX                      "};
