/* XPM */
static char * documents_xpm[] = {
"32 32 8 1",
" 	c None s None",
".	c #808080",
"X	c #C0C0C0",
"o	c #000000",
"O	c #FFFFFF",
"+	c #0000FF",
"@	c #FFFF00",
"#	c #808000",
"                                ",
"                                ",
"                                ",
"                                ",
"                .               ",
"               .Xo              ",
"              .OOXo             ",
"         .....OOOOXo            ",
"        .OOO.OOO+OOXo           ",
"       .OX@.OOO+O+OOXo...       ",
"       .O@.OOO+O+O+OOXo@@#      ",
"       .O.OOO+O+O+O+OOXo@#o     ",
"     ..XXXXXXXXXXXXXXXOXo#o     ",
"    .OOOOOOOOOOOOOOOOOoOXoo     ",
"    .X@X@X@X@X@X@X@X@XoOOXo     ",
"    .@X@X@X@X@X@X@X@X@.oOOXo    ",
"     .@X@X@X@X@X@X@X@X@oOXo     ",
"     .X@X@X@X@X@X@X@X@X..oo     ",
"     .@X@X@X@X@X@X@X@X@Xo#o     ",
"      .@X@X@X@X@X@X@X@X@o#o     ",
"      .X@X@X@X@X@X@X@X@X.oo     ",
"      .@X@X@X@X@X@X@X@X@Xoo     ",
"       .@X@X@X@X@X@X@X@X@oo     ",
"       .X@X@X@X@X@X@X@X@X.o     ",
"       .##################o     ",
"        oooooooooooooooooo      ",
"                                ",
"                                ",
"                                ",
"                                ",
"                                ",
"                                "};
