/* XPM */
static char *dontpanic_xpm[] = {
/* width height ncolors chars_per_pixel */
"64 64 4 1",
/* colors */
"` c black",
"a c limegreen",
"b c red",
"c c gold",
/* pixels */
"````````````````````````````````````````````````````````````````",
"`````````````````````c``````````````````````````````````````````",
"`````````````````````c``````````````````````````````````````````",
"``cccc````cc```c```c`c`cccc```cccc```ccc``c```c``ccc```cc```cc``",
"``c```c``c``c``cc``c````c`````c```c`c```c`cc``c```c```c``c``cc``",
"``c```c`c````c`c`c`c````c`````c```c`c```c`c`c`c```c``c``````cc``",
"``c```c`c````c`c`c`c````c`````c```c`c```c`c`c`c```c``c``````cc``",
"``c```c`c````c`c``cc````c`````cccc``ccccc`c``cc```c``c``````cc``",
"``c```c`c````c`c``cc````c`````c`````c```c`c``cc```c``c``````cc``",
"``c```c`c````c`c```c````c`````c`````c```c`c```c```c``c``````````",
"``c```c``c``c``c```c````c`````c`````c```c`c```c```c```c``c``cc``",
"``cccc````cc```c```c````c`````c`````c```c`c```c``ccc```cc```cc``",
"````````````````````````````````````````````````````````````````",
"````````````````````````````````````````````````````````````````",
"````````````````````````````````````````````````````````````````",
"````````````````````````````````````````````````````````````````",
"````````````````````````````````````````````````````````````````",
"````````````````````````````````````````````````````````````````",
"````````a`a``a````````````aaaaaaaaaaa``````````````a``a`a```````",
"`````a``a`a``a``````````aaaaaaaaaaaaaaa````````````a``a`a``a````",
"`````a``a`a`a`````````aaaaaaaaaaaaaaaaaaaa``````````a`a`a``a````",
"``````a`a`a`a````````aaaaaaaaaaaaaaaaaaaaaa`````````a`a`a`a`````",
"``````aaaaaaa```````aaaaaaaaaaaaaaaaaaaaaaaa````````aaaaaaa`````",
"`````aaaaaaaaaaa```aaaaaaaaaaaaaaaaaaaaaaaaaaa```aaaaaaaaaaa````",
"`````aaaaaaaaaaaa`aaaaaaaaaaaaaaaaaaaaaaaaaaaaa`aaaaaaaaaaaa````",
"`````aaaaaaaa````aaaaaaaaaaaaaaaaaaaaaaaaaaaaaaa````aaaaaaaa````",
"`````aaaaaaaa````aaaaaaaaaaaaaaaaaaaaaaaaaaaaaaa````aaaaaaa`````",
"``````aaaaaa````aaaaaaaaaaaaaaaaaaaaaaaaaaaaaaaaa````aaaaa``````",
"``````aaaa``````aaaaaaaaaaaaaaaaaaaaaaaaaaaaaaaaa`````aaaa``````",
"`````aaaa``````aaaaaaaaaaaaaaaaaaaaaaaaaaaaaaaaaaa`````aaaa`````",
"`````aaaa``````aaaaaaaaaaaaaaaaaaaaaaaaaaaaaaaaaaa`````aaaa`````",
"````aaaa```````aaaaaaaaaaaaaaaaaaaaaaaaaaaaaaaaaaa``````aaa`````",
"````aaaa```````aaaaaaaaaaaaaaaaaaaaaaaaaaaaaaaaaaa``````aaaa````",
"```aaaa````````aaaaaaaaaaaaaaaaaaaaaaaaaaaaaa``aaa```````aaa````",
"```aaaa``````aaaaaaaaaaaaaaaaaaaaaaaaaaaaaaaa```aaaaa````aaaa```",
"```aaa```aaaaaaaaaa``aaaaaaaaaaaaaaaaaaaaaaa````aaaaaaaaaaaaa```",
"``aaaa`aaaaaaaaaaa````aaaaaaaaaaaaaaaaaaaaa`````aaaaaaaaaaaaaa``",
"``aaaaaaaaaaaaaaaa`````aaaaaaaaaaaaaaaaaaaa````aaa``aaaaaaaaaaa`",
"`aaaaaaaaaaaa``aaa``````aaaaaaaaaaaaaaaaa``````aaa`````aaaaaaaa`",
"`aaaaaaaa``````aaaa```````aaaaaaaaaaaaaa```````aaa`````````aaaa`",
"`aaaa```````````aaa``````````aaaaaaaa``````````aa```````````````",
"`aa`````````````aaa```````````````````````````aaa```````````````",
"````````````````aaaa``````````````````````````aaa```````````````",
"`````````````````aaaa````````````````````````aaa````````````````",
"`````````````````aaaaa```````bbbbbbbb```````aaaa````````````````",
"``````````````````aaaa``````bbbbbbbbbbb`````aaa`````````````````",
"``````````````````aaaaa`````bbbbbbbbbbbb``aaaa``````````````````",
"```````````````````aaaaa````bbbbbbbbbbbbbbaaa```````````````````",
"````````````````````aaaaaaa``bbbbbbbbbbbbbb`````````````````````",
"``````````````````````aaaaaaa``bbbbbbbbbbbb`````````````````````",
"````````````````````````aaaaaaaabbbbbbbbbbbb````````````````````",
"```````````````````````````aaaaaabbbbbbbbbbbb```````````````````",
"``````````````````````````````````bbbbbbbbbbb```````````````````",
"``````````````````````````````````bbbbbbbbbbb```````````````````",
"``````````````````````````````````bbbbbbbbbbb```````````````````",
"```````````````````````````````````bbbbbbbbb````````````````````",
"```````````````````````````````````bbbbbbbb`````````````````````",
"````````````````````````````````````bbbbb```````````````````````",
"````````````````````````````````````````````````````````````````",
"````````````````````````````````````````````````````````````````",
"````````````````````````````````````````````````````````````````",
"````````````````````````````````````````````````````````````````",
"````````````````````````````````````````````````````````````````",
"````````````````````````````````````````````````````````````````"
};
