/* XPM */
static char * editres_xpm[] = {
/* width height ncolors chars_per_pixel */
"32 30 7 1",
/* colors */
" 	s None	c None",
".	c green",
"X	c seagreen",
"o	c black",
"O	c burlywood1",
"+	c blue",
"@	c red",
/* pixels */
"        ....                    ",
"      .......                   ",
"     ...X.XXXo oo               ",
"    .X.X.XXOOOoOOo              ",
"    .XXXXXOOo+OOOo              ",
"    X  XXOOOOOOOo               ",
"    XX  XOoO@@OOOo              ",
"     X  oO+O@@O@Oo              ",
"         oOOOOO@Ooo             ",
"        oOOOO@@OOo+o            ",
"        oOOoOOOOo++@o           ",
"         oo oooo++o@o           ",
"               o+o@@+o          ",
"                o@@o+o          ",
"                 @o++o          ",
"       @@@@@@    o++o@+         ",
"       @@@@@@     +o@o+ @@@     ",
"        @@@@@@    o@@@+@@@@     ",
"         @@@@@@    @o+ @@@      ",
"          @@@@@@   o+ @@@       ",
"           @@@@@@    @@@        ",
"           @@@@@@   @@@         ",
"            @@@@@@ @@@          ",
"             @@@@ @@@@@         ",
"             @@@ @@@@@@@        ",
"            @@@   @@@@@@        ",
"           @@@     @@@@@@       ",
"          @@@       @@@@@@      ",
"         @@@        @@@@@@@     ",
"        @@@          @@@@@@     "};
