/* XPM */
static char *explorer1616[] = {
/* width height num_colors chars_per_pixel */
"    16    16       10            1",
/* colors */
". c #000000",
"# c #000084",
"a c #0000ff",
"b c #00ffff",
"c c #848400",
"d c #848484",
"e c #c6c6c6",
"f c #ffff00",
"g c #ffffff",
"h c None",
/* pixels */
"hhdddddhhhhhhhhh",
"hdefefedhhhhhhhh",
"defefefeddddddhh",
"dggggggggggggc.h",
"dgfedd.dfefefc.h",
"dgedgbg.dfefec.h",
"dgdgbgbe.dfefc.h",
"dgdbgbeb.cefec.h",
"dgdgbebe.cfefc.h",
"dgedebe.dccfec.h",
"dgfed..deaacfc.h",
"dccccccc#baacc.h",
"h........#baa.hh",
"hhhhhhhhhh#baa.h",
"hhhhhhhhhhh#ba.h",
"hhhhhhhhhhhh..hh"
};
SIMPLE  =                    T                                                  BITPIX  =                    8                                                  NAXIS   =                    2                                                  NAXIS1  =      
             16                                                  NAXIS2  =                   16                                                  HISTORY Written by XV 3.10a                                                     END                           
                                                                                                                                                                                                                                                               
                                                                                                                                                                                                                                                               
                                                                                                                                                                                                                                                               
                                                                                                                                                                                                                                                               
                                                                                                                                                                                                                                                               
                                                                                                                                                                                                                                                               
                                                                                                                                                                                                                                                               
                                                                                                                                                                                                                                                               
                                                                                                                                                                                                                                                               
                                                                           лллллллллллл
ДД










