/* XPM */
static char * find1_xpm[] = {
"32 32 9 1",
" 	c None s None",
".	c #808080",
"X	c #FFFFFF",
"o	c #000000",
"O	c #C0C0C0",
"+	c #00FFFF",
"@	c #008080",
"#	c #0000FF",
"$	c #000080",
"                                ",
"                                ",
"                                ",
"                                ",
"          .............         ",
"          .XXXXXXXXXXX.o        ",
"          .XXXXXXXXXXX..o       ",
"        ....OXXXXXXXXX.X.o      ",
"      ..XOX+@oXXXXXXXX.XX.o     ",
"     .+X+O+O+@oXXXXXXXoooooo    ",
"     .X+XOO+O+o.OOOOXXXXXXOo    ",
"    .X+XXO+O+O@oOXXXXXXXXXOo    ",
"    .+X+XOO+O+@o.XXXXXXXXXOo    ",
"    .X+XXO+O+O@o.OOOOOOOXXOo    ",
"    .+X+XOO...@o.XXXXXXXXXOo    ",
"     .+X+O+O+@oo.OOOOOOOXXOo    ",
"     .O+XOO..@oo.XXXXXXXXXOo    ",
"      ..+O+O@o.#o.OOOOOOXXOo    ",
"        oooooO.##o.XXXXXXXOo    ",
"          ...#O+##o.OOOOXXOo    ",
"          .XX##++##o.XXXXXOo    ",
"          .XXX$#++##o.XXXXOo    ",
"          .XXXX$#++##o.XXXOo    ",
"          .XXXXX$#++##o.XXOo    ",
"          .OOOOOO$#++##oOOOo    ",
"          ooooooo$$#++#ooooo    ",
"                   $#+Oo        ",
"                    ooo         ",
"                                ",
"                                ",
"                                ",
"                                "};
