/* XPM */
static char * fruit_xpm[] = {
"32 32 8 1 0 0",
" 	s None	c None",
".	c black",
"X	c #0000FEFE0000",
"o	c #FEFEFEFEFEFE",
"O	c #7F7F7F7F0000",
"+	c #FEFEFEFE0000",
"@	c #FEFE00000000",
"#	c #7F7F00000000",
"                                ",
"                                ",
"                                ",
"                                ",
"                                ",
"                                ",
"                  ....          ",
"                 .XXXX.    ...  ",
"                  .XXXX.  .XX.  ",
"     ..            .XXX. .XXX.  ",
"     ..             .... .XX.   ",
"      ..                ....    ",
"       .               .        ",
"       ..            .....      ",
"    ...o. ...      ..O.OO+..    ",
"   .@@@.@.#@@.    .+++OO++O+.   ",
"  .@@@@@.@@###.  .+++++++++OO.  ",
"  .@@@@@@#@@@@.  .+++++++O+OO.  ",
" .@@@@@@@@##@##..+++++O++O+OOO. ",
" .@@@@@#@@@####..++O+O+O++OOOO. ",
" .@@@@@@@###@#@..O+++O++O+OOOO. ",
" .#@@#@@#@#@###..++O+++O+OOOOO. ",
" .@@@@#@##@####..O+++O+OOOOOOO. ",
" .@#@##@#@#####..+O+O+OOOOOOOO. ",
"  .##@########.  .++OOOOOOOOO.  ",
"  .@@#@##@####.  .OO+OOOOOOOO.  ",
"   .#########.    .OOOOOOOOO.   ",
"    .######..      ..OOOOO..    ",
"      .....          .....      ",
"                                ",
"                                ",
"                                "};
