/* XPM */
static char * fv_xpm[] = {
/**/
"40 30 3 1",
/*Á	*/
" 	s None	c None",
".	c red",
"X	c firebrick",
/**/
"                                        ",
"                                        ",
"                                        ",
"                                        ",
"                                        ",
"                                        ",
"                                        ",
"    ...............  .....X     ....X   ",
"    ..............X  ....XX     ...XX   ",
"    ..............X  ....XX     ...XX   ",
"    ...XXXXXXXXXXXX  ....XX     ...XX   ",
"    ...XXXXXXXXXXXX  ....XX     ...XX   ",
"    ...XX            ....XX     ...XX   ",
"    ...XX            ....XX     ...XX   ",
"    ...XX             ...XXX   ....X    ",
"    ...X........X     ....XX   ...XX    ",
"    ...........XX      ...XXX ....X     ",
"    ...........XX      ....XX ...XX     ",
"    ...XXXXXXXXXX       ...XX....X      ",
"    ...XXXXXXXXXX       ....X...XX      ",
"    ...XX                ...X...X       ",
"    ...XX                ......XX       ",
"    ...XX                 .....X        ",
"    ...XX                 ....XX        ",
"    ...XX                  ...X         ",
"    ...XX                  ..XX         ",
"    .XXXX                   .X          ",
"    XXXXX                   .X          ",
"                                        ",
"                                        "};
