/* XPM */
static char * globe_xpm[] = {
/**/
"32 26 10 1",
/**/
" 	c red",
".	s None	c None",
"X	c white",
"o	c light sea green",
"O	c black",
"+	c seagreen",
"@	c brown4",
"#	c green",
"$	c sienna",
"%	c blue",
/*50_foreground*/
" ...............................",
"  ..............................",
".  .............................",
"..  .............XooX...........",
"...  ........oo.XooOOXXX........",
"....  .....oooooOXOXooXOX.X.....",
".....  ...oooo++oOOXooXOX.X.....",
"......  .ooOoo++O++OOoOXXXoo....",
".......  OoOOO++o@+++OOXoXXX....",
"......oO  OOOOOO@+@@@Oo@@@O@o.o.",
"......@oO   OOOoOO+++O@++@@@@.@.",
"......@OO   OO#o@@OO@@++@@@@@@O@",
"......@O    OOO#@++oOoOOooO$$@O@",
"......@OOOOOOO%Oo+oOO@@@++OOOOOO",
"......@oo#%%%%%#OooO@@+@@+O@@@@@",
"......+@o++###++$@@OO@@$@o@$$ooo",
"......@oooO++++o$$O@OOo@ooo$$oOo",
"......@ooOOoooo@@OO$$$OOoOo$@OOo",
".......oooOoO+O@+O++++++OoOOoOoo",
".......oooOo@+OOOO+++$+Oo+oOoooo",
".......oooOo+++o@++OO$OooooOoo..",
".......oooOoooooO@+@OOooooooooo.",
".........ooOooooo@@@OoOOoOooo...",
"..........oXXoXoOOooooOoOOoo....",
"...........oXoXoOOXXoOooooo.....",
".............oooXoOooXXo........"};
