/* XPM */
static char * gv_xpm[] = {
"40 34 3 1",
" 	s None c None",
".	c black",
"X	c white",
"                                        ",
"                                        ",
"                  ......                ",
"                ..XXXXXX..              ",
"               .XXXXXXXXXX.             ",
"              .XXXXXXXXXXXX.            ",
"              .XXXXXXXXXXXX.            ",
"             .XXXXXXXXXXXXXX.           ",
"             .XXX..XXXX..XXX.           ",
"          ....XX....XX....XX.           ",
"         .XXX.XXX..XXXX..XXX....        ",
"        .XXXXXXXXXXXXXXXXXXX.XXX.       ",
"        .XXXXXXXXXXXXXXXXXXXXXXXX.      ",
"        .XXXXXXXXXXXXXXXXXXXXXXXX.      ",
"         ..XXXXXXXXXXXXXXXXXXXXXX.      ",
"           .XXXXXXXXXXXXXXXXXX...       ",
"           ..XXXXXXXXXXXXXXXX.          ",
"            .XXXXXXXXXXXXXXXX.          ",
"            .XXXXXXXXXXXXXXXX.          ",
"            .XXXXXXXXXXXXXXXXX.         ",
"            .XXXXXXXXXXXXXXXXX.         ",
"            .XXXXXXXXXXXXXXXXXX.        ",
"            .XXXXXXXXXXXXXXXXXXX.       ",
"           .XXXXXXXXXXXXXXXXXXXXX.      ",
"           .XXXXXXXXXXXXXX.XXXXXXX.     ",
"          .XXXXXXX.XXXXXXX.XXXXXXX.     ",
"         .XXXXXXXX.XXXXXXX.XXXXXXX.     ",
"         .XXXXXXX...XXXXX...XXXXX.      ",
"         .XXXXXXX.  .....   .....       ",
"         ..XXXX..                       ",
"           ....                         ",
"                                        ",
"                                        ",
"                                        "};
