/* XPM */
static char * index_xpm[] = {
/* width height num_colors chars_per_pixel */
"32 30 6 1",
/* colors */
" 	s None	c None",
".	c black",
"X	c lavender",
"o	c blue",
"O	c slate gray",
"+	c burlywood1",
/* pixels */
"                                ",
"                                ",
"                                ",
"                                ",
"           ... ... ..........   ",
"          .XXXoooooXXXXXXXXXX.  ",
"         ..........X...X...XX.OO",
"        .++++++++++ooooo+++.X.OO",
"       ......+...+.......++.X.OO",
"      .XXXXXXoooooXXXXXXX.+.X.OO",
"     ..X...X...........XX.+.X.OO",
"    .++ooooo+++++++++++.X.+.X.OO",
"   ..................++.X.+.X.OO",
"  .XXXXXXXXXXXXXXXXXX.+.X.+.X.OO",
"  .XX..........XXXXXX.+.X.+.X.OO",
"  .XXXXXXXXXXXXXXXXXX.+.X.+.X.OO",
"  .XX...........XXXXX.+.X.+.X.OO",
"  .XXXXXXXXXXXXXXXXXX.+.X.+.o.OO",
"  .XX.........XXXXXXX.+.X.+..OOO",
"  .XXXXXXXXXXXXXXXXXX.+.X.o.OOOO",
"  .XXXXXXXXXXXXXXXXXX.+.X..OOOO ",
" .................XXX.+.o.OOOO  ",
".oooooooooooooooo..XX.+..OOOO   ",
"....................X.o.OOOO    ",
"  oooooooooooooooooooo.OOOO     ",
"   ...................OOOO      ",
"    OOOOOOOOOOOOOOOOOOOOO       ",
"     OOOOOOOOOOOOOOOOOOO        ",
"                                ",
"                                "};
