/* XPM */
static char* xpm = {
"42 123 13 2",
"__ c #ffffff",
"_` c #000000",
"_a c #bebebe",
"_b c #c06077",
"_c c #306050",
"_d c #86ffe0",
"_e c #60303b",
"_f c #ff86a7",
"_g c #ffff00",
"_h c #00ff00",
"_i c #ff0000",
"_j c #ffa500",
"_k c #00ffff",
"_a_a_a_a_a_a_a_a_a_a_a_a_a_a_a_a_a_a_a_a_a_a_a_a_a_a_a_a_a_a_a_a_a_a_a_a_a_a_a_a_a_a", 
"_`_`_`_`_`_`_`_`_`_`_`_`_`_`_`_`_`_`_`_`_`_`_`_`_`_`_`_`_`_`_`_`_`_`_`_`_`_`_`_`_a_a", 
"_`_`_`_`_`_`_`_`_`_`_k_k_k_k_k_k_k_k_k_k_k_k_k_k_k_k_k_k_k_k_k_`_`_`_`_`_`_`_`_`_a_`", 
"_`_`_`_`_`_`_`_`_`_k_k_k_`_k_k_k_k_k_k_k_k_k_`_k_`_k_k_k_k_k_`_k_`_`_`_`_`_`_`_`_a_`", 
"_`_`_`_`_`_`_`_`_k_k_k_`_k_`_k_k_k_k_k_k_k_`_k_`_k_k_k_k_k_`_k_`_k_`_`_`_`_`_`_`_a_`", 
"_`_`_`_`_`_`_`_k_k_`_k_k_`_k_k_k_k_k_k_k_k_k_k_k_k_k_k_k_`_k_`_k_`_k_`_`_`_`_`_`_a_`", 
"_`_`_`_`_`_`_k_k_`_k_`_k_k_k_`_`_`_`_`_`_`_`_`_`_`_`_`_`_k_`_k_`_k_`_k_`_`_`_`_`_a_`", 
"_`_`_`_`_`_k_k_`_k_`_k_k_k_`_k_k_k_k_k_k_k_k_k_k_k_k_k_`_`_k_`_k_`_k_`_k_`_`_`_`_a_`", 
"_`_`_`_`_k_k_`_k_`_k_k_k_`_k_k_k_k_k_k_k_k_k_k_k_k_k_k_k_`_`_k_`_k_`_k_`_k_`_`_`_a_`", 
"_`_`_`_k_k_`_k_`_k_k_k_`_k_k_k_k_k_k_k_k_k_k_k_k_k_k_k_k_k_`_`_k_`_k_`_k_`_k_`_`_a_`", 
"_`_`_k_k_`_k_`_k_k_k_`_k_k_k_k_k_k_k_k_k_k_k_k_k_k_k_k_k_k_k_`_`_k_`_k_`_k_`_k_`_a_`", 
"_`_k_k_k_k_`_k_k_k_`_k_k_k_k_k_k_k_k_k_k_k_k_k_k_k_k_k_k_k_k_k_`_`_k_`_k_`_k_`_`_a_`", 
"_`_k_k_k_`_k_k_k_`_k_k_k_k_k_k_k_k_k_k_k_k_k_k_k_k_k_k_k_k_k_k_k_`_`_k_`_k_`_k_`_a_`", 
"_`_k_k_k_k_k_k_`_k_k_k_k_k_k_k_k_k_k_k_k_k_k_k_k_k_k_k_k_k_k_k_k_k_`_`_k_`_k_`_`_a_`", 
"_`_k_k_k_k_k_k_`_k_k_k_k_k_k_k_k_k_k_k_k_k_k_k_k_k_k_k_k_k_k_k_k_k_`_k_`_k_`_k_`_a_`", 
"_`_k_k_k_k_k_k_`_k_k_k_k_k_k_k_k_k_k_k_k_k_k_k_k_k_k_k_k_k_k_k_k_k_`_`_k_`_k_`_`_a_`", 
"_`_k_k_k_k_k_k_`_k_k_k_k_k_k_k_k_k_k_k_k_k_k_k_k_k_k_k_k_k_k_k_k_k_`_k_`_k_`_k_`_a_`", 
"_`_k_k_k_k_k_k_`_k_k_k_k_k_k_k_k_k_k_k_k_k_k_k_k_k_k_k_k_k_k_k_k_k_`_`_k_`_k_`_`_a_`", 
"_`_k_k_k_k_k_k_`_k_k_k_k_k_k_k_k_k_k_k_k_k_k_k_k_k_k_k_`_k_k_k_k_k_`_k_`_k_`_k_`_a_`", 
"_`_k_k_k_k_k_`_`_k_k_k_k_k_k_k_k_k_k_k_k_k_k_k_k_k_k_k_k_k_k_k_k_k_`_`_k_`_k_`_`_a_`", 
"_`_k_k_k_k_`_k_`_k_k_k_k_k_k_k_k_k_k_`_k_k_k_k_k_k_k_k_`_k_k_k_k_k_`_k_`_k_`_k_`_a_a", 
"_`_k_k_k_`_k_`_`_k_k_k_k_k_k_k_k_k_k_k_`_`_k_k_k_k_k_`_`_k_k_k_k_k_`_`_k_`_k_`_`_a_a", 
"_`_k_k_`_k_`_k_`_k_k_k_k_k_k_k_k_k_k_k_`_`_k_k_k_k_k_`_k_k_k_k_k_k_`_k_`_k_`_k_`_a_`", 
"_`_k_`_k_`_k_`_`_k_k_k_k_k_k_k_k_k_k_k_k_k_`_`_`_k_k_k_`_k_k_k_k_k_`_`_k_`_k_`_`_a_`", 
"_`_k_k_`_k_`_k_`_k_k_k_k_k_k_k_k_k_k_k_k_k_`_`_`_k_k_`_`_k_k_k_k_k_`_k_`_k_`_k_`_a_`", 
"_`_k_`_k_`_k_k_`_k_k_k_k_k_k_k_k_k_k_k_k_k_`_`_`_k_k_`_k_k_k_k_k_k_`_`_k_`_k_`_`_a_`", 
"_`_k_k_`_k_k_k_`_k_k_k_k_k_k_k_k_k_k_k_k_k_k_k_k_k_k_k_`_k_k_k_k_k_`_k_`_k_`_k_`_a_`", 
"_`_k_`_k_k_k_k_`_k_k_k_k_k_k_k_k_k_k_k_k_k_k_k_k_k_k_`_`_k_k_k_k_k_`_`_k_`_k_`_`_a_`", 
"_`_k_k_k_k_k_k_`_k_k_k_k_k_k_k_k_k_k_k_k_k_k_k_k_k_k_`_`_k_k_k_k_`_`_k_`_k_`_k_`_a_`", 
"_`_k_k_k_k_k_k_k_`_k_k_k_k_k_k_k_k_k_`_`_k_`_`_k_`_`_`_k_k_k_k_`_`_k_`_k_`_k_`_`_a_`", 
"_`_k_k_k_k_k_k_k_k_`_k_k_k_k_k_`_k_`_`_k_`_`_k_`_`_`_k_k_k_k_`_`_k_`_k_`_k_`_k_`_a_`", 
"_`_`_k_k_k_k_`_k_k_k_`_k_k_k_k_k_k_k_k_k_k_k_k_k_k_k_k_k_k_`_`_k_`_k_`_k_`_k_`_`_a_`", 
"_`_`_`_k_k_`_k_`_k_k_k_`_k_k_k_k_k_k_k_k_k_k_k_k_k_k_k_k_`_`_k_`_k_`_k_`_k_`_`_`_a_`", 
"_`_`_`_`_k_k_`_k_k_k_k_k_`_k_k_k_k_k_k_k_k_k_k_k_k_k_k_`_`_k_`_k_`_k_`_k_`_`_`_`_a_`", 
"_`_`_`_`_`_k_k_k_k_k_k_k_k_`_k_k_k_k_k_k_k_k_k_k_k_k_`_`_k_`_k_`_k_`_k_`_`_`_`_`_a_`", 
"_`_`_`_`_`_`_k_k_k_k_k_k_k_k_`_`_`_`_`_`_`_`_`_`_`_`_`_k_`_k_`_k_`_k_`_`_`_`_`_`_a_`", 
"_`_`_`_`_`_`_`_k_k_k_k_k_k_`_k_`_k_`_k_`_k_`_k_`_k_`_k_`_k_`_k_`_k_`_`_`_`_`_`_`_a_`", 
"_`_`_`_`_`_`_`_`_k_k_k_k_`_k_`_k_`_k_`_k_`_k_`_k_`_k_`_k_`_k_`_k_`_`_`_`_`_`_`_`_a_`", 
"_`_`_`_`_`_`_`_`_`_k_k_`_k_`_k_`_k_`_k_`_k_`_k_`_k_`_k_`_k_`_k_`_`_`_`_`_`_`_`_`_a_`", 
"_`_`_`_`_`_`_`_`_`_`_k_k_`_k_`_k_`_k_`_k_`_k_`_k_`_k_`_k_`_k_`_`_`_`_`_`_`_`_`_`_a_`", 
"_`_`_`_`_`_`_`_`_`_`_`_`_`_`_`_`_`_`_`_`_`_`_`_`_`_`_`_`_`_`_`_`_`_`_`_`_`_`_`_`_a_a", 
"_`_`_`_`_`_`_`_`_`_`_`_`_`_`_`_`_`_`_`_`_`_`_`_`_`_`_`_`_`_`_`_`_`_`_`_`_`_`_`_`_a_a", 
"_`_`_`_`_h_h_h_h_h_h_h_h_h_h_h_h_h_h_h_h_h_h_h_h_h_h_h_h_h_h_h_h_h_h_h_h_`_`_`_`_a_`", 
"_`_`_`_h_h_h_h_h_h_h_h_h_h_h_h_h_`_h_h_h_h_h_h_h_h_h_h_h_h_h_h_h_h_h_h_h_h_`_`_`_a_`", 
"_`_`_h_h_h_h_h_h_h_h_h_h_h_h_h_`_h_`_h_h_h_h_h_h_h_h_h_h_h_h_h_h_h_h_h_h_h_h_`_`_a_`", 
"_`_h_h_h_h_h_h_h_h_h_h_h_h_h_h_h_`_h_h_h_h_h_h_h_h_h_h_h_h_h_h_h_h_h_h_h_`_h_h_`_a_`", 
"_`_h_h_h_h_h_h_h_h_h_h_h_h_h_h_h_h_h_h_h_h_h_h_h_h_h_h_h_h_h_h_h_h_h_h_`_h_`_h_`_a_`", 
"_`_h_h_h_h_h_h_h_h_h_h_h_h_h_h_h_h_h_h_h_h_h_h_h_h_h_h_h_h_h_h_h_h_h_`_h_`_h_`_`_a_`", 
"_`_h_h_h_h_h_h_h_h_h_h_h_h_h_h_h_h_h_h_h_h_h_h_h_h_h_h_h_h_h_h_h_h_`_h_`_h_`_h_`_a_`", 
"_`_h_h_h_h_h_h_h_h_h_h_h_h_h_h_h_h_h_h_h_h_h_h_h_h_h_h_h_h_h_h_h_`_h_`_h_`_h_`_`_a_`", 
"_`_h_h_h_h_h_h_h_h_`_`_`_`_`_`_`_`_`_`_`_`_`_`_`_`_`_`_`_h_`_h_`_h_`_h_`_h_`_h_`_a_`", 
"_`_h_h_h_h_h_h_h_`_`_h_h_h_h_h_h_`_h_`_h_`_h_`_h_h_h_h_h_h_`_`_h_`_h_`_h_`_h_`_`_a_`", 
"_`_h_h_`_h_h_h_h_`_h_`_h_h_h_h_`_h_`_h_`_h_`_h_h_h_h_h_h_`_h_`_`_h_`_h_`_h_`_h_`_a_`", 
"_`_h_`_h_`_h_h_h_`_`_h_h_h_h_h_h_`_h_`_h_`_h_`_h_h_h_h_h_h_`_`_h_`_h_`_h_`_h_`_`_a_`", 
"_`_h_h_`_h_h_h_h_`_h_`_h_h_h_h_`_h_`_h_`_h_`_h_h_h_h_h_h_`_h_`_`_h_`_h_`_h_`_h_`_a_`", 
"_`_h_h_h_h_h_h_h_`_`_h_h_h_h_h_h_`_h_`_h_`_h_`_h_h_h_h_h_h_`_`_h_`_h_`_h_`_h_`_`_a_`", 
"_`_h_h_h_h_h_h_h_`_h_`_h_h_h_h_`_h_`_h_`_h_`_h_h_h_h_h_h_`_h_`_`_h_`_h_`_h_`_h_`_a_`", 
"_`_h_h_h_h_h_h_h_`_`_h_h_h_h_h_h_`_h_`_h_`_h_`_h_h_h_h_h_h_`_`_h_`_h_`_h_`_h_`_`_a_`", 
"_`_h_h_h_h_h_h_h_`_h_`_h_h_h_h_`_h_`_h_`_h_`_h_h_h_h_h_h_`_h_`_`_h_`_h_`_h_`_h_`_a_`", 
"_`_h_h_h_h_h_h_h_`_`_h_h_h_h_h_h_`_h_`_h_`_h_h_h_h_h_h_h_h_`_`_h_`_h_`_h_`_h_`_`_a_`", 
"_`_h_h_h_h_h_h_h_`_h_h_h_h_h_h_`_h_`_h_`_h_h_h_h_h_h_h_h_`_h_`_`_h_`_h_`_h_`_h_`_a_a", 
"_`_h_h_h_h_h_h_h_`_h_h_h_h_h_h_h_`_h_`_h_h_h_h_h_h_h_h_h_h_`_`_h_`_h_`_h_`_h_`_`_a_a", 
"_`_h_h_h_h_h_h_h_`_h_h_h_h_h_h_`_h_`_h_h_h_h_h_h_h_h_h_h_`_h_`_`_h_`_h_`_h_`_h_`_a_`", 
"_`_h_h_h_h_h_h_h_`_h_h_h_h_h_h_h_`_h_h_h_h_h_h_h_h_h_h_h_h_`_`_h_`_h_`_h_`_h_`_`_a_`", 
"_`_h_h_h_h_h_h_h_`_h_h_h_h_h_h_`_h_h_h_h_h_h_h_h_h_h_h_h_`_h_`_`_h_`_h_`_h_`_h_`_a_`", 
"_`_h_h_h_h_h_h_h_`_h_h_h_h_h_h_h_h_h_h_h_h_h_h_h_h_h_h_h_h_`_`_h_`_h_`_h_`_h_`_`_a_`", 
"_`_h_h_h_h_h_h_h_`_h_h_h_h_h_h_h_h_h_h_h_h_h_h_h_h_h_h_h_`_h_`_`_h_`_h_`_h_`_h_`_a_`", 
"_`_h_h_h_h_h_h_h_`_h_h_h_h_h_h_h_h_h_h_h_h_h_h_h_h_h_h_h_h_`_`_h_`_h_`_h_`_h_`_`_a_`", 
"_`_h_h_h_h_h_h_h_`_h_h_h_h_h_h_h_h_h_h_h_h_h_h_h_h_h_h_h_`_h_`_`_h_`_h_`_h_`_h_`_a_`", 
"_`_h_h_h_h_h_h_h_`_h_h_h_h_h_h_h_h_h_h_h_h_h_h_h_h_h_h_h_h_`_`_h_`_h_`_h_`_h_`_`_a_`", 
"_`_h_h_h_h_h_h_h_`_h_h_h_`_h_`_h_`_h_`_h_`_h_`_h_`_h_`_h_`_h_`_`_h_`_h_`_h_`_h_`_a_`", 
"_`_h_h_h_h_h_h_h_h_`_`_`_`_`_`_`_`_`_`_`_`_`_`_`_`_`_`_`_`_`_`_h_`_h_`_h_`_h_`_`_a_`", 
"_`_h_h_h_h_h_h_h_h_`_h_`_h_`_h_`_h_`_h_`_h_`_h_`_h_`_h_`_h_`_h_`_h_`_h_`_h_`_h_`_a_`", 
"_`_h_h_h_h_h_h_h_`_h_`_h_`_h_`_h_`_h_`_h_`_h_`_h_`_h_`_h_`_h_`_h_`_h_`_h_`_h_`_`_a_`", 
"_`_h_h_h_h_h_h_`_h_`_h_`_h_`_h_`_h_`_h_`_h_`_h_`_h_`_h_`_h_`_h_`_h_`_h_`_h_`_h_`_a_`", 
"_`_h_h_h_h_h_`_h_`_h_`_h_`_h_`_h_`_h_`_h_`_h_`_h_`_h_`_h_`_h_`_h_`_h_`_h_`_h_`_`_a_`", 
"_`_h_h_h_h_`_h_`_h_`_h_`_h_`_h_`_h_`_h_`_h_`_h_`_h_`_h_`_h_`_h_`_h_`_h_`_h_`_h_`_a_`", 
"_`_`_h_h_`_h_`_h_`_h_`_h_`_h_`_h_`_h_`_h_`_h_`_h_`_h_`_h_`_h_`_h_`_h_`_h_`_h_`_`_a_`", 
"_`_`_`_h_h_`_h_`_h_`_h_`_h_`_h_`_h_`_h_`_h_`_h_`_h_`_h_`_h_`_h_`_h_`_h_`_h_`_`_`_a_`", 
"_`_`_`_`_h_h_`_h_`_h_`_h_`_h_`_h_`_h_`_h_`_h_`_h_`_h_`_h_`_h_`_h_`_h_`_h_`_`_`_`_a_`", 
"_`_`_`_`_`_`_`_`_`_`_`_`_`_`_`_`_`_`_`_`_`_`_`_`_`_`_`_`_`_`_`_`_`_`_`_`_`_`_`_`_a_a", 
"_`_`_`_`_`_`_`_`_`_`_`_`_`_`_`_`_`_`_`_`_`_`_`_`_`_`_`_`_`_`_`_`_`_`_`_`_`_`_`_`_a_a", 
"_`_`_`_`_`_`_`_`_`_`_`_`_`_`_`_`_`_`_j_j_j_j_`_`_`_`_`_`_`_`_`_`_`_`_`_`_`_`_`_`_a_`", 
"_`_`_`_`_`_`_`_`_`_`_`_`_`_`_`_`_j_j_j_j_j_j_j_j_`_`_`_`_`_`_`_`_`_`_`_`_`_`_`_`_a_`", 
"_`_`_`_`_`_`_`_`_`_`_`_`_`_`_j_j_j_j_j_`_j_j_j_j_j_j_`_`_`_`_`_`_`_`_`_`_`_`_`_`_a_`", 
"_`_`_`_`_`_`_`_`_`_`_`_`_j_j_j_j_j_j_j_`_j_j_j_j_j_j_j_j_`_`_`_`_`_`_`_`_`_`_`_`_a_`", 
"_`_`_`_`_`_`_`_`_`_`_j_j_j_j_j_j_j_j_j_`_j_j_j_j_j_j_j_j_j_j_`_`_`_`_`_`_`_`_`_`_a_`", 
"_`_`_`_`_`_`_`_`_j_j_j_j_j_j_j_j_j_j_j_j_j_j_j_j_j_j_j_j_j_j_j_j_`_`_`_`_`_`_`_`_a_`", 
"_`_`_`_`_`_`_j_j_j_j_j_j_j_j_j_j_j_j_j_`_j_j_j_j_j_j_j_j_j_j_j_j_j_`_`_`_`_`_`_`_a_`", 
"_`_`_`_`_j_j_j_j_j_j_j_j_j_j_j_j_j_j_j_`_j_j_j_j_j_j_j_j_j_j_j_j_`_j_`_j_`_`_`_`_a_`", 
"_`_`_j_j_j_j_j_j_j_j_j_j_j_j_j_j_j_j_j_`_j_j_j_j_j_j_j_j_j_j_j_`_j_`_j_`_j_`_`_`_a_`", 
"_`_j_`_`_j_j_j_j_j_j_j_j_j_j_j_j_j_j_j_j_j_j_j_j_j_j_j_j_j_j_`_j_`_j_`_j_`_j_`_`_a_`", 
"_`_j_j_j_`_`_j_j_j_j_j_j_j_j_j_j_j_j_j_`_j_j_j_j_j_j_j_j_j_`_j_`_j_`_j_`_j_`_j_`_a_`", 
"_`_j_j_j_j_j_`_`_j_j_j_j_j_j_j_j_j_j_j_`_j_j_j_j_j_j_j_j_`_j_`_j_`_j_`_j_`_j_`_`_a_`", 
"_`_j_j_j_j_j_j_j_`_`_j_j_j_j_j_j_j_j_j_j_j_j_j_j_j_j_j_j_j_`_j_`_j_`_j_`_j_`_j_`_a_`", 
"_`_j_j_j_j_j_j_j_j_j_`_j_`_j_j_j_j_j_j_j_j_j_j_j_j_j_j_j_j_j_`_j_`_j_`_j_`_j_`_`_a_`", 
"_`_j_j_j_j_j_j_j_j_j_j_j_j_j_j_`_j_j_j_j_j_j_j_j_`_j_j_`_j_`_j_`_j_`_j_`_j_`_j_`_a_`", 
"_`_j_j_j_j_j_j_j_j_j_j_j_j_j_j_j_`_j_j_j_j_j_j_`_j_j_`_j_`_j_`_j_`_j_`_j_`_j_`_`_a_`", 
"_`_j_j_j_j_j_j_j_j_j_j_j_j_j_j_j_j_`_j_j_j_j_`_j_j_j_j_`_j_`_j_`_j_`_j_`_j_`_j_`_a_`", 
"_`_j_j_j_j_j_j_j_`_j_j_j_j_j_j_j_j_j_`_j_j_`_j_j_j_j_`_j_`_j_`_j_j_j_`_j_`_j_`_`_a_`", 
"_`_j_j_j_j_j_j_j_j_j_j_j_j_j_j_j_j_j_j_j_j_j_j_j_j_j_j_`_j_`_j_`_j_j_j_`_j_`_j_`_a_a", 
"_`_j_j_j_j_j_`_j_j_j_j_j_j_j_j_j_j_j_j_j_j_j_j_j_j_j_`_j_`_j_`_j_`_j_`_j_`_j_`_`_a_a", 
"_`_j_j_j_j_`_j_j_j_j_j_j_j_j_j_j_j_j_`_j_j_`_j_j_j_j_j_`_j_`_j_`_j_`_j_`_j_`_j_`_a_`", 
"_`_j_j_j_j_j_j_j_j_j_j_j_j_j_j_j_j_`_j_j_j_j_`_j_j_j_`_j_`_j_`_j_`_j_`_j_`_j_`_`_a_`", 
"_`_j_j_`_j_j_j_j_j_j_j_j_j_j_j_j_`_j_j_j_j_j_j_`_j_j_j_`_j_`_j_`_j_`_j_`_j_j_j_`_a_`", 
"_`_j_`_j_j_j_j_j_j_j_j_j_j_j_j_`_j_j_j_j_j_j_j_j_`_j_j_j_`_j_`_j_`_j_`_j_`_j_j_`_a_`", 
"_`_`_j_j_j_j_j_j_j_j_j_j_j_j_j_j_j_j_j_j_j_j_j_j_j_`_j_`_j_`_j_`_j_`_j_`_j_`_j_`_a_`", 
"_`_j_j_j_j_j_j_j_j_j_j_j_j_j_j_j_j_j_j_j_j_j_j_j_j_j_j_j_j_j_`_j_j_j_j_j_`_j_`_`_a_`", 
"_`_j_j_j_j_j_j_j_j_j_j_j_j_`_j_`_j_`_j_j_j_`_j_`_j_`_j_`_j_`_j_`_j_`_j_`_j_`_j_`_a_`", 
"_`_j_j_j_j_j_j_j_j_j_j_j_`_j_`_j_`_j_`_j_`_j_`_j_`_j_`_j_`_j_`_j_`_j_`_j_`_j_`_`_a_`", 
"_`_j_j_j_j_j_j_j_j_j_j_`_j_`_j_`_j_`_j_j_j_`_j_`_j_`_j_`_j_`_j_`_j_`_j_`_j_`_j_`_a_`", 
"_`_`_j_j_j_j_j_j_j_j_`_j_`_j_`_j_`_j_`_j_`_j_`_j_`_j_`_j_`_j_`_j_`_j_`_j_j_j_`_`_a_`", 
"_`_`_`_`_j_j_j_j_j_`_j_`_j_`_j_`_j_`_j_j_j_`_j_`_j_`_j_`_j_`_j_`_j_`_j_j_`_`_`_`_a_`", 
"_`_`_`_`_`_`_j_j_`_j_`_j_`_j_`_j_`_j_`_j_`_j_`_j_`_j_`_j_`_j_`_j_j_j_`_`_`_`_`_`_a_`", 
"_`_`_`_`_`_`_`_`_j_j_j_`_j_`_j_`_j_`_j_j_j_`_j_`_j_`_j_`_j_`_j_j_`_`_`_`_`_`_`_`_a_`", 
"_`_`_`_`_`_`_`_`_`_`_j_j_`_j_`_j_`_j_`_j_`_j_`_j_`_j_`_j_j_j_`_`_`_`_`_`_`_`_`_`_a_`", 
"_`_`_`_`_`_`_`_`_`_`_`_`_j_j_j_`_j_`_j_j_j_`_j_`_j_`_j_j_`_`_`_`_`_`_`_`_`_`_`_`_a_`", 
"_`_`_`_`_`_`_`_`_`_`_`_`_`_`_j_j_`_j_`_j_`_j_`_j_j_j_`_`_`_`_`_`_`_`_`_`_`_`_`_`_a_`", 
"_`_`_`_`_`_`_`_`_`_`_`_`_`_`_`_`_j_j_j_j_j_`_j_j_`_`_`_`_`_`_`_`_`_`_`_`_`_`_`_`_a_`", 
"_`_`_`_`_`_`_`_`_`_`_`_`_`_`_`_`_`_`_j_j_j_j_`_`_`_`_`_`_`_`_`_`_`_`_`_`_`_`_`_`_a_`", 
"_`_`_`_`_`_`_`_`_`_`_`_`_`_`_`_`_`_`_`_`_`_`_`_`_`_`_`_`_`_`_`_`_`_`_`_`_`_`_`_`_a_a", 
"_a_a_a_a_a_a_a_a_a_a_a_a_a_a_a_a_a_a_a_a_a_a_a_a_a_a_a_a_a_a_a_a_a_a_a_a_a_a_a_a_a_a", 
"_a_`_`_`_`_`_`_`_`_`_`_`_`_`_`_`_`_`_`_a_a_`_`_`_`_`_`_`_`_`_`_`_`_`_`_`_`_`_`_a_a_`", 
} ;
