/* XPM */
static char* lemacs = {
"27 37 9 2",
"__ c #908090",
"_` c #adadad",
"_a c #666666",
"_b c #e3e3e3",
"_c c #030303",
"_d c #4848aa",
"_e c #969696",
"_f c #4a4a4a",
"_g c #7f7f7f",
"_`_`_`_`_`_`_`_`_`_`_`_`_`_`_`_`_`_`_`_`_`_`_`_`_`_`_a", 
"_`_`_b_b_`_`_b_b_`_b_`_`_`_`_`_`_`_`_`_`_`_`_`_`_`_`_a", 
"_`_`_`_`_`_`_`_`_`_`_`_`_`_`_`_`_`_`_`_`_`_`_`_`_`_`_a", 
"_`_`_`_`_`_`_`_`_`_`_`_`_`_`_`_`_`_`_`_`_`_`_`_`_`_`_a", 
"_c_c_c_c_c_c_c_c_c_c_c_c_c_c_c_c_c_c_c_c_c_c_c_c_c_c_a", 
"_c_d_d_d_d_d_d_d_d_d_d_d_d_d_d_d_d_d_d_d_d_d_d_d_d_d_a", 
"_c_d_b_b_b_d_b_d_b_d_b_b_d_d_d_d_d_d_d_d_d_d_d_d_d_d_a", 
"_c_d_d_d_d_d_d_d_d_d_d_d_d_d_d_d_d_d_d_d_d_d_d_d_d_d_a", 
"_c_d_d_d_d_d_d_d_d_d_d_d_d_d_d_d_d_d_d_d_d_d_d_d_d_d_a", 
"_c_d_d_d_d_d_d_d_d_d_d_d_d_d_d_d_d_d_d_d_d_d_d_d_d_d_a", 
"_c_d_d_d_d_d_d_d_d_d_d_d_d_d_d_d_d_d_d_d_d_d_d_d_d_d_a", 
"_c_b_b_b_b_b_b_b_b_b_b_b_b_b_b_b_b_b_b_b_b_b_b_b_b_e_a", 
"_c_b_f_g_f_b_f_b_g_f_b_f_g_f_g_f_b_b_b_b_b_b_b_b_b_e_a", 
"_c_b_b_b_b_b_b_b_b_b_b_b_b_b_b_b_b_b_b_b_b_b_b_b_b_e_a", 
"_c_b_b_b_b_b_b_b_b_b_b_b_b_b_b_b_b_b_b_b_b_b_b_b_b_e_a", 
"_c_b_f_g_f_g_b_f_f_b_g_f_b_b_f_b_b_b_b_b_b_b_b_b_b_e_a", 
"_c_b_b_b_b_b_b_b_b_b_b_b_b_b_b_b_b_b_b_b_b_b_b_b_b_e_a", 
"_c_b_b_b_b_b_b_b_b_b_b_b_b_b_b_b_b_b_b_b_b_b_b_b_b_e_a", 
"_c_b_g_f_g_b_f_g_f_b_f_b_g_f_g_b_f_b_f_g_f_b_b_b_b_e_a", 
"_c_b_b_b_b_b_b_b_b_b_b_b_b_b_b_b_b_b_b_b_b_b_b_b_b_e_a", 
"_c_b_b_b_b_b_b_b_b_b_b_b_b_b_b_b_b_b_b_b_b_b_b_b_b_e_a", 
"_c_b_f_g_f_b_f_b_g_f_b_f_g_f_g_f_b_b_b_b_b_b_b_b_b_e_a", 
"_c_b_b_b_b_b_b_b_b_b_b_b_b_b_b_b_b_b_b_b_b_b_b_b_b_e_a", 
"_c_b_b_b_b_b_b_b_b_b_b_b_b_b_b_b_b_b_b_b_b_b_b_b_b_e_a", 
"_c_b_f_g_f_g_b_g_b_b_g_f_g_f_b_b_f_g_b_f_b_b_b_b_b_e_a", 
"_c_b_b_b_b_b_b_b_b_b_b_b_b_b_b_b_b_b_b_b_b_b_b_b_b_e_a", 
"_c_b_b_b_b_b_b_b_b_b_b_b_b_b_b_b_b_b_b_b_b_b_b_b_b_e_a", 
"_c_b_f_f_b_g_f_b_f_b_f_g_f_g_f_b_f_b_b_b_b_b_b_b_b_e_a", 
"_c_b_b_b_b_b_b_b_b_b_b_b_b_b_b_b_b_b_b_b_b_b_b_b_b_e_a", 
"_c_b_b_b_b_b_b_b_b_b_b_b_b_b_b_b_b_b_b_b_b_b_b_b_b_e_a", 
"_c_b_f_g_f_b_g_f_b_f_b_g_b_b_f_g_f_f_b_f_b_b_b_b_b_e_a", 
"_c_b_b_b_b_b_b_b_b_b_b_b_b_b_b_b_b_b_b_b_b_b_b_b_b_e_a", 
"_c_b_b_b_b_b_b_b_b_b_b_b_b_b_b_b_b_b_b_b_b_b_b_b_b_e_a", 
"_c_b_g_f_f_g_b_f_f_b_g_f_b_b_f_b_b_b_b_b_b_b_b_b_b_e_a", 
"_c_b_b_b_b_b_b_b_b_b_b_b_b_b_b_b_b_b_b_b_b_b_b_b_b_e_a", 
"_c_e_e_e_e_e_e_e_e_e_e_e_e_e_e_e_e_e_e_e_e_e_e_e_e_e_a", 
"_a_a_a_a_a_a_a_a_a_a_a_a_a_a_a_a_a_a_a_a_a_a_a_a_a_a_a", 
} ;
