/* XPM */
static char * magnify_xpm[] = {
/* width height ncolors chars_per_pixel */
"32 32 10 1",
/* colors */
" 	s None	c None",
".	c black",
"X	c grey",
"o	c firebrick",
"O	c blue",
"+	c white",
"@	c yellow",
"#	c navy blue",
"$	c cyan",
"%	c slate grey",
/* pixels */
"                                ",
"                                ",
"       .XXXX                    ",
"   oooo...XXX                   ",
"    ..ooo..XXX                  ",
"  .....ooo.......ooooXXX        ",
" ...ooooo......ooo....XX        ",
" ...ooooooooooo....XXXXX        ",
" ...oooooo...ooo....XXXXXX      ",
"  ..oo........ooo......XXXX     ",
" ..o..XXXXX..............XXX    ",
" .o..X.....X.....OO+++@...XXX   ",
" ...X.+++++.X..OOOOOO+@@X..XX   ",
" ....+++++++..OOO.OOO+@@@X..XX  ",
" ...+++##+++.+O....O$+@$@+X.XX  ",
"  ..++O$#O+..+O.+..$O+@$@+X..XX ",
"  ..++O..O+.++O...%$O+$@@+XX.XX ",
"  ..+++##O+.++OO..$O++$@@+XX.XX ",
" ...+++++++.++OOOO$O+$@@++XX.XX ",
".@@%.++++++.+++OO$O++$@@+XXX.XX ",
"@@@@%%+++++.+++++$@+$@@@+XXX.XX ",
"@@.@@%%%..%..+++$@@@@@@@+XX..XX ",
".@.@@@%%%%%%.X@@$@@$@@@XXXX.XX  ",
".@.@@.@@@@@@..X@@@@@@@@XXX.XXX  ",
" ..@@.@@@@@@@..@@@@@@@@XX.X%%X  ",
"  .@..@@@@@@@@...XX@@@@..X%%XX  ",
"  .@..@@@@@@@@..........X%%.oXXX",
" X..@@.@@@@@@...@......X%%..o...",
" X.@@@@......@@.@@.XXX.%%.oo..@@",
"...@@@@@@@@@@@@.@@.XX ......@@@@",
"........@@@@....@.XX  .. X.@@@.@",
".oooooo..@@..oo....X      .....@"};
