/* XPM */
static char * mail_xpm[] = {
/* width height ncolors chars_per_pixel */
"32 32 8 1",
/* colors */
" 	s None	c None",
".	c black",
"X	c #AAAAAA",
"o	c #DDDDDD",
"O	c #888888",
"+	c #777777",
"@	c #6699CC",
"#	c #EF0000",
/* pixels */
"                                ",
"                                ",
"     .........................  ",
"     .XXXXXXXXXXXXXXXXXXXXXXX.  ",
"   ...................XXXXXXX.  ",
"   .ooooooooooooooooo..XXXXXX.  ",
"   .ooooooooooooooooo.X.XXXXX.  ",
"   .ooooooooooooooooo.XX.XXXX.  ",
"   .ooooooooooooooooo.XXX.XXX.  ",
"   .ooooooooooooooooo.XXXX.XX.  ",
"   .ooooooooooooooooo.......X.  ",
"   .ooooooooooooooooooOOOOO.X.  ",
"   .XXXXXXXXXXXXXXXXXX+++++.X.  ",
"   .+++++++++++++++++++++++.X.  ",
"............................X.  ",
".oooooooooooooooooooooooooo.X.  ",
".oo@o@@@@oooooooooooooo###o.X.  ",
".oooooooooooooooooooooo###o.X.  ",
".oo@@@o@@oooooooooooooo###o.X.  ",
".oooooooooooooooooooooo###o.X.  ",
".oooooooooooooooooooooooooo.X.  ",
".oooooooooooooooooooooooooo.X.  ",
".oooooooooooooooooooooooooo.X.  ",
".oooooo@@@oo@@o@@@@@@oooooo.X.  ",
".oooooooooooooooooooooooooo.X.  ",
".oooooo@@@@@o@@@o@@@@oooooo.X.  ",
".oooooooooooooooooooooooooo.X.  ",
".oooooo@@@o@@@o@@@@@@oooooo.X.  ",
".oooooooooooooooooooooooooo.X.  ",
".oooooooooooooooooooooooooo.X.  ",
".oooooooooooooooooooooooooo.X.  ",
"..............................  "};
