/* XPM */
static char * n2_xpm[] = {
/* width height num_colors chars_per_pixel */
"32 30 5 1",
/* colors */
" 	s None	c None",
".	c grey",
"X	c white",
"o	c blue",
"O	c black",
/* pixels */
"                                ",
"                                ",
"                                ",
"   ......            ........   ",
"   .XXXXX.           XXXXXXXX   ",
"    .XXXXX.           .XXXX     ",
"     .XXXXX.           .XX      ",
"      .XXXXX.          .XX      ",
"      .XXXXXX.         .XX      ",
"      .XXXXXXX.        .XX      ",
"      .XX XXXXX.       .XX      ",
"      .XX  XXXXX.      .XX      ",
"      .XX   XXXXX.     .XX      ",
"      .XX    XXXXX.    .XX      ",
"      .XX     XXXXX.   .XX      ",
"      .XX      XXXXX.  .XX      ",
"      .XX       XXXXX. .XX      ",
"      .XX        XXXXX..XX      ",
"      .XX         XXXXX.XX      ",
"      .XX          XXXXXXX      ",
"      .XX           XXXXXX      ",
"      .XXooooooooooooooXXX      ",
"     ooXXOOOOOOOOOOOOOOoooo     ",
" ooooOOXXOOOOOOOOOOOOOOOOOOooo  ",
"oOOOOOOXXOOOOOOOOOOOOOOOOOOOOOoo",
"OOOOOOXXXXOOOOOOOOOOOOOOOOOOOOOO",
"OOOOXXXXXXXXOOOOOOOOOOOOOOOOOOOO",
"OOOOOOOOOOOOOOOOOOOOOOOOOOOOOOOO",
"OOOOOOOOOOOOOOOOOOOOOOOOOOOOOOOO",
"OOOOOOOOOOOOOOOOOOOOOOOOOOOOOOOO"};
