/* XPM */
static char * image_name[] = {
"56 46 22 1",
" 	c #FFFFFFFFFFFF",
".	c #BEFBBAEABEFB",
"X	c #000000001040",
"o	c #BEFBB6DABEFB",
"O	c #AEBAA699AEBA",
"+	c #965896589658",
"@	c #C71BBAEAC71B",
"#	c #208124929658",
"$	c #A699A699A699",
"%	c #208128A25144",
"&	c #79E786179E79",
"*	c #B6DAAEBAB6DA",
"=	c #8E388A288E38",
"-	c #BEFBC30BCF3C",
";	c #FFFFFBEEFFFF",
":	c #51445555FFFF",
">	c #71C679E78617",
",	c #FFFFF3CEFFFF",
"<	c #AEBAAEBAAEBA",
"1	c #A699A289A699",
"2	c #AEBAAAAAAEBA",
"3	c #000008200820",
"                                                       .",
" ......................................................X",
" ......................................................X",
" ...o.O.o.O.o.O.o.O.o.O.o.O.o.O.o.O.o.O.o.O.o.O.o.O.o..X",
" +...O.o@O...O.o@O...O.o@O...O.o@O...O.o@O...O.o@O...+.X",
" .o.@o....o.@o....o.@o....o.@o....o.@o....o.@o......o..X",
" O.O.O.O.O.O.O.O.O.O.O.O.O.O.O.O.O.O.O.O.O.O.O.O.OoO@O.X",
" .....O.......Oo......Oo......Oo......Oo......O.o.....OX",
" O.+oO.Oo+.OoO.O.+oO.O.O.+oO.O.O.+oO.O.O.+oO.O.O.O.O.O.X",
" ...O...O.o.O...O...Oo..O...Oo..O...Oo..O...O.o.+.o.Oo.X",
" O.O.OoO.O.O.O#O#O#O#O#O#O#O#O#O#O#O#O#O#O#OoO.O.O.O.O.X",
" .O.o.O.O.O...O.OoO.o.O.OoO.o.O.OoO.o.O.OoO...O.O.O...OX",
" O.O@O.O.O.O.##O##.##$##.##$##.##$##o##$##oO.O.O.O.OoO.X",
" .O.O.O.O.O.+o$#$o#.$#$o#.$#$o#.$#$.#.$#$.#.O.O.O.O.O.OX",
" +.O.OoO.O.O.##$##.%#O##.%#O##.%#O##.%#O##.$.O.O.O.O.O.X",
" OO.OOO.OOOoO#$#$#O@...#O#O#$#O#&...@&O#$#O.OOO.OOO.OOOX",
" O.OoO.+.O.O.##$###$#   ###O###O##  ###O#%#O@+.O.O.O.O.X",
" OOOOOOOOOOOO$##*%##O&   #%#$#%#$#o&O%##O##OOOOOOOOOOOOX",
" O.O.O.O.O.O.#%###.##&    @###@##%@&##.###oO.O.O.O.O.O.X",
" OOOOOOOOOOOO##O####%&o&  &#%#####o&####%##OOOOOOOOOOOOX",
" OOO.OOO.OOO.###%####&o#&  &##%###o+#%#####$@OOO.OOO.OOX",
" OOOOOOOOOOO*%####%##=-%#.  &###%#o&#####%#OOOOOOOOOOOOX",
" OOOOOOOOOOOO########&o###o  &####.&#######OOOOOOOOOOOOX",
" OOOOOOOOOOOO##%####%&.##%#  ;####o&#%##%##OOOOOOOOOOOOX",
" +OOO+OOO+OOO#####%##&o#####   %##o&#######$O+OOO+OOO+OX",
" OOOOOOOOOOOO%#######=-%###%#  ;##o&#%###%#OOOOOOOOOOOOX",
" +O+O+O+OOO+O#:#%:##:&o:##:##:   %-=##:##:#+O+O+OOO+O+OX",
" OOOOOOOOOOOO:##:##:#&o##:##:#&  .o&#:##:##OOOOOOOOOOOOX",
" +O+O+O+O+O+O##:#%:>&o o        ...o&>&:%#:=O+O+O+O+O+OX",
" OOOOOOOOOOOO:>>o,oo&..o<1O1O121.o&+.ooo@>&OOOOOOOOOOOOX",
" +O+O+O+O+O+Oo@&O+.+o& +O+<+O+O+O+.+.OO+O&o+O+O+O+O+O+OX",
" O+OOO+OOO+OO.+OOO+&    oO+OOO+OOO+O1O+OOO+OOO+OOO+OOO+X",
" +O+O+O+O+O+O+O+O+O+1+2+.+O+O+O+2+O+O+O+O+O+O+O+O+O+O+OX",
" 2+O+O+O+O+O+O+O+O+O+2+1+O+O+2+O+O+O+O+O+O+O+O+O+O+O+O+X",
" +O+O+O+O+O+O+O+O+O+O+O+O+O+O+O+O+2+O+O+O+O+O+O+O+O+O+OX",
" ++O+++O+++O+++O+++O+++O+++1+++O+++O+++O+++O+++O+++O+++X",
" +O+O+O+O+O+O+O+O+O+O+2+O+O+O+O+O+1+O+O+O+O+O+O+O+O+O+OX",
" ++++++++++++++++++++++++++++++++++++++++++++++++++++++X",
" +2+O+O+O+O+O+O+1+2+O+O+2+O+O+2+2+O+O+O+O+O+O+O+O+O+O+OX",
" ++++++++++++++++++++++++++++++++++++++++++++++++++++++X",
" +++O+++O+++O+++O+++1+++1+++O+++O+++O+++O+++O+++1+++O++X",
" ++++++++++++++++++++++++++++++++++++++++++++++++++++++X",
" +2+++++++1+++++++2+++++++2+++++++O+++++++1+++++++2++++X",
" ++++++++++++++++++++++++++++++++++++++++++++++++++++++X",
" ++++++++++++++++++++++++++++++++++++++++++++++++++++++X",
".XXXXXXXXXXXXXXXXXXXXXX3XXXXXXXXXXXX3XXX3XX3XXXXXXXXXXXX"};
