/* XPM */
static char * network_xpm[] = {
/* width height ncolors chars_per_pixel */
"32 30 6 1",
/* colors */
" 	s None	c None",
".	c black",
"X	c slate grey",
"o	c red",
"O	c green",
"+	c white",
/* pixels */
"                                ",
"                                ",
"                                ",
"                  ............  ",
"                  .XXXXXXXXXX.  ",
"                 o.XOOOOXOOOX.  ",
"                o .XXXXXXXXXX.  ",
"               o  .XOOOOOXXXX.  ",
"          o   o   .XXXXXXXXXX.  ",
"         oo  o    ............  ",
"        o o o    .............. ",
"       o  oo     .++++++++++++. ",
"      o   o      .+oo+++.....+. ",
"     o           .++++++++++++. ",
"    o            .............. ",
"   o                            ",
" ..............                 ",
" .XXXXXXXXXXXX.                 ",
" .XOOOXXXOOOXX.                 ",
" .XXXXXXXXXXXX.                 ",
" .XOOOOXXOOOXX.                 ",
" .XXXXXXXXXXXX.                 ",
" .XOOOOXXOOOXX.                 ",
" .XXXXXXXXXXXX.                 ",
" ..............                 ",
"................                ",
".++++++++++++++.                ",
".+oo+++++....++.                ",
".++++++++++++++.                ",
"................                "};
