/* XPM */
static char *new_big_.xpm_xpm[] = {
/* width height ncolors chars_per_pixel */
"64 64 4 1",
/* colors */
"` c black",
"a c red",
"b c tomato",
"c c white",
/* pixels */
"cccccccccccccccccccccccccccccccccccccccccccccccccccccccccccccccc",
"ccccccccccccccccccccccccccccccccccccccccccccccccc``ccccccccccccc",
"cccccccccccccccccccccccccccccccccccccccccccccccc```ccccccccccccc",
"ccccccccccccccccccccccccccccccccccccccccccccccc````ccccccccccccc",
"cccccccccccccccccccccccccccccccccccccccccccccc``a``ccccccccccccc",
"ccccccccccccccccccccccccccccccccccccccccccccc``aa``ccccccccccccc",
"cccccccccccccccccccccccccccccccccccccccccccc``aaa``ccccccccccccc",
"ccccccccccccccccccccccccccccccccccccccccccc``aaaa``ccccccccccccc",
"cccccccccccccccccccccccccccccccccccccccccc``aaaaa``ccccccccccccc",
"ccccccccccccccccccccccccccccccc``cccccccc``aaaaaa``ccccccccccccc",
"cccccccccccccccccccccccccccccc````cccccc``aaaaaaa``ccccccccccccc",
"cccccccccccccccccccccccccccccc``a``cccc``aaaaaaaa``ccccccccccccc",
"cccccccccccccccccccccccccccccc`aaa``cc``aaaaaaaaa``ccc````````cc",
"ccccccccccccccccccccccccccccc``aaaa````aaaaaaaaaa`````````````cc",
"cccccccccccccccccccccccccccc``aaaaaa``aaaaaaaaaaa`````aaaaa```cc",
"cccccccccccccccccccccccccccc``aaaaaaa`aaaaaaaaaaaaaaaaaaaa````cc",
"ccccccccccccccccccccccccccc``aaaaaaaaaaaaaaaaaaaaaaaaaaaa`````cc",
"cccccccccccccc```cccccccccc`aaaaaaaaaaaaaaaa`aaaaaaaaaaa``````cc",
"cccccccccccccc```````ccccc``aaaaaaaaaaaaaaa``aaaaaaaaaa``````ccc",
"cccccccccccccc`aaa```````c``aaaaaaaaaaaaaa````aaaaaaaa``````cccc",
"cccccccccccccc`aaaaaaa`````aaaaaaaaaaaaaaaa```aaaaaa```````ccccc",
"cccccccccccccc`aaaaaaaaaaa`aaaaaaaaaaaaaaaa```aaaaaa``````cccccc",
"cccccccccccccc`aaaaaaaaaaaaaaaaaaaaaaaaa`aaa```aaaaaaa```ccccccc",
"cccccccccccccc`aaaaaaaaaaaaaaaaaaaaaaaa```aa```aaaaaaaa``ccccccc",
"cccccccccccccc`aaaaaaaaaaaaaaaaaaa``aa`````a```aaaaaaaaa``cccccc",
"cccccccccccccc`aaaaaaaaaaaaaaaaaa````aa`````````aaaaaaaaa``ccccc",
"cccccccccccccc`aaaaaaaaaaaaaaaaaa````aa`````````aaaaaaaaa``ccccc",
"cccccccccccccc`aaaaaaaaaaaaaa```aa````aa`````````aaaaaaa```ccccc",
"cccccccccccccc`aaaaaaaaaaaa`````aaa````a``aa````aaaaaaa````ccccc",
"cccccccccccccc`aaaaaaaaaaa````aaaaa```````aaaa`aaaaaaa`````ccccc",
"c``````````````aaaaaaaaa`````aaa``aa``````aaaaaaaaaaa``````ccccc",
"c``````````````aaaaaaaa````aaa`````aa`````aaaaaaaaaaaa````cccccc",
"c```aaaaaaaaaaaaaaaa``aa````a````aaaaa````aaaaaaaaaaaaa``ccccccc",
"c````aaaaaaaaaaaaaa````aa``````aaaa``aa``aaaaaaaaaaaaaaa`ccccccc",
"c`````aaaaaaaaaaaaa````aa`````aaaa````aaaaaaaaaaaaaaaaaaa`cccccc",
"c``````aaaaaaaaaaaaa````aa````aaa````aaaaaaaaaaaaaaaaaaaaa`ccccc",
"cc``````aaaaaa```aaaa````aa```a`````aaaaaaaaaa``````````````cccc",
"ccc``````aaaa````````````aa```````aaaaaaaaaaaa``````````````cccc",
"cccc``````aaa`````````````aa`````aaaaaaaaaaaaa``````````````cccc",
"ccccc````aaaaa`````````````a```aaaaaaaaaaaaaaa``````````````cccc",
"cccccc``aaaaaaa````b```````aa`aaaaaaaaaaaaaaaa``cccccccccccccccc",
"cccccc`aaaaaaaaa````aaa`````aaaaaaaaaaaaaaaaaa``cccccccccccccccc",
"ccccc`aaaaaaaaaa````aaaaa``aaaaaaaaaaaaaaaaaaa``cccccccccccccccc",
"cccc``````aaaaaaa````aaaaaaaaaaaa```aaaaaaaaaa``cccccccccccccccc",
"cccc``````aaaaaaaa````aaaaaaaaaaa````````aaaaa``cccccccccccccccc",
"cccc``````aaaaaaaa````aaaaaaaaaaa```````````````cccccccccccccccc",
"cccc``````aaaaaaaaa``aaaaaaaaaaa````````````````cccccccccccccccc",
"ccccccccc`aaaaaaaaaaaaaaaaaaaaaa````````````````cccccccccccccccc",
"ccccccccc`aaaaaaaaaaaaaaaaaaaaaa````````````````cccccccccccccccc",
"ccccccccc`aaaaaaaaaaaaaaaaaaaaaa````ccccc```````cccccccccccccccc",
"ccccccccc`aaaaaaaaa``aaaaaaaaaa````ccccccccc````cccccccccccccccc",
"ccccccccc`aaaaaaa`````aaaaaaaaa````ccccccccccccccccccccccccccccc",
"ccccccccc`aaaaaa```````aaaaaaaa```cccccccccccccccccccccccccccccc",
"ccccccccc`aaaa`````````aaaaaaa````cccccccccccccccccccccccccccccc",
"ccccccccc`aa````````c```aaaaaa````cccccccccccccccccccccccccccccc",
"ccccccccc`````````cccc```aaaaa```ccccccccccccccccccccccccccccccc",
"ccccccccc````````ccccccc`aaaa````ccccccccccccccccccccccccccccccc",
"ccccccccc``````ccccccccc``aaa````ccccccccccccccccccccccccccccccc",
"ccccccccc````cccccccccccc``aa````ccccccccccccccccccccccccccccccc",
"ccccccccc``ccccccccccccccc``a```cccccccccccccccccccccccccccccccc",
"cccccccccccccccccccccccccc``a```cccccccccccccccccccccccccccccccc",
"ccccccccccccccccccccccccccc`````cccccccccccccccccccccccccccccccc",
"cccccccccccccccccccccccccccc````cccccccccccccccccccccccccccccccc",
"ccccccccccccccccccccccccccccc```cccccccccccccccccccccccccccccccc"
};
