/* XPM */
static char * news2_xpm[] = {
/* width height ncolors chars_per_pixel */
"32 30 7 1",
/* colors */
" 	s None	c None",
".	c black",
"X	c burlywood1",
"o	c blue",
"O	c red",
"+	c slate grey",
"@	c grey",
/* pixels */
" .............................. ",
" .XXXXXXXXXXXXXXXXXXXXXXXXXXXX. ",
" .XooooXXXXXXXXX..XXXXXXXooooX..",
" .XXXXXX.X.X.X.X.XXX.X..XXXXXX..",
" .XOOOOXX..XX.XX..X..X..XOOOOX..",
" .XOOOOXXXXXXXXXXXXXXXX.XOOOOX..",
" .XXXXXXXXXXXXXXXXXXXXXXXXXXXX..",
" ...............................",
" .XXXXXXXXXXXXXXXXXXXXXXXXXXXX..",
" .XX...X.XX.X....X...+X+..+X.X..",
" .XX.+XXX..XXX.XXX.XX.X.XX.X.X..",
" .XX.XXXX..XXX.XXX.X.XX....XXX..",
" .XX...X.XX.XX.XXX.XX.X.XX.X.X..",
" .XXXXXXXXXXXXXXXXXXXXXXXXXXXX..",
" ...............................",
" .XXXXXXXXXXXXXXXXXXXXXXXXXXXX..",
" .X.X.X.XX............X.X..X.X..",
" .X..X...X.@.@@@@@@@@.XX.X..XX..",
" .XXXXXXXX............XXXXXXXX..",
" .X.+....X.++++++++++.X.+..+.X..",
" .XXXXXXXX.++++++++++.XXXXXXXX..",
" .X+...+.X.++++++++++.X+....+X..",
" .XXXXXXXX.++++++++++.XXXXXXXX..",
" .X.++...X.++++++++++.X.+.+..X..",
" .XXXXXXXX............XXXXXXXX..",
" .X...+..XXXXXXXXXXXXXX..+...X..",
" .XXXXXXXXXX.+...+..XXXXXXXXXX..",
" .XXXXXXXXXXXXXXXXXXXXXXXXXXXX..",
"  ..............................",
"   ............................."};
