/* XPM */
static char * next_xpm[] = {
"24 24 16 1 XPMEXT",
" 	s background	c None",
".	c black",
"X	c white",
"o	c #717179798686",
"O	c #000000001111",
"+	c red",
"@	c #38386D6DA6A6",
"#	c #030303030404",
"$	c #B6B6AEAEB6B6",
"%	c #8E8E8A8A8E8E",
"&	c #A6A679798E8E",
"*	c #797986869E9E",
"=	c #BEBEB6B6BEBE",
"-	c #AEAEAEAEB6B6",
";	c #5151A2A24949",
":	c #9E9E9A9A9E9E",
"                        ",
"      ..................",
"      .X.X.X.X.X.X. .oO.",
"   +  .XXXXXXXXXXXX@XoO.",
"  +   .XX@@XX@@@@X@@XoO.",
" +    .XXXXXXXXXXXXXXo..",
"++++++++XX@@@@@XXXXXXo..",
" +    .+++XXXXXXXXXXXo..",
"  +   .XX++XXXXXXXXXXo..",
"   +  .XXX++XX@X@@@@XO@.",
"      .XXXX++XXXXXXXX#@.",
"      .XXXXX++XXXXXXXO@.",
"      .XXXXXX+XXXXXX$#@.",
"     .XXX@@@@XXXXXX$%O@.",
"     .XXXXXXXXX&$$$$@#@.",
"     .X@@@@@@@X*$$$%#O@.",
"    .XXXXXXXXXX@$=%@##&.",
"    .XXX@X@@XX$@-&@##@*.",
"   .XXXXXXXXX$O%o@O##%&.",
"  .XXXXXXXX$%O@@O###*&;.",
" .....##O#########@%%%%.",
"      .@@@@@@@@@@o%*&%:.",
"      ..................",
"                        ",
"XPMEXT Comment",
"$Id: next.xpm,v 1.2 1996/12/16 19:22:49 ggt Exp $",
"XPMENDEXT"};
