/* XPM */
static char *notepad[] = {
/* width height num_colors chars_per_pixel */
"    32    32        8            1",
/* colors */
". c none s none",
"# c #000000",
"a c #ffffff",
"b c #00ffff",
"c c #c6c6c6",
"d c #007b7b",
"e c #848484",
"f c #008484",
/* pixels */
".........##.##.##.##.##.##......",
"........#a##a##a##a##a##a###....",
".......#b#bc#cb#bc#cb#bc#cd##...",
".......#cbcbcbcbcbcbcbcbcd#ce#..",
"......#cbcbcbcbcbcbcbcbcbd#ce#..",
"......#bcbcbcbcbcbcbcbcbd#cce#..",
".....#bcbc##########bcbcd#cce#..",
".....#cbcbcbcbcbcbcbcbcd#ccce#..",
"....#cbcb##########cbcbd#ccce#..",
"....#bcbcbcbcbcbcbcbcbd#eeece#..",
"...#bcbcbcbcbcbcbcbcbcd#ccace#..",
"...#cbcbcbcbcbcbcbcbcd#cccace#..",
"..#cbcbcbcbcbcbcbcbcbd#eeeece#..",
"..#bcbcbcbcbcbcbcbcbd#cccaace#..",
".#bcbcbcbcbcbcbcbcbcd#cccaace#..",
".#cbcbcbcbcbcbcbcbcd#eeeeeece#..",
"#cbcbcbcbcbcbcbcbcbd#cccaaace#..",
"#bcbcbcbcbcbcbcbcbd#ccccaaace#..",
"#dddddddddddddddddf#eeeeeeece#..",
".##################ccccaaaace#..",
"......#ccccccccccccccccaaaace#..",
"......#eeeeeeeeeeeeeeeeeeeece#..",
"......#cccccccccccccccaaaaace#..",
"......#cccccccccccccccaaaaace#..",
"......#eeeeeeeeeeeeeeeeeeeece#..",
"......#cccccccccccccaaaaaaace#..",
"......#ecaaaaaaaaaaaaaaaaacce#..",
"......#eeccccccccccccccccccee#..",
".......#eeeeeeeeeeeeeeeeeeee#...",
"........####################....",
"................................",
"................................"
};
