/* XPM */
static char *nscape[] = {
/* width height num_colors chars_per_pixel */
"    46    44       5            1",
/* colors */
". c white",
"# c black",
"a c #00ffff",
"f c #185d65",
"g c #2c7d8a",
/* pixels */
"##############################################",
"#############f##f#f###f#f#f####f#f############",
"###f####f#f###ff##f#f#f#####f#ff#f##f#f####f##",
"#####f#f###f#f#f#f##f##f##f#ff##f#f#####f#f##f",
"#f#f#####f#f##f#fff#fff#ff#f##f#f##f##f#####f#",
"ff##fff#ff#f##f#f#f#ff#f##f#ff#f#ff#ff#f##f#ff",
"ff#f##f#ff#fffffff#fff#ff#f#f#f#ff#f#f#f##f#ff",
"##f#ffff#f#f##f#ffff#fffffff##f#ff#f##ffff#fff",
"fffff#ff#ff#ffffffffffff#f#fff#ff#fffff#fff#f#",
"f#f#ff#ff#.....ff#ffff#fffffff.......fff##ff#f",
"fff#ffffffff....ffffffffffffffff...ffff#ffffff",
"f#fffffffffff....ffffffffffffffff.ffffffff#fff",
"fffffffffffff.....fffffffffffffff.ffffffffffff",
"fffffffffffff......ffffffffffffff.ffffffffffff",
"fffffffffffff.ff....fffffffffffff.ffffffffffff",
"fffffffffffff.fff....ffffffffffff.ffffffffffff",
"fffffffffffff.ffff....fffffffffff.ffffffffffff",
"fffffffffffff.fffff....ffffffffff.ffffffffffff",
"ffffffffgfaff.faffff....gffgfgfff.ffafafffffff",
"ffffffaffgfff.ffgfaff....affafaff.gffgffgfffff",
"fgfafffafafff.fgffgfaf....fgfgffg.fafafgfffaff",
"gfafaffaffgff.gafafaffa....afffag.gffffafaffff",
"fgffafaffafaf.gaffafafaf....gfafg.ffgfgfagafaf",
"gffafffaffgff.gfagfgffgff....gfga.gaffafffffff",
"ffafgfgfaafaf.gfgfafagagfa....aff.gfggfgaafaff",
"afgaffgafgfaf.fafggfaagagaf....ag.agaaggagfaff",
"gfafgafgafagf.agaafagafgagff....a.gfagafggafgf",
"fgfagfagfgaff.faggagaagagagaf.....aggfagaafagg",
"gagafagagfgaf.f.............ff....gaaagfaggaff",
"aagag.f...###.######################....f.agag",
"gf.f..######...###########################...f",
".f.########.....############################..",
".########.........############################",
"##############################################",
"##############################################",
"##############################################",
"##############################################",
"##############################################",
"##############################################",
"##############################################",
"##############################################",
"##############################################",
"##############################################",
"##############################################",
};
