/* XPM */
static char * palette2_xpm[] = {
/* width height ncolors chars_per_pixel */
"32 30 13 1",
/* colors */
" 	s None	c None",
".	c black",
"X	c slate grey",
"o	c #2f4f4f",
"O	c firebrick",
"+	c yellow",
"@	c magenta",
"#	c white",
"$	c green",
"%	c sea green",
"&	c red",
"*	c grey",
"=	c blue",
/* pixels */
"       .........             X  ",
"     .ooO+++++OXo.           .X ",
"   ..oO+++++++++XX.          X.X",
"  ..O++++@@@@O++++X.         X..",
"  .O+++++@@##@@O+++.         ...",
" ..++++++O@@@#@@O++X.       X.#.",
" .O++++++O@@@@@@O.++.       .#..",
"X.++++++++OOO@OOO.++X.     X....",
".O++++++++..OOOO..+++X.    .... ",
".O+++$$%%+++.....+++++X.  .#.X  ",
".O++$#$$$%+++++++++++++X..#.    ",
".O+%#$$$$%%.+++++++++++.&#..    ",
".O+%$$$$%%%.+++++++....&&O.X.   ",
".O+%%%%%%..+++++++....&&O.++X.  ",
".O+.%%%%..+++++++..#.&&O.++++.  ",
".O++....+++++++++...&&O..++++X. ",
"XX+++++++++++++++..&&O.#.+++++. ",
"X.+++++&&&&O++++++..O.#.++++++..",
" .O+++&&##&O.++++++....+++++++X.",
" .X+++&#&&&&O+++++++++++++++++X.",
" *.O++O&&&&OO.++++++++++++++++X.",
"  .X++OOOOOOO.+++===++++++++++X.",
"  *.O++.OOO..++==##===+++++++O..",
"   .XO++...+++=###===..++++++X.X",
"    .XO+++++++=======..+++++O..X",
"    *.XOO+++++=.===...+++++OX.X ",
"     *.XOOO++++.....+++++OOX..  ",
"      X..XOOOO+++++++++OOX...   ",
"       .....XOOOOOOOOOOX...X    ",
"      ..#X...............XX     "};
