/* XPM */
static char * icl8_11432_xpm[] = {
/* width height ncolors chars_per_pixel */
"32 32 5 1",
/* colors */
" 	s None	c None",
"o	c #808080",
"O	c black",
"$	c red",
"%	c #c0c0c0",
/* pixels */
"                                ",
"                                ",
"                                ",
"                                ",
"                                ",
"                                ",
"                                ",
"                                ",
"           oOoOo                ",
"          O     Oo              ",
"         o        O             ",
"         O        o             ",
"       OOOOO       O            ",
"       OOOOO       o            ",
"      OOOOOOO       O           ",
"    oOOOOOOOOOo     o  $       $",
"   oOOOOOOOOOOOo    O      $  $ ",
"  oOOOOOOOOOOOOOo    o  $       ",
"  OOOOOOOO%ooOOOO    O   $  $   ",
" oOOOOOOOOO%ooOOOo    o   $ $   ",
" OOOOOOOOOOOOOOOOO     OoO $ $ $",
" OOOOOOOOOOO%ooOOO        $$    ",
" OOOOOOOOOOO%ooOOO      $   $   ",
" OOOOOOOOOOO%ooOOO        $  $  ",
" OOOOOOOOOOOOOOOOO     $        ",
" oOOOOOOOOOOOOOOOo    $   $    $",
"  OOOOOOOOOOOOOOO               ",
"  oOOOOOOOOOOOOOo         $     ",
"   oOOOOOOOOOOOo                ",
"    oOOOOOOOOOo                 ",
"      oOOOOOo                   ",
"                                "};
