/* XPM */
static char * image_name [] = {
/**/
"44 34 5 1",
/**/
" 	s None	c None",
"X	c gray85",
"o	c #808080",
"@	c white",
"#	c black",
"                                            ",
"                                            ",
"                                            ",
"       oooooooooooooooooooooooooooooo       ",
"      o@@@@@@@@@@@@@@@@@@@@@@@@@@@@@o#      ",
"     o@@XXXXXXXXXXXXXXXXXXXXXXXXXXXX@o#     ",
"     o@XXXXXXXXXXXXXXXXXXXXXXXXXXXXXXo#     ",
"     o@XXXXXX######################XXo#     ",
"     o@XXXXXX#@@@@@@@@@@@@@@@@@@@@oXXo#     ",
"     o@XXXXXX#@@@@@@@@@@@@@@@@@@o@oXXo#     ",
"     o@XXXXXX#@@@@@@@@@@@@@@@@@@o@oXXo#     ",
"     o@XXXXXX#@@@@@@@@@@@@@@@@@@@@oXXo#     ",
"     o@XXXXXX#oooooooooooooooooooooXXo#     ",
"     o@XXXXXXXXXXXXXXXXXXXXXXXXXXXXXXo#     ",
"     o@XXXXXXXXXXXXXXXXXXXXXXXXXXXXXXo#     ",
"     o@XXoooooXXoooooXXoooooXXoooooXXo#     ",
"     o@XXoXXX#XXoXXX#XXoXXX#XXoXXX#XXo#     ",
"     o@XX#####XX#####XX#####XX#####XXo#     ",
"     o@XXXXXXXXXXXXXXXXXXXXXXXXXXXXXXo#     ",
"     o@XXoooooXXoooooXXoooooXXoooooXXo#     ",
"     o@XXoXXX#XXoXXX#XXoXXX#XXoXXX#XXo#     ",
"     o@XX#####XX#####XX#####XX#####XXo#     ",
"     o@XXXXXXXXXXXXXXXXXXXXXXXXXXXXXXo#     ",
"     o@XXoooooXXoooooXXoooooXXoooooXXo#     ",
"     o@XXoXXX#XXoXXX#XXoXXX#XXoXXX#XXo#     ",
"     o@XX#####XX#####XX#####XX#####XXo#     ",
"     o@XXXXXXXXXXXXXXXXXXXXXXXXXXXXXXo#     ",
"     o@XXXXXXXXXXXXXXXXXXXXXXXXXXXXXXo#     ",
"     o@XXXXXXXXXXXXXXXXXXXXXXXXXXXXXoo#     ",
"      ooooooooooooooooooooooooooooooo#      ",
"       ##############################       ", 
"                                            ",
"                                            ",
"                                            "};
