/* XPM */
static char* xbas = {
"81 51 3 2",
"__ c none s none",
"_` c #ffffff",
"xx c #ffffff",
"__________________________________________________________________________________________________________________________________________________________________", 
"__________________________________________________________________________________________________________________________________________________________________", 
"__________________________________________________________________________________________________________________________________________________________________", 
"__________________________________________________________________________________________________________________________________________________________________", 
"__________________________________________________________________________________________________________________________________________________________________", 
"__________________________________________________________________________________________________________________________________________________________________", 
"__________________________________________________________________________________________________________________________________________________________________", 
"__________________________________________________________________________________________________________________________________________________________________", 
"__________________________________________________________________________________________________________________________________________________________________", 
"__________________________________________________________________________________________________________________________________________________________________", 
"__________________________________________________________________________________________________________________________________________________________________", 
"___________________`_`_`___________`_`_`_`_`_`_`_`_`___________`_`_`______________________________________________________________________________________________", 
"_____________________`_`_`_____________`_`_`_`_`_____________`_`_`________________________________________________________________________________________________", 
"_______________________`_`_`_____________`_`_`_____________`_`_`__________________________________________________________________________________________________", 
"_______________________`_`_`_____________`_`_`_____________`_`_`__________________________________________________________________________________________________", 
"_______________________`_`_`_`___________`_`_`___________`_`_`_`__________________________________________________________________________________________________", 
"_______________________`_`_`_`___________`_`_`___________`_`_`_`__________________________________________________________________________________________________", 
"_______________________`_`_`_`___________`_`_`___________`_`_`_`__________________________________________________________________________________________________", 
"_______________________`_`_`_`___________`_`_`___________`_`_`_`__________________________________________________________________________________________________", 
"_______________________`_`_`_`___________`_`_`___________`_`_`_`__________________________________________________________________________________________________", 
"_________________________`_`_`___________`_`_`___________`_`_`____________________________________________________________________________________________________", 
"_________________________`_`_`_`_________`_`_`_________`_`_`_`________xxxxxxxx__________________________________xxxx______________________________________________", 
"___________________________`_`_`_`_`_____`_`_`_____`_`_`_`_`____________xxxx__________________________________xxxxxx______________________________________________", 
"_______________________________`_`_`_`_`_`_`_`_`_`_`_`_`________________xxxx____________________________________xxxx______________________________________________", 
"_________________________________________`_`_`__________________________xxxx____________________________________xxxx______________________________________________", 
"_________________________________________`_`_`__________________________xxxx____________________xxxxxxxx________xxxx__xxxxxx______________________________________", 
"_________________________________________`_`_`__________________________xxxx__________________xxxx____xx________xxxxxx__xxxxxx____________________________________", 
"_________________________________________`_`_`__________________________xxxx__________________xxxx____xxxx______xxxx______xxxx____________________________________", 
"_________________________________________`_`_`__________________________xxxx________________________xxxxxx______xxxx______xxxx____________________________________", 
"_________________________________________`_`_`__________________________xxxx____________________xxxx__xxxx______xxxx______xxxx____________________________________", 
"_________________________________________`_`_`__________________________xxxx__________________xxxx____xxxx______xxxx______xxxx____________________________________", 
"_________________________________________`_`_`__________________________xxxx____________xx____xxxx____xxxx______xxxx______xxxx____________________________________", 
"_______________________________________`_`_`_`_`________________________xxxx__________xxxx____xxxxxxxxxxxx______xxxx____xxxx______________________________________", 
"___________________________________`_`_`_`_`_`_`_`_`__________________xxxxxxxxxxxxxxxxxxxx______xxxx____xxxx____xx__xxxxxx________________________________________", 
"__________________________________________________________________________________________________________________________________________________________________", 
"__________________________________________________________________________________________________________________________________________________________________", 
"__________________________________________________________________________________________________________________________________________________________________", 
"__________________________________________________________________________________________________________________________________________________________________", 
"__________________________________________________________________________________________________________________________________________________________________", 
"__________________________________________________________________________________________________________________________________________________________________", 
"__________________________________________________________________________________________________________________________________________________________________", 
"__________________________________________________________________________________________________________________________________________________________________", 
"__________________________________________________________________________________________________________________________________________________________________", 
"__________________________________________________________________________________________________________________________________________________________________", 
"__________________________________________________________________________________________________________________________________________________________________", 
"__________________________________________________________________________________________________________________________________________________________________", 
"__________________________________________________________________________________________________________________________________________________________________", 
"__________________________________________________________________________________________________________________________________________________________________", 
"__________________________________________________________________________________________________________________________________________________________________", 
"__________________________________________________________________________________________________________________________________________________________________", 
"__________________________________________________________________________________________________________________________________________________________________", 
} ;
