/* XPM */
static char * settings_xpm[] = {
"32 32 7 1",
" 	c None s None",
".	c #808080",
"X	c #000000",
"o	c #C0C0C0",
"O	c #FFFFFF",
"+	c #808000",
"@	c #FFFF00",
"                                ",
"                                ",
"                                ",
"                                ",
"    ................X           ",
"    .oooooooooooooo.X           ",
"    .ooo.......Oooo.X           ",
"    .ooo.XXXXXoOooo.X           ",
"    .ooo.XOOOooOooo.X           ",
"    .ooo.XOOoXoOooo.X           ",
"    .ooo.XXoXOo.....X           ",
"    .ooo.XOXOO.OOOoXX           ",
"    .ooo.X++oo.....XX ..        ",
"    .oooO+@OXX.Oo..XXX@OX       ",
"    .oooo+O@O+.Oo..X+@O@X       ",
"    .ooooX+O@O.Oo..X@O@+X       ",
"    .ooo.X+OOX.Oo..XX@O+X       ",
"    .o++++@OXO.Oo..XOX@OXXX     ",
"    .o+@O@O@OX.Oo..XX@O@O@OX    ",
"    .oX++++O@OXXXXXX@O@X+++X    ",
"    .oX+++X+O@O@O@O@O@+X+++X    ",
"    .oX++X@O@XX+@O+XXO@OX++X    ",
"    .ooXX++@X+++O@X+++O+XXX     ",
"    XXXXX+@X++++@OX+++++XX      ",
"         +@X+XX+++XXX+++X       ",
"         +@XX  +++X  X++X       ",
"          XX   X++X   XX        ",
"               XXXX             ",
"                                ",
"                                ",
"                                ",
"                                "};
