/* XPM */
static char * shutdown_xpm[] = {
"32 32 9 1",
" 	c None s None",
".	c #808080",
"X	c #C0C0C0",
"o	c #FFFFFF",
"O	c #000000",
"+	c #000080",
"@	c #0000FF",
"#	c #00FFFF",
"$	c #FFFF00",
"                                ",
"                                ",
"                                ",
"                                ",
"         ....                   ",
"       ..XXXX..                 ",
"     ..oXXXXXXX.......          ",
"    .oooooXXXXXXX..XXX..        ",
"    .oXXXXooXXXXXXX..XXX..      ",
"    .oXO..XXooXXXXXXX..XXX.     ",
"    .oXO++..XXooXXXXXXXOX..O    ",
"    .oXO@@++..XXooXXX..O...O    ",
"    .oXO@@@@++..XXo....O...O    ",
"    .oXO@@@#@@++.XX....O...O    ",
"    .oXO@#@#@@#@+XX....O...O    ",
"    .oXO@@#o@#@@+XX....O...O    ",
"    .oXO@#@$#@@@+XX....O...O    ",
"    .oXO@@@#@@@@+XX....O...O    ",
"    .oX++@@#@#@@+XX....O...O    ",
"    ..XXX++@@@@@+XX....O...O    ",
"    .O..XXX++@@@+XX....O..O     ",
"      OO..XXX++@+XX....O.O      ",
"        OO..XXX++XX....OO       ",
"          OO..XXXXX....O        ",
"            OO..XXX....O        ",
"              OO..X....O        ",
"                OO...OO         ",
"                  OOO           ",
"                                ",
"                                ",
"                                ",
"                                "};
