/* XPM */
static char * smallx_xpm[] = {
"64 38 5 1",
" 	s None	c None",
".	c #dcdcdc",
"X	c white",
"o	c #bebebe",
"O	c #ff0000",
"                                                                ",
"                                                                ",
"                                                                ",
"                                                                ",
"                                                                ",
"                     ............              .....            ",
"                   .........XX....           .....o             ",
"                 .........XX.......        .....oo              ",
"               .........XX..........     .....ooo               ",
"             .........XX.............  .....oooo                ",
"           .........XX....................ooooo                 ",
"          OOOOOOOOOO................OOO.oooooo                  ",
"           OOOOOOOOOO..............OOOooooooo                   ",
"            OOOOOOOOOO............OOOooooooo                    ",
"             OOOOOOOOOO..........OOOooooooo                     ",
"              OOOOOOOOOO........OOOooooooo                      ",
"               OOOOOOOOOO......OOOoooooo...                     ",
"                OOOOOOOOOO....OOOoooooo.....                    ",
"                 OOOOOOOOOO..OOOooooo........                   ",
"                  OOOOOOOOO.OOOoooo...........                  ",
"                   OOOOOOOoOOOooo..............                 ",
"                    OOOOOoOOOOoo................                ",
"                     OOOoOOOOOO..................               ",
"                    OOOoOOOOOOOO..................              ",
"                   OOOoOOOOOOOOOO..................             ",
"                  OOOoooOOOOOOOOOO..................            ",
"                 OOOoooooOOOOOOOOOO..................           ",
"                OOOoooooooOOOOOOOOOO.................           ",
"               OOOooooooo  OOOOOOOOOO..............             ",
"              OOOoooooo     OOOOOOOOOO...........               ",
"             OOOooooo        OOOOOOOOOO........                 ",
"            OOOoooo           OOOOOOOOOO.....                   ",
"           OOOooo              OOOOOOOOOO..                     ",
"          OOOoo                                                 ",
"                                                                ",
"                                                                ",
"                                                                ",
"                                                                "};
