/* XPM */
static char *snail[] = {
/* width height ncolors chars_per_pixel */
"32 32 16 1",
/* colors */
"  c #000000000000",
"! c #800000000000",
"# c #000080000000",
"$ c #000080008000",
"% c #000000008000",
"& c #800000008000",
"' c #800080000000",
"( c #800080008000",
") c #c000c000c000",
"* c #ff0000000000",
"+ c #0000ff000000",
", c #ff00ff000000",
"- c #00000000ff00",
". c #ff000000ff00",
"/ c #0000ff00ff00",
"0 c #ff00ff00ff00",
/* pixels */
"                                ",
"00000000000000000000000000000000",
"00000000000000000000000000000000",
"00000000000000000000000000000000",
"00000000000000000000000000000000",
"00000000000000000000000000000000",
"00000000000000000000000000000000",
"00000000000000000000000000000000",
"000000000           000000000000",
"00000000  '''''''''  00000000000",
"0000000   ''''''''''' 0000000000",
"000000  '''''''''''''  000000000",
"00000  ''''      '''''  00000000",
"00000 '''' '''''' ''''' 00000000",
"0000  '''' ''''''' '''' 00000000",
"0000 '''' ''' ''''' ''' 000#0000",
"0000 '''' ''   '''' ''' 00#000#0",
"0000 '''' ''' ''''' ''' 00#00#00",
"0000 ''''' ''' '''' ''' 00#0#000",
"0000 '''''     '''' ''  00##0000",
"0000  ''''' ' '''  ''' 000###000",
"00000 ' ''''''''' ''   00#####00",
"00000  ' ''''''  '''  0####*##00",
"0000000 '      ''''  #########00",
"0000000  ''''''''   #########000",
"0000000          ##########00000",
"000000####################000000",
"0000#####################0000000",
"00######################00000000",
"######################0000000000",
"00000000000000000000000000000000",
"00000000000000000000000000000000"
} ;
