/* XPM */
static char * snoopy_xpm[] = {
/* width height ncolors chars_per_pixel */
"32 32 5 1",
/* colors */
" 	s None	c None",
".	c black",
"X	c yellow",
"o	c white",
"O	c firebrick",
/* pixels */
"                         .XXXXXX",
"                     .....XXXXXX",
"                         ..XXXXX",
"                          .XXXXX",
"                         ...XXXX",
"                        .  ..XXX",
"        ..             .   . ...",
"       ....                .  . ",
"      .oooo.              .   . ",
"     .oooooo.                 . ",
"     .oooooo.                 . ",
"     .oooooo.    ...     ..     ",
"      .oooo.    .ooo.   .oo.    ",
"   .  .oooo.   .ooooo.  .o..    ",
"    ..oooo.   .oooooo.  .oo.    ",
"    .o.ooo.. .ooooooo.  .oo.    ",
"    .ooooo...oooooooo....oo.    ",
"    .oooooo.o.....ooooooooo.    ",
"     ...ooo.oooooo.oooooooo.    ",
"   .............oo...........   ",
"   .O...OOOOOOOO..OOOOOOOOOO.   ",
"   .O....OOOOOOOOOOOOOOOOOOO.   ",
"   .O....OOOOOOOOOOOOOOOOOOO.   ",
"  .OO....OOOOOOOOOOOOOOOOOOOO.  ",
"  ............................  ",
"  .OO....OOOOOOOOOOOOOOOOOOOO.  ",
" .OOO....OOOOOOOOOOOOOOOOOOOOO. ",
" .OOOO..OOOOOOOOOOOOOOOOOOOOOO. ",
" .OOOOOOOOOOOOOOOOOOOOOOOOOOOO. ",
".OOOOOOOOOOOOOOOOOOOOOOOOOOOOOO.",
"................................",
".OOOOOOOOOOOOOOOOOOOOOOOOOOOOOO."};
