/* XPM */
static char * sysedi_xpm[] = {
/* width height ncolors chars_per_pixel */
"32 32 9 1",
/* colors */
" 	s None	c None",
".	c black",
"X	c #00000000ff00",
"o	c white",
"O	c #ff00ff000000",
"+	c #0000ff000000",
"@	c #ff0000000000",
"#	c #c000c000c000",
"$	c #800080008000",
/* pixels */
"                                ",
"                                ",
"                                ",
"                                ",
"                                ",
"                                ",
"                                ",
"  ....................          ",
"  .XXXXXXXXXXXXXXXXXX.          ",
"  .XXXXXXXXXXXXXXXXXX.          ",
"  .oo....................       ",
"  .oo.OOOOOOOOOOOOOOOOOO.       ",
"  .oo.OOOOOOOOOOOOOOOOOO.       ",
"  .oo.oo....................    ",
"  .oo.oo.++++++++++++++++++.    ",
"  .oo.oo.++++++++++++++++++.    ",
"  .oo.oo.oo.................... ",
"  ....oo.oo.@@@@@@@@@@@@@@@@@@. ",
"     .oo.oo.@@@@@@@@@@@@@@@@@@. ",
"     .oo.oo.oooooooooooooooo##. ",
"     ....oo.o##ooooooooooooo##. ",
"        .oo.o####ooooooooooo##. ",
"        .oo.o###oooooooooooo$$. ",
"        ....o###########oooo##. ",
"           .o##ooooooooooooo##. ",
"           .oooooooooooooooo##. ",
"           .................... ",
"                                ",
"                                ",
"                                ",
"                                ",
"                                "};
