/* XPM */
static char * tas_xpm[] = {
/* width height ncolors chars_per_pixel */
"79 123 49 1",
/* colors */
" 	s None	c None",
".	c #BBB1B8",
"X	c #696168",
"o	c #898187",
"O	c #D2C8D0",
"+	c #502202",
"@	c #8C7A59",
"#	c #5D2D00",
"$	c #EBE3DF",
"%	c #A29BA2",
"&	c #816222",
"*	c #CFBB8D",
"=	c #60310C",
"-	c #524852",
";	c #352536",
":	c #E5D3A6",
">	c #65442C",
",	c #F9FFFF",
"<	c #130200",
"1	c #FFF3A8",
"2	c #592A07",
"3	c #623200",
"4	c #160000",
"5	c #702A0A",
"6	c #752B00",
"7	c #7F2F05",
"8	c #B09B6D",
"9	c #480000",
"0	c #803300",
"q	c #87262E",
"w	c #090100",
"e	c #A58039",
"r	c #F3DC6D",
"t	c #E9D263",
"y	c #D19343",
"u	c #E2CB5C",
"i	c #F6EE82",
"p	c #E1BE51",
"a	c #E7AC59",
"s	c #DAB74A",
"d	c #D9BC2B",
"f	c #C6A60A",
"g	c #AC5F00",
"h	c #C28521",
"j	c #9E4957",
"k	c #D06B84",
"l	c #CC635F",
"z	c #FFE87E",
"x	c #FFFAFF",
/* pixels */
"                                                                               ",
"                                        .X                                     ",
"                                        Xo                                     ",
"                                       O+@                                     ",
"                                       o#o    $%                               ",
"                                       &+@    X*                               ",
"                                       +=- $ *;   :o>>>>%                      ",
"                                     .O+=>$  -X,$&;++<;XXO1                    ",
"                                     >%23+   2.$>=++4;@oO                      ",
"                                     ;X3++O$;+O==22+=3#2+-O                    ",
"                                   1O3;35+%%3;223362367663=O                   ",
"                                    .++532&X3+=556656757763-$                  ",
"                                   $.=++5=;+5356677676655663%                  ",
"                                   $o#3355#+55535666573++535+                  ",
"                                 8>--=55665663++9+53955+=+;++O   $             ",
"                               1X+3=++066666566552+5=93#3#+%>.   $:$           ",
"                               %#366++6665533++=563#3=9++5=@O.    -$           ",
"                               ;4943296q53++9+=9+55563+;++5;,$   %=            ",
"                             $O+22;+323659wwww4+2+=665=9+++#O   :q-$           ",
"                              .o+++43=66=4wwwwww9=9576#=#2+=% ,$-3@$           ",
"                               .2+w4=3653<wwwwwww;355052==++% $@+2-.           ",
"                         $  :$$$+4w<+6554www;wwwww+6673+53++o$o+3+;$           ",
"                        $%-+++-.>;ww;663+>ww.Oo;www#5553552+oo336+-$           ",
"                       %=353566=4+<w96655+X;;,,Owww9355333#24+352=o$           ",
"                      8X++3655666+44;=555+;ww,$$.www25#++++4=6663+.$           ",
"                       @#56066766=>e&++364ww-$$,$-ww433655++;7673;$            ",
"                      o2366q66556=8rtty>+2ww.,$$,.ww4++92+=++375=o$$           ",
"                     %2565766053=+eurtiuy;.$,$$$$,;wwwwwwww4<563;$$            ",
"                    8+350q66565+@ttrrrtrrueO$$$$$$owwwwwwwwww++;=o$$           ",
"                   %+366766753>prrrrrrrrrrt-O$$$$$%ww;w-X-;ww92+33-            ",
"                 1.=266757555>ttrrrrt:trrriu@-@@Xoo-w;X,$,O-w>53++4$           ",
"                $.+3677577552atrrrrt83;@trrrsttu&;wwww%$,$O;;++44+;            ",
"                %2=667q6557988errtirt&w=&itrtti&wwwwww;O$$ow34w=3+-$$          ",
"               o=3507557755>>2trtitrs4wertrrrrewww;X-wwwOo<;4ww+++>o$          ",
"             $@+3605q665556+3@rrrtit&44drrrrrtwww-OOOowww=ef&;4+2+4=-$         ",
"          $  @+57777575755#2;pittitp>w=s*rrrr*www-o%ooww4y&&pde;++33=-         ",
"        $  $>2566q65777766#+etritt8e<4;dtrrrru<wwwXXX;wwwupe&ppd&4>22+X        ",
"     $:  $o+35667577755563+2pitrtrrew24>t*rrrt@wwwwwwwww;uuteeppuy+2+;-.       ",
"      o+++23767q55655665533>rtititt>4<-e8errrru;wwwwwwww&uuuyeppeye++3%$       ",
"       X+3606q655665965563+8titttip++;X&urrrrrtu@;wwwww;uuutyepuy4&>+3;$       ",
"      X6306756655329057953+prrtitt8<<+oXf*tr*tiuuu8@>>@dupuuyepus&+4==3o       ",
"     O3506q56656#+9+55565#>tititite<+4o$;duitirrrruussspsppseeupus+2++=;       ",
"     @55566q56++9--+5655#3&rtttitr5;42X,o4&esuuusse&esssussy&e&8ps>+++=2$      ",
"     -X36753=9-%$ %+5655#=8t:titru3<+9oO;2.%X+X@X@%%@dusssseepty8pe4++3+.      ",
"     .%565763+>   o35656#+yrrrrrrs+<49XX9;$$o+.$,X$$.-edssg&@puuusd++33+%      ",
"      o6275553+$$ %36653#+ttrt:rty<4+9999-$$>4%$OX,,$o%&5>epe8uuups+++=2-      ",
"      8>;65555+X  %#6656#+urrrttuhw;w9929-$%9+o$XX$$.;O,$@suuetuups=223==      ",
"     $OXO+556622 $.3765334uttruusew<92+92oO+99;%+-$.;;$$Oepuus*uupp5+33#3%     ",
"      $. o35765+% .#66563+uuutups&w4;59;9%-+299499.-++,,%yuuuuuuuus&+553+X     ",
"       $  >5665=X $+55663;suuupssgw;49qo+;999592992494O$oupuuuuuups7+35=3+     ",
"          O+5053+$ +65633+ypppssyeww;9-$;>jjq469994>2++;esup*uuupup=2=#5+=X$   ",
"           -6655+. >55363+espssdygwwww.$Xjjjkq929;3533=3;espuuu*uss#++333+3.   ",
"           O+505#X X75563=eypsyy=++;<-$,XjXojl;294=566532=eusuppppy<++#53#2;O  ",
"            -6653= o555#==5ssse+3353#+o$%q.O>jq%-94+33363+38pppuupew+++=5=3+8  ",
"            .+665+OO+5+9++4h&+24757663+%%-$$Xj-$X22;4++3534>&8ssus&442++35=24  ",
"             >5552.$;9+3533;+===9556763>.o$$Xq%,%9X,o94;++=33+;sss>;49++33332-,",
"             @365=o$>+56667++653=++5556-X-XX-;O$O4O$O4=4++563=+&py@ -42++363=3.",
"             O+563X>=675556395773+4+5664&ysse&=>--.,O+99=576732;ph.  o4+++#3==;",
"              X3652267659;36+25752;3+2+etrrrrzuu8>>XO;9+=665653+y&    %4++#3523",
"              $+5537673+44#3++57529he&8tititrrrrrru@444+35553#+4=-     %49+35==",
"               %+566755++4+++;355#4daurrrttitrtrrtrrt&44=##+++4=+4.,   ,;3#563+",
"               $X56555=+++<;<<93++;3etrrrr:uuppuptttrrt>+44;4+32==-    X+#6665+",
"                $+=553#++++44w4+94+++etttupsye&@yye8dutt&+;<360732;  ,-=35563#-",
"                 O+3#++++=+2+=4w44#6=2ppsy&==3&74++++>yp&;9+6655=2> ,o#=5563=9.",
"                  .;9+433#=+>&X+4>365;ey&3ehhsye+=+=#++&3+++333+#+o  =2556##+X ",
"                   .Xw+;+4+4prtt;+#3++2#esuprtt>+36553+;+34;494#+w  =3553##+4$ ",
"                     o4+++++8rrr84+++4;dprrrrrr;=3555539336+=;922; -=3533+94O  ",
"                     O++==#=errrrs;9+;ptrtrrrrt>++##++553633++=2+.X=353#+4-.   ",
"                     ,;=353+@rrrtrt@>uur:rrrrrru;+49+4+236533+++;@333#+9-O     ",
"                     $&36633&rrrrrrtitrrrr:tttrrt8e8*u<956#53=34-=3534;.$      ",
"                      %+6653@trrrrrrrrrrrrrritirrtirrt-235+35+++22=+;8         ",
"                       +505=&tr*irrrrrrrtrtrtitrrrtrtrs+#++363++=24X$$         ",
"        $4XO           +3563@trrtrrrr:trrrrrtttitirrrru&++4=563++;. ,          ",
"         .==@          -505=&rrtriuirtrrrrittiititrrrruu-+4+##+;o$             ",
"          o3=@         @=q53&irrrriurrrrrtrittitttititutse&9+;;                ",
"          $>5+.        .3553@urr*rtrrrrrrittriaiittitttsda&ow+$                ",
"           .+5+$        +663&itrrrrititr*tirttittititiaayh@                    ",
"            o66o        +66#@trrr*itrtrrritttittrr:ttppdseO ,                  ",
"            $23=$       -063&rrrrrrr*rrrrtititiitrrrttash@                     ",
"             o53%       &55=&irrrrrrrrrrtirrr:tttrrttpss&$                     ",
"             $+6=       o665&:trrrrrrr*irttitrr:rrruusah%                      ",
"              X53%      o66#@trrrrrrtirtrtitrrrrrttuppy&$                      ",
"            $Oo56=$     o365etrrrrrrrrrrrrtrrrtrrruupsh%                       ",
"             @O+528     %56+errrri*rrrrrritirrrrtutssy@                        ",
"             X$+53+$    @#63e*rrrtrzrrrrtriu:trruuuay&$                        ",
"             &>456=@    -56=eurrrrrrrrti*rrrtrruutpsh%                         ",
"             X63566+>%OO>365@urrrrrrrrrtrrrrrrtuuppy@                          ",
"             @35567632+++563&trrrrrrr*rrrr*rruuuups&$                          ",
"             %366660653#+565&urrrr*rirrrrrrttuuuss&O                           ",
"             O+35q75066+3653&u8rrirrtrrrrrttuuusse.                            ",
"              X#665q605+5665>tuttrrrirrrrtuuuusaeo                             ",
"              .9+6666q5+5653>uuututtttttuuuuussd;                              ",
"               X+#56669556552puuuuuuuuuuuuuussy+<X                             ",
"                -+355335665==ppuuuututuuuupssy;w+4o                            ",
"                $;+3=9566653+spuuuuuuuuupppsy2424;4.                           ",
"                 O;+95676533+&ppsupupppppuye44++2+;<8                          ",
"              x x,.437575533#+epupusupppse3w;2+==++;<o                         ",
"                 $@365756633+==8spsusupe>4w+4+####+++4X$                       ",
"                 o+6575633=3++#+>eeee>3+4;+<=+#2332#+2<-$                      ",
"                o#5776556#6+=+=234++++;44+w;+#233362#+=4X                      ",
"               :=36575533=+#+=+2+++4+<4;+w4++2+33356322+4*                     ",
"               -=5775563####+++++4w-;;>;;;4<4+++3356632#=4$                    ",
"              .+677565#33++++4<;o$ $       OX42+9=355533+>@$                   ",
"              @67755663=+=+9<-O             ,Ow42=55533=#<=                    ",
"              >757556#3++94XO                O+=2555+#+++@X.                   ",
"              236q55##=++4o               ,  -+#553#++4++X$o                   ",
"              ++96056+9+4%                  .43353#+9;X-2X$$                   ",
"              ;>;96655+;;$                  +=35=++;%  >Xo                     ",
"              ..X.;+553#24.               %<>23394%    o$O                     ",
"                  $-9556=>4o$             ;3+3++X        $                     ",
"                    %;#66#3+-$            3+35+;O     $                        ",
"                   $%>+353#+2;O          o4#6653#4-@o.O                        ",
"     $$88@8@X@%%OoX3++5565=2+4-$         O-++3666733==+4=->X@X>>4>=-o$         ",
"    %>2+3#5333#++3333555#+++;;X$           OoX;+++33622633=633530332+-         ",
"   o335766660666566533++-o.   $$               $.%XX>>>;++2650605073++X        ",
"$ O#666676066555533++X%                                $O%-+#5657+672<+O       ",
"  ;63=67575q636#+9-%$                                      $o;35559363<%       ",
"  33+6556q53#++;%$                                            %965++63+X       ",
" >7+25+#555++;.                                                .;+=455+;       ",
" ==95=9#63+>%                                                   $o>4+++@       ",
"w++#3++=+9o$                                                      $O.%.        ",
"X+;53+++-$                                                                     ",
",O-33;;%x                                                                      "};
