/* XPM */
static char * term_xpm[] = {
"45 38 7 1",
" 	s None	c None",
".	c black",
"X	c gray85",
"o	c gray70",
"O	c blue",
"+	c white",
"@	c gray50",
"                                             ",
"                  .......................    ",
"                 .XXXXXXXXXXXXXXXXXXXXXX..   ",
"                .XXXXXXXXXXXXXXXXXXXXXX.X.   ",
"               .oooooooooooooooooooooo.XX.   ",
"              ......................o.oXX.   ",
"             .........................oXX.   ",
"            ...OOOOOOOOOOOOOOOOOOOO...oXX.   ",
"            ..OOOOOOOOOOOOOOOOOOOOOO..oXX.   ",
"            ..OO+++++++++++OOOOOOOOO..oXX.   ",
"            ..OOOOOOOOOOOOOOOOOOOOOO..oXX.   ",
"            ..OO++++++++++++++++OOOO..oXX.   ",
"            ..OOOOOOOOOOOOOOOOOOOOOO..oXX.   ",
"            ..OO+++OOOOOOOOOOOOOOOOO..oXX.   ",
"            ..OOOOOOOOOOOOOOOOOOOOOO..oXX.   ",
"            ..OO++++++++O++OO+OOOOOO..oXX.   ",
"            ..OOOOOOOOOOOOOOOOOOOOOO..oXX.   ",
"            ..OO+++++++++OOOOOOOOOOO..oXX.   ",
"            ..OOOOOOOOOOOOOOOOOOOOOO..oXX.   ",
"            ..OO++++OOOO+++OOO++++OO..oX.    ",
"            ..OOOOOOOOOOOOOOOOOOOOOO..o..    ",
"            ..OO+OOOOOOOOOOOOOOOOOOO...  .   ",
"            ...OOOOOOOOOOOOOOOOOOOO...    .  ",
"             ........................     .  ",
"              ......................       . ",
"                     ooooooo               . ",
"         oooooooooooooooooooooooooooooo   .  ",
"         ooo.....ooooooooo.....oo...ooo   .  ",
"         ooooooooooooooooooooooo.ooo.oo  .   ",
"     ..............................oo.o .    ",
"    .+@+@+@+@+@+@+@+@+@+@+@+@+@@@.oooo..     ",
"   .@@@@@@@@@@@@@@@@@@@@@@@@@@@@.            ",
"  .@@+@+@+@+@+@+@+@+@+@+@+@+@@@.             ",
" .@@@@@@@@@@@@@@@@@@@@@@@@@@@@.              ",
".@@@@@@@@@@@@@@@@@@@@@@@@@@@@.               ",
".............................                ",
"                                             ",
"                                             "};
