/* XPM */
static char * image_name[] = {
"56 46 37 1",
" 	c #FFFFFBEEFFFF",
".	c #B6DAAEBAB6DA",
"X	c #000000000000",
"o	c #A699A289A699",
"O	c #8E388A288E38",
"+	c #38E36DB6A699",
"@	c #9E799A699E79",
"#	c #A6999E79A699",
"$	c #BEFBB6DABEFB",
"%	c #082004100820",
"&	c #000000001861",
"*	c #A69979E78E38",
"=	c #79E786179E79",
"-	c #000008200820",
";	c #000000001040",
":	c #8E38861779E7",
">	c #965896589658",
",	c #AEBAAEBAB6DA",
"<	c #AEBAB2CACF3C",
"1	c #71C679E78617",
"2	c #96589658AEBA",
"3	c #AEBAAAAAAEBA",
"4	c #AEBA9E795965",
"5	c #514471C68E38",
"6	c #BEFBC30BCF3C",
"7	c #EFBEF3CEF7DE",
"8	c #5144A2894924",
"9	c #AEBAA69971C6",
"0	c #AEBAA699AEBA",
"q	c #FFFFF3CEFFFF",
"w	c #861779E78617",
"e	c #C71BBAEAC71B",
"r	c #AEBA61856185",
"t	c #51445555FFFF",
"y	c #69A68617BEFB",
"u	c #71C675D671C6",
"i	c #79E79248B6DA",
"                                                       .",
" ......................................................X",
" ...............oOO+O+O+O+OO@#.........................X",
" ....$....$...OO++++++++++%+X++o....$....$...$....$....X",
" o...o..$o..O++%@O@+&+&+$*=+O%XX+o...o...o...o...o...o.X",
" ..........O-+&+%+%.O;+-:=*O%+XXXXo....$...............X",
" @$@$>$>.>+%+X+#@;+O+++*++.=:-+X+XX@$>.>.o.@$@$@$@$>$@.X",
" $.,..@.$+%+;+@.O...<+1.*,:=**;+;+XX2$@$.....,@,.,....#X",
" @.@$2.@+&+X++$O++O..$<O,=3=-+1%+X+XX@.2.@.@.@.@$@.@.@.X",
" ...@.$+X+;+;++++*O.....O<14OO%+;+;+XX@.@$,$@...@...@$.X",
" @.@.@O%+X+++++*1< . ..O.O.5$O+%XXO%+X+@.@.@.@$2.@.@.@.X",
" .@...%+;+;+;++<  ........2*O+%+O%++XXX+@.2$..@.@.@<..@X",
" @.#.++;++++*67. . . ..O.O.8$&+%O%%+O%X%.@.@.2.#.@$@.@.X",
" .@.#+%+;++O,     . ......*<O*O+%+;+&+X%+.#.2$@.@.2.@.@X",
" @.@=X+#@O+* . . . . ....O.O.O+&+X+X+;+X%#.@.@.2.#.@.2.%",
" @@.++X@#.$+      . $.....191*%+;+;+X+;+X+@.@0@.@#@.0@@X",
" @.OO%+O++ ,q. . . . ..O.O<1<%+%+X+;+XXXX+.@.@.#.@.@.@$%",
"q@@wO.&+.++ . . . .$......O$O+%+;+X+;+X+X%2@@@#@@#@2@@@X",
" @.+19#;+,q+ $ . . . ..O$O.O.%+;+;+X+X+;XX.0.#0#.#.#.#.X",
"q@@2w<O$X<...,.......,$...1*O+;+X+;+XX;+XX@@@@#2@@@#@@@X",
" @@+OO.OO%+*=.. . .$...O.O<8$*+%+;+X+%+XXX@@.@@#.>@>e@@X",
"q@@+O2O..O;+X+-....,..$<rOO*O=O+;+XX;+;+X%@#2@#@>##@@@@X",
" @#+1#.O.%+X+;+X+O$O.O,O<O.O*+1+O+O+%XXXXX0@@#@*01<@2#@X",
"q@@+14@@O+;+X+;+;+....>O14=>52+r++++X+X+X%@#*@,=##@@#>@X",
" O2+2:12@X+;+X+X+X*-.O.O$5>+O+*+1++++&XXXX@2#8##@8##@82%",
"q@#+=*O=@+X+;+;+;+X+X+*OO21:*O++++++1*OOO==4==w84*2@#20X",
" @@r+1+OO1+%+X+X+;+;+X++O+O+1+1++t+&4      7    +=24w=@%",
" #@y+4=*OO++X+;+X+X+;+XO1O+O+2++++++*7+++++++++$;8@0@2@X",
" 828*+1+=**:+;+X+;+X+XO+1+2+*++++&+&O + 1+;;X;+$&*21#4@X",
" ###,&r214=1*+;+;+X+&+12+w+1++++++++1 +O&%%XX;+.X=#2@@@X",
" *@O2+++2+1+O-+X+X+;++O+O+*+1+t%+&+&4 ++%XXXXX+.X4@1#1#X",
" @=@@@;++u+21+;+;+%OO*+++*++++++++;;*7+XXXXXX;+.&Ou02#OX",
" :@=@1O+++*+O%+;+;O+*+O+*++++&+&+;+X= +;XX%XXX+$XO@4*80%",
" #1@Oo*+;++O++;+%++5++++++++++++;XX%O +++++++++.%O=2*2*X",
" =#O@1#:++++*&+X@+>+*+++++t%+&+;+X+XO.$.$.$.$...%O@8,r2-",
" 14@*4=@*+&+++;++++++++++&++++;XXX%%O+X%;%X&X%;X%=r#5>=X",
" O2=O=@=2>+++++;+++++t%++++&+;+;+;O               ,O0=2X",
" O*8OO*95**++;++++++++++&+;+X;%XX%O ..............+214OX",
" *#*21#=#O2@2++;+;+;+;+&+;+;+XXX+O* OOO+O+O+XXX+O.X:2*@X",
" ==*8=*41OO1*@*+;+;+;+;+;+;XX%+O14=.............*OX+===X",
" =41,5O=#=O1#u=*,++;+;+;+;+++OO221O%%%%%X%XX-XXX%%%+*r=X",
" 9112w2O1959OO@u=*2141*OOOO1OOrOw2rO++++++++++++++++=>:X",
" 12>*19521#1O95OO4O*=2:*5>@O1=>*OOy@*1O*=Oo*=OO*=OO:O=O-",
" =O*81*81*4iw1>O=121O5=14OO1O*=u=O:1OOO=OOO=:=*=O21=14=X",
" *5@*2O*211*12wOOO=9*>O25OOOO*=414*=1Or=OO1O>18*Or=2O15%",
".%%%&X;;X;;;;%%%%%%;%%%%%%%%-X-%%&X;;%--XX%%;%&&%%%X%;%%"};
