/* XPM */
static char *textedit[] = {
/* width height num_colors chars_per_pixel */
"    46    44        3            1",
/* colors */
"  s None c None",
". c white",
"# c black",
/* pixels */
"                                              ",
"                                              ",
"                   #######################    ",
"                   #.....................#    ",
"                #######################..#    ",
"                #.....................#..#    ",
"             ################.........#..#    ",
"             #..............##........#..#    ",
"             #..............#.#.......#..#    ",
"             #..............#..#......#..#    ",
"             #..............#...#.....#..#    ",
"             #..............#....#....#..#    ",
"             #..............#.....#...#..#    ",
"             #..............########..#..#    ",
"             #.....................#..#..#    ",
"             #..............#......#..#..#    ",
"             #.............##......#..#..#    ",
"             #............##.......#..#..#    ",
"             #...........##........#..#..#    ",
"             #..........##.........#..#..#    ",
"             #.........##..........#..#..#    ",
"             #........##...........#..#..#    ",
"             #.......##............#..#..#    ",
"             #......##.............#..#..#    ",
"             #.....##..............#..#..#    ",
"             #....##...............#..#..#    ",
"             #...##................#..#..#    ",
"             #..##.................#..#..#    ",
"             #.##..................#..#..#    ",
"             ###...................#..#..#    ",
"            ###....................#..#..#    ",
"           ###.....................#..#..#    ",
"          ####.....................#..####    ",
"         ### #.....................#..#       ",
"        ###  #.....................####       ",
"       ###   #.....................#          ",
"       ###   #######################          ",
"       ##                                     ",
"    #######                                   ",
"    #######                                   ",
"  ###########                                 ",
" #############                                ",
"                                              ",
"                                              "
};
