/* XPM */
static char * image_name[] = {
"56 46 24 1",
" 	c #FFFFFFFFFFFF",
".	c #BEFBBAEABEFB",
"X	c #000000001040",
"o	c #BEFBB6DABEFB",
"O	c #AEBAAAAAAEBA",
"+	c #AEBAA699AEBA",
"@	c #C71BBAEAC71B",
"#	c #000000000000",
"$	c #208120812081",
"%	c #FFFFE79DBEFB",
"&	c #AEBA555528A2",
"*	c #AEBA9E795965",
"=	c #000008200820",
"-	c #AEBAAEBAAEBA",
";	c #BEFBC30BBEFB",
":	c #9E799A699E79",
">	c #AEBAA69971C6",
",	c #AEBAB2CA28A2",
"<	c #A699A699A699",
"1	c #514455554924",
"2	c #965896589658",
"3	c #000030C20820",
"4	c #AEBA59650820",
"5	c #618561856185",
"                                                       .",
" ......................................................X",
" ......................................................X",
" ...o..o..o..o..o..o..o..o..o..o..o..o..o..o..o..o..o..X",
" O...O...+...O...O...+...O...O...+...O...O...+...O...O.X",
" ..o..@o...@o..@o.@o...@o..@o.@o...@o..@o.@o..@o.@o.@o.X",
" O.O.+.O.O.O.O.O.O.O.O.O.O.O.O.O.O.O.O.O.O.O.O.O.O.O.O.X",
" .....O...o...+.......+...o...O...o...+.......O.......OX",
" O.+.+.O.+.O.+.OoO.+.+.O.+.O.+.+.O.O.+.OoO.+.+.OoO.+.O.X",
" ...O...O...O...O...O...O...+...O.o.O...O...O...O...+..X",
" O.+.+.+.+.+.O.+.+.+.OoO.+.O.O.+.O.O.+.O.+.+.OoO.O.+.O.X",
" .O...O.O.O.o.O.O.O...O.O.O.o.O.O.+...+.O.O...O.+.O...OX",
" O.+.O.+.O.O.O.+.O.+.O.+.O.O.O.+.O.O.+.O.+.O.+.O.O.+.+.X",
" .O.+.O.O.+.O.O.O.O.+.O.O.O.+.O.O.+.O.O.O.+.O.O.+.O.O.OX",
" O.O.O.+.O.O.+.O.+.O.O.+.+######.O.O.+.O.O.O.+.O.O.+.O.X",
" OO.OOO.OOO.OO+.OOO.OOO.O#$$$$$$#O+.OOO.OO+.OOO.OOO.OOOX",
" O.O.+.O.O.+.O.O#########$######$##########O.O.+.O.O.O.X",
" OOOOOOOOOOOOOO#%%%%%%%%#$#%%%%#$#%%%%%%%%##OOOOOO+OOOOX",
" O.O.O.O.+.O.O#%%%%%%%%%###%%%%###%%%%%%%#&#.O.O.O.O.O.X",
" OOOOOOOOOOOO#%%%%%%%%%%%%%%%%%%%%%%%%%%#&&#OOOOOOOOOOOX",
" OOO.+OO.OOO.###########################&&&#.OOO.OOO.+OX",
" OOOOOOOOOOO#**************************#&&&#OOOOOOOOOOOX",
" OOOOOOOOOOO#**************************=&&&#OOOOOOOOOOOX",
" OOOOOOOOOO-=************;;;;;*********#&&&#OOOOOOOOOOOX",
" :OOO:OOO:OO#*************;**;*********=&&&#O:OOO:OOO:OX",
" OOOOOOOOOO-=***>**>**>***;&&&&&*>**>**=&&&#OOOOOOOOOOOX",
" OO:O:O:OOO:#***,>*,>*,>**;;;**&*,>****=&&&#O:O:OOO:O:OX",
" OOOOOOOOOO-=***>**>**>***;*&****>>,***=&&&#OOOOOOOOOOOX",
" :O:O:O:O:O:=*************;%&&&****>***=&&&#O:O:O:O:O:OX",
" OOOOOOOOO--=****>,**>,>**;*&*>********=&&&#OOOOOOOOOOOX",
" :O:O:O:O:O:=***>,>>,>>*<*;*1*,>*,>****=&&&=-:O:O:O:O:OX",
" O:OOO:OOO:-=****>**>**<111111>*>>>,***=&&&#OO:OOO:OOO:X",
" :O:O:O:O:O:=**,>*****21**3*&13**,>>>,>=&&&=-:O:O:O:O:OX",
" O:O:O:O:O:-=**>>*****21*&&&&1=&*>***>*=&&&#:O:O:O:O:O:X",
" :O:O:O:O:O:=***,>,>***1141*1=**&******=&&&#O:O:O:O:O:OX",
" ::O:::O:::-=***>*>*>,**1151=***&******=&&=O:::O:::O:::X",
" :O:O:O:O:-:=********>***&**&**&***,>**=&=-:-:O:O:O:O:OX",
" :::::::::::=*>,**********&&&&&*>,>>***==::::::::::::::X",
" :O:O:O:O:-:-===3=3=3=3==3=====3====3===-:-:O:O:O:O:O:OX",
" ::::::::::::<:::::::::::::::<:::::::::::::::::::::::::X",
" :::O:::O:::-:::O:::+:::-:::-:::-:::-:::-:::O:::O:::O::X",
" ::::::::::::::::::::::::::::::::::::::::::::::::::::::X",
" :O:::::::-:::::::+:::::::-:::::::-:::::::O:::::::O::::X",
" ::::::::::::::::::::::::::::::::::::::::::::::::::::::X",
" ::::::::::::::::::::::::::::::::::::::::::::::::::::::X",
".XXXXXXXXXXXXXXXXXXXXXXXXXXXXXXXXXXXXXXXXXXXXXXXXXXXXXXX"};
