/* XPM */
static char * wilber_xpm[] = {
/* width height num_colors chars_per_pixel */
"60 44 179 2",
/* colors */
"  	c None",
". 	c #a69e88",
"X 	c #e6e2de",
"o 	c #86826c",
"O 	c #cec6b4",
"+ 	c #bab6b1",
"@ 	c #eeeeec",
"# 	c #b6b2a9",
"$ 	c #7a7264",
"% 	c #cabe9c",
"& 	c #7a725c",
"* 	c #cabea4",
"= 	c #969284",
"- 	c #766e5c",
"; 	c #f2f2f4",
": 	c #baae94",
"> 	c #b6aa8f",
", 	c #eaeaec",
"< 	c #cecac5",
"1 	c #726a54",
"2 	c #726a5c",
"3 	c #e2e2e4",
"4 	c #b2a68c",
"5 	c #6e6a54",
"6 	c #6e6a5c",
"7 	c #6e6654",
"8 	c #aea68c",
"9 	c #9e927c",
"0 	c #eeeae0",
"q 	c #827e6c",
"w 	c #6a6254",
"e 	c #dadadc",
"r 	c #beb6a4",
"t 	c #9e967c",
"y 	c #968a74",
"u 	c #c2beb7",
"i 	c #dedad4",
"p 	c #6a624c",
"a 	c #666250",
"s 	c #d6d6d3",
"d 	c #968e74",
"f 	c #8e826c",
"g 	c #827664",
"h 	c #9a9284",
"j 	c White",
"k 	c #a29e94",
"l 	c #665e4c",
"z 	c #625a4c",
"x 	c #767264",
"c 	c #cececc",
"v 	c #a2967c",
"b 	c #9a8e77",
"n 	c #8e8673",
"m 	c #868274",
"M 	c #5e5645",
"N 	c #8a867c",
"B 	c #dededb",
"V 	c #a69a7f",
"C 	c #e2deda",
"Z 	c #aaaaac",
"A 	c #c2c2bc",
"S 	c #867a64",
"D 	c #7e7664",
"F 	c #aaa6a4",
"G 	c #5e5a4c",
"H 	c #56564c",
"J 	c #8a8a84",
"K 	c #bababc",
"L 	c #e6e6e4",
"P 	c #c6c6c3",
"I 	c #aeaaa4",
"U 	c #8a7e6c",
"Y 	c #9e9a94",
"T 	c #9e9688",
"R 	c #b2b2b4",
"E 	c #b6b6b4",
"W 	c #cec6bc",
"Q 	c #a6a294",
"! 	c #928674",
"~ 	c #7e7a64",
"^ 	c #5a5244",
"/ 	c #565245",
"( 	c #969694",
") 	c #aeaeac",
"_ 	c #f6f6f4",
"` 	c #fafafc",
"' 	c #d2cec4",
"] 	c #76725c",
"[ 	c #564e41",
"{ 	c #524e3e",
"} 	c #524a3c",
"| 	c #a6a6a4",
" .	c #bebebc",
"..	c #c2c2c4",
"X.	c #faf6f4",
"o.	c #7a6e5c",
"O.	c #4e463b",
"+.	c #4e4a3c",
"@.	c #8a8a8c",
"#.	c Gray40",
"$.	c #4e4e4c",
"%.	c #5e5e5c",
"&.	c #828283",
"*.	c #f2f2ec",
"=.	c #2e2e2a",
"-.	c #bebab0",
";.	c #464236",
":.	c #4a4234",
">.	c #7a7a7b",
",.	c #8e8e8c",
"<.	c #565254",
"1.	c #464644",
"2.	c #2a2a2c",
"3.	c #222224",
"4.	c #a2a2a4",
"5.	c #323234",
"6.	c black",
"7.	c #9a9a9c",
"8.	c #6a6a6a",
"9.	c #cacacc",
"0.	c #463e34",
"q.	c #3e3e2c",
"w.	c #727274",
"e.	c #6e6e6c",
"r.	c #929294",
"t.	c #5a5a5b",
"y.	c #3a3a34",
"u.	c #262623",
"i.	c #0e0e0c",
"p.	c #626264",
"a.	c #4a4a4c",
"s.	c #3e3a2d",
"d.	c #3e3e3c",
"f.	c #d2d2d4",
"g.	c #3a3a3c",
"h.	c #dad6d0",
"j.	c #d6d2cc",
"k.	c #1a1a1c",
"l.	c #161614",
"z.	c #3e362c",
"x.	c #3e3e34",
"c.	c #868684",
"v.	c #363632",
"b.	c #aeaa9c",
"n.	c #9e9e9c",
"m.	c #968e84",
"M.	c #423a2c",
"N.	c #424244",
"B.	c #565654",
"V.	c #32322c",
"C.	c #66625c",
"Z.	c #827e64",
"A.	c #b2aea4",
"S.	c #3a3634",
"D.	c #7e7e7c",
"F.	c #6e6a64",
"G.	c #5e5a44",
"H.	c #76726f",
"J.	c #2e2a24",
"K.	c #1e1a14",
"L.	c #323224",
"P.	c #221e1c",
"I.	c #423e3c",
"U.	c #423a34",
"Y.	c #9e9a8c",
"T.	c #26221c",
"R.	c #1e1e1c",
"E.	c #767674",
"W.	c #121214",
"Q.	c #120e0c",
"!.	c #322e28",
"~.	c #4a4a44",
"^.	c #12120c",
"/.	c #0a0a04",
"(.	c #0a0604",
").	c #a2a29c",
"_.	c #2a2624",
"`.	c #5e5a54",
"'.	c #0a0a0c",
/* pixels */
"                                                                                                                        ",
"                                                                                                                        ",
"                            .                                                                           X o             ",
"                          O O                                                                           + o             ",
"                          @ O X                                                                       # $ X             ",
"                          @ . %                                                                       & & X             ",
"                          @ O O *                                                                   = & - @ ;           ",
"                            @ . : > ,                                                             < - 1 2 3             ",
"                            @ . O 4 . X                                                         , - 5 6 7 3             ",
"                              @ . 8 9 9 X                                                     0 q 1 7 7 w e             ",
"                                . r t y y u                                                 i q 1 5 p a a s             ",
"                                  . t d f g h                                           j k 7 7 w l z l x c             ",
"                                  . v b n q - m                                         f - 7 7 a l M M N c             ",
"                                  B V 9 y f - 2 5                                   C - - 1 7 a l z M M Z c             ",
"                                  3 A V b y S D & 2 - q F                   < - 2 1 1 7 7 w l l G M H J K c             ",
"                                  L P I 9 d U q S D $ D D S S n k Y T T w w 7 1 7 7 7 a a l G z M M l R E c             ",
"                                  , W Q t 9 ! U q S S D S q S ~ & & 6 7 p a p l l l l z M z M ^ ^ / ( ) K               ",
"                                  _ j j j j d ! n j j j j j ` ' D ] - 7 l z M / ^ / [ [ { } / [ { M | R  .              ",
"                                @ j s ..c ; W y i j j j j ` X.; D o.1 7 l z M / [ { } O.+.+.{ { M @.| E                 ",
"                  #.$.%.&.  `   *.@ R =.=.# @ -.j j ` L c X ; ; Q ] 5 7 z M ^ +.+.O.;.:.:.:.+.{ >.,.Z E                 ",
"              ; <.1.1.2.3.<.  v j j 4.5.6.=.j X j j s 7.8.#.9., u 1 1 7 z M / O.;.;.0.0.q.0.+.w.&.@.)                   ",
"              e.r.P  .t.y.u.u.$ W j i.6.i.p.u @ _ _ p.>.>.6.a.B P 5 5 p M ^ } ;.0.0.s.y.s.0.%.e.&.( K                   ",
"            L d.4.s f.%.g.2.=./ y i e.d.8.h.! j.; _ t.k.l.6.<.s F 7 a l / / } 0.0.s.s.z.x.0.%.w.c.7.                    ",
"            ) 5.c.Z 4.$.v.5.v.a.$ f L ` L u n b.@ @ n.u.6.3.@.c m.w l z [ { O.0.M.s.s.z.s.N.p.>.,.|                     ",
"            | u.<.p.t.d.g.d.1.B.B.- D S S q q q q B e e i f.c k p l l M { +.O.0.M.x.s.s.V.N.w.,.|                       ",
"            E 2.g.1.1.g.d.a.$.%.C.7 o.D ~ S Z.S S Q A.P s # = 7 w z ^ / +.O.:.0.s.s.z.S.5.1.D.7.R                       ",
"            @ 5.5.v.g.N.1.<.t.#.#.l 1 - & D g D D D $ - 2 7 7 p l G O.;.+.:.;.0.z.s.s.V.v.$.c.|                         ",
"            _ w.2.v.d.a.<.t.p.w.F.M a 5 - & D & o.- 1 6 1 w w a z [ z.0.O.;.0.z.z.s.s.u.g.B.( R                         ",
"              L a.N.a.t.p.8.w.D.G { M G.z a 1 7 7 7 p a a z M G.=.V.;./ 0.x.M.y.s.s.=.5.$.8.Z P                         ",
"                  <.B.#.e.H.>.H.+.+.{ M ^ M w l l l z G.z M / +.J.N.H %.M.s.z.s.s.V.K.g.t.>.K                           ",
"              _     #.8.w.D.&.t.O.O.+.} / ^ z z G G.M ^ ^ [ L.P.I.^ #.- U.s.y.s.s.K.k.a.C.c...                          ",
"                      Y.7 l z +.O.;.O.O.+.O.{ +.{ V.T.R.P.J.v.0.C.e.E.#.s.s.z.W.W.R.5.#.c.Z                             ",
"                          x 0.J.V.V.V.V.L.T.K.l.Q.K.P.T.!.0.~.^ F.2 7 0.U.s.J.W.R.=.N.>.( E                             ",
"                            E !.^.^./././.(.i.Q.l.T.J.v.x./ %.C.7 C.x.x.V.l.i.R.2.d.B.,.)                               ",
"                            9.# ).r.e.%.d.V.u._.V.I.O.[ `.a / I.K.'.i.i.l.k.u.1.t.w.@.K c                               ",
"                              + Z 7.E.#.B.1.=.3.k.l.W.i.'.i.i.i.i.W.l.k.2.5.d.%.w.@.4.                                  ",
"                                  Z c.w.#.<.g.5.2.R.R.k.k.k.k.k.3.3._.=.d.a.t.D.r.| K                                   ",
"                                      c.>.8.$.1.d.5.5.5.=.=.5.5.v.d.N.a.%.8.>.n.R ..                                    ",
"                                            @.&.>.w.e.w.e.e.e.w.>.D.@.r.| R K s B                                       ",
"                                                                                                                        ",
"                                                                                                                        ",
"                                                                                                                        ",
"                                                                                                                        ",
"                                                                                                                        "};
