/* XPM */
static char * image_name[] = {
"56 46 33 1",
" 	c #FFFFFFFFFFFF",
".	c #D75CD34CD75C",
"X	c #000000000000",
"o	c #E79DE79DEFBE",
"O	c #514455554924",
"+	c #965896589658",
"@	c #A699A289A699",
"#	c #AEBAAEBAAEBA",
"$	c #8E388A288E38",
"%	c #AEBAA699AEBA",
"&	c #BEFBB6DABEFB",
"*	c #AEBAAAAAAEBA",
"=	c #AEBAAEBAB6DA",
"-	c #71C675D671C6",
";	c #A6999E79A699",
":	c #618561856185",
">	c #30C234D330C2",
",	c #69A669A671C6",
"<	c #B6DAAEBAB6DA",
"1	c #79E786179E79",
"2	c #CF3CC71BCF3C",
"3	c #A699A699A699",
"4	c #186120812081",
"5	c #082004100820",
"6	c #EFBEF3CEF7DE",
"7	c #000008200820",
"8	c #FFFFFBEEFFFF",
"9	c #208120812081",
"0	c #BEFBC30BBEFB",
"q	c #AEBA9E795965",
"w	c #AEBA61856185",
"e	c #8E38861779E7",
"r	c #5144A2894924",
"                                                      .X",
"  ...................................................oOX",
"  +@##$#%#$#%#$#%#$#%#$#%#$#%#$#%#$#%#$#%#$#%#$##%$##&OX",
"  ******#***#***#***#***#***#***#***#***#***#**%#*#*#=-X",
"  ;*************************************************#&:X",
"  ;*************************************************#=-X",
"  @*************************************************#&-X",
"  ;***#&O>OOOOOOOOOOOOOOOOOOOOOOOOOOOOOOO-,OOOOO&***#<-X",
"  ;****=>>OOOOOOOOOOOOO,-OOOOOOOOOOOOOOO12$OOO>>=#**#&OX",
"  ***#&&>>OOOOOOOOOOOOO@:OOOOOO,+OOOOOO;-XXOOO>>2**###-X",
"  ;#**#=>>OOOOOOOOOOOO+<-OOOOO-&+OOOO:3OXXXOOO>>&#**#&-X",
"  ;***#2>>OOOOOOO,OOOO$#-OOOO$=&$OOO-+>XX4:OOO>>&#**#<-X",
"  @****&>>OOOOOO:#OOO,#&-OOO+=##+OO;2OX5>OOOOO>>2#**#&OX",
"  ****#2>>OOOOOO-#OOO$&&,OO&*#**$O&.-5XOOOOOOOO>&***#<-X",
"  ;***#&>>OOOOOO&@OO:+##O-##****$;2OXOOOOOOO-1O><##*#&,X",
"  ;***#<>>OOOOOO<+OO-<##+#*****#2.OXOOOOOO++&#:><#**#&-X",
"  @***#2>>OOOOO#<+O-####*******261OOOOOO***=#@>>&&#**#OX",
"  ;***#&>>OOOO,&#+O$&#+-=$22*.#$>XO-,$1$$*#*#O>>##*##&-X",
"  ;#***2>>OOOO&###+<#$$<o  2o.,XXX-2    2O&*-O>>.#***&,7",
"  ;***#&>,-OOO###%###+2     &OXXXX$&o    oO*>O>><**###-X",
"  @***#2>>OOO:&#***#,2   .2$XXX7XXO+,O+o    --4>&#**#&OX",
"  ;***#&>-+OO=#***$$. 2+$+*#-+$+$$+#2.        ->2#**#&-X",
"  ;****<>,2OO###&+:2 #*2.8      8             #9&#***#-X",
"  @**#&&>-0:##**$,. ;*                        #92**##&-X",
"  ;***##>-###**-qo  +*                        #9&#***&OX",
"  ;**##&>-&#*#*Oo  +O-=.+2$1$1$1@o            #>#**###-X",
"  +***#2>:&##**##,-+,OXXXXXXXXXXXX-.          #9.#***&-X",
"  @=**#&>O:#&*#=+-o-XXXXXXXX55X7XXXOo         #><**##=:X",
"  ;##*##>#24#**# 2OXX77O9755XX5X5XXX4&        *9&#**#&-X",
"  ;****09# oX+& #>XXX5,$X5XX55X5X77XXXX.      #X2***##-X",
"  @****2X#   > $OXX75>#-XX55XX5X5X5X7XXXO. o  #>&#***&OX",
"  ;***#&>+   o-X957X-$2>X5XX5X5X5X5X57XXXX>,. *4&**##&-X",
"  ;****2>X. 2:X>-*+*<#2>5X55X5X5X5X5X5X7XO>O#.=><##**#-X",
"  #***#&4&  >X$ o9+&##&>X5XX5X5X>-O5XX>:O-#<& -92#**#&-X",
"  ;***#&># +X#   oO,&#<+X5X5X5X5-2*->X9OX+O+#+@>&#***&OX",
"  ;***#29=$2.  -   #,-<&;O>$>>5X9<#&=&-O>OOO-O>>2**###-X",
"  @****&9#   .X  .   +$#<&*=&<O>&##*-OOOOOOOOO>>&#**#&-X",
"  ;**###>4o 1O  -,   2,+<####&&<#*#$OOOOOOOOOO>>2***#=:X",
"  ;#***.># -#  O. .+  oO+2&.#&2&2&22&,OOO:OOOO>><##*#&-X",
"  ****#<>5XXXXXXXXXXXX7X7XXXX7777XXXXXXXXXXXXXXO&#**##-X",
"  ;***##&<2&2&2&<2&2&2&2&2&2&2&2<202&2&22.222&2&##***&OX",
"  @****##########################<#########*#####***#&-X",
"  ;******##*#*#####*##################****#**#*******&,X",
"  @&<&<&<&&<&&&<&&<&*&&<&#<&#<&#&&#&<&&&&&&&&&#&<&<&&#-X",
"  -$w1$1-e1-$q1,$r1r$1r$r$11$$1$1r$$r1,$1e1,$1$1w11w1+:X",
"o>X7777XXXXXXXXXXX5XXXXXXX5XXXXXXXXXX7XXXXXXXXX77777X7XX"};
