/* XPM */
static char *wterm[] = {
/* width height num_colors chars_per_pixel */
"    40    40        9            1",
/* colors */
"  s None c None",
". c #ffffff",
"# c #000000",
"a c #00ffff",
"b c #0000ff",
"c c #c0c0c0",
"d c #000082",
"e c #828282",
"f c #008200",
/* pixels */
"                                        ",
"                                        ",
"                                        ",
"             eeeeeeeeeeeeeeeeee         ",
"            ecccccccccccccccc.e#        ",
"           e.................ee#        ",
"          e.cccccccccccccccccee#        ",
"          e.ceeeeeeeeeeeeee.cee#        ",
"          e.c#############d.cee#        ",
"          e.c#bbbbbbbbbbbbd.cee#        ",
"          e.c#babbbbbbbbbbd.cee#        ",
"          e.c#babbbbbbbbbbd.cee#        ",
"          e.c#bbbbbbbbbbbbd.cee#        ",
"          e.c#bbbbbbbbbbbbd.cee#        ",
"          e.c#bbbbbbbbbbbbd.cee#        ",
"          e.c#bbbbbbbbbbbbd.cee#        ",
"          e.c#bbbbbbbbbbbbd.cee#        ",
"          e.cdddddddddddddd.cee#        ",
"          e.c...............cee#        ",
"          e.cccccccccccccccccee#ee      ",
"          eeeeeeeeeeeeeeeeeeee#eec#     ",
"          ####################eece#     ",
"        eeeeeeeeeeeeeeeeeeeeeeecee#     ",
"       e.......................eee#     ",
"       e.cccccccccccccccccccccceee#     ",
"       e.cccccccccceeeeeeeeeecceee#     ",
"       e.ccffcccccc##########eeeeee     ",
"       e.cceeccccccccccccccec..ce.ce    ",
"       eee#.e#.e#.e#.e#.e#eeeeeeeee#    ",
"      e.e#.e#.e#.e#.e#.e#e.......ee#    ",
"     e.e#ee#ee#ee#ee#ee#e.......eee#    ",
"    e...................ec....ceee#     ",
"    eccccccccccccccccccceeeeeeeee#      ",
"     ###################eccccce##       ",
"                         ######         ",
"                                        ",
"                                        ",
"                                        ",
"                                        ",
"                                        "
};
