/* XPM */
static char * x [] = {
/* width height ncolors chars_per_pixel */
"64 64 2 1",
/* colors */
" 	c #D7D7D7D7D7D7",
".	c #D2D222223232",
/* pixels */
"                ...........................................     ",
".                ..........................................     ",
"..                ........................................     .",
"...                ......................................     ..",
"...                .....................................     ...",
"....                ...................................     ....",
".....                ..................................     ....",
"......                ................................     .....",
"......                ...............................     ......",
".......                .............................     .......",
"........                ...........................     ........",
".........                ..........................     ........",
".........                .........................     .........",
"..........                .......................     ..........",
"...........                .....................     ...........",
"............                ...................     ............",
"............                ..................     .............",
".............                .................     .............",
"..............                ...............     ..............",
"...............                .............     ...............",
"...............                ............     ................",
"................                ..........     .................",
".................                .........     .................",
"..................                .......     ..................",
"..................                ......     ...................",
"...................                ....     ....................",
"....................                ..     .....................",
".....................               ..     .....................",
".....................              ..     ......................",
"......................            ..     .......................",
".......................          ..     ........................",
"........................        ..      ........................",
"........................       ..       ........................",
".........................      ..        .......................",
".........................     ..          ......................",
"........................     ..            .....................",
".......................     ..             .....................",
"......................     ..               ....................",
"......................     ..                ...................",
".....................     ....                ..................",
"....................     .....                ..................",
"...................     .......                .................",
"..................     .........                ................",
"..................     ..........                ...............",
".................     ...........                ...............",
"................     .............                ..............",
"...............     ...............                .............",
"..............     .................                ............",
".............     ..................                ............",
".............     ...................                ...........",
"............     .....................                ..........",
"...........     .......................                .........",
"..........     ........................                .........",
".........     ..........................                ........",
".........     ...........................                .......",
"........     .............................                ......",
".......     ..............................                ......",
"......     ................................                .....",
".....     ..................................                ....",
".....     ...................................                ...",
"....     ....................................                ...",
"...     ......................................                ..",
"..     ........................................                .",
".     ..........................................                "};
