/* XPM */
static char *x_server[] = {
/* width height ncolors chars_per_pixel */
"32 32 10 1",
/* colors */
"` c black",
"a c wheat",
"b c gainsboro",
"c c grey",
"d c sienna",
"e c dark slate grey",
"f c red",
"g c orange",
"h c white",
"i c slate grey",
/* pixels */
"hhhhhhhhhhhhhhhhhhhhhhhhhhhhhhhh",
"hhhhafffffffahhhhhhhhhafffahhhhh",
"hhhhhafffffffahhhhhhhafffahhhhhh",
"hhhhhhaffffffghhhhhhafffahhhhhhh",
"hhhhhhhaffffffahhhhafffahhhhhhhh",
"hhhhhhhhgffffffahhafffahhhhhhhhh",
"hhhhhhhhafffffffaafffahhhhhhhhhh",
"hhhhhhhhhaffffffafffahhhhhhhhhhh",
"hhhhhhhhhhaffffafffffahhhhhhhhhh",
"hhhhhhhhhhafffafffffffahhhhhhhhh",
"hhhhhhhhhafffahaffffffghhhhhhhhh",
"hhhhhhhhafffahhhaffffffahhhhhhhh",
"hhhhhhhafffahhhhhgffffffahhhhhhh",
"hhhhhhafffahhhhhhafffffffahhhhhh",
"hhhhhafffahhhhhhhhafffffffahhhhh",
"hhhhhhhhhhhhhhhhhhhhhhhhhhhhhhhh",
"````````````````````````````````",
"hibbbcccccccciiiieeeeeeee``````h",
"hh````````````````````````````hh",
"hhhhhhhdggdgdgdhhhhhhdgdhhhhhhhh",
"hhhhhhhhdgdgdgdhhhhhhdgdhhhhhhhh",
"hhhhhhhhdgdgdggdhhhhhdgdhhhhhhhh",
"hhhhhhhhhddggdgggdhdddgdhhhhhhhh",
"hhhhhhhhhhdgggdgggddgddgdhhhhhhh",
"hhhhhhhhhhhddggdggggdgdgdhhhhhhh",
"hhhhhhhhhhhhddgggggggdggdhhhhhhh",
"hhhhhhhhhhhhhhddggggggdgdhhhhhhh",
"hhhhhhhhhhhhhhhhddggggggdhhhhhhh",
"hhhhhhhhhhhhhhhhhhdggggdhhhhhhhh",
"hhhhhhhhhhhhhhhhhhdggggdhhhhhhhh",
"hhhhhhhhhhhhhhhhhe```````hhhhhhh",
"hhhhhhhhhhhhhhhhhe```````hhhhhhh"
};
