/* XPM */
static char *xedit_w_xpm[] = {
/**/
"64 38 12 1",
/**/
" 	s None	c None",
".	c lightskyblue",
"X	c darkslategrey",
"o	c #727277778585",
"O	c lightyellow",
"+	c gray70",
"@	c tan",
"#	c limegreen",
"$	c forestgreen",
"%	c white",
"&	c darkolivegreen",
"*	c gray85",
"                                                            ..XX",
"                                                          ...XX ",
"                   oooo                                 ...XXXX ",
"                  ooOOOoo                          . ....XXXXX  ",
"                 ooOOOOOOo                       ........XXXX   ",
"                ooOOOOOOOOo                     .. ...XXXX+XX   ",
"               ooOOOOOOOOOoo                  ... XX..XXX++XX   ",
"             oooOOOOOO++OOOo                 ...XXX..XXX++XX    ",
"            ooOOOOOOO++OOOOoo             .....XX..XX+++XXX     ",
"           ooOOOOOO+++OOOOOOo            .X..X.X.XX+++XXXX      ",
"         ooOOOOOOO++OOOOOOOOo           ..X.XX..XXXXXXXX        ",
"      oooOOOOOOOO++OOOOOOOOOoo         ..XX.X..XXX+XXXXX        ",
"  oooooOOOOOOOOO++OOOOOOOOOOOo        .X.X.X.XXXX++XX           ",
"  oOOOOOOOOOOOO++OOOOOO+OOOOOo       .XXXX..XXX++XXX            ",
" ooOOOOOOOOO+++OOOOOO+++OOOOOo       .XXX.XXX++XXXXX            ",
" oOOOOOOOOO++OOOOOOOO+OOOOOOOo      ..XX.XX++XXXXXX             ",
" oOooooOOO++OOOO+OOO+OOOOOOOOo      .X.XX++XXXXXXX              ",
" oOo@@ooOOOOOO++OOOO+OOOOOOOOoo    ..XXX+XXXXXXXX               ",
" oOo@@oooOOOO++OOO++OOOO+OOOOOo    .oXXXXX+++XX                 ",
" oOoo@@@ooOO++OOO++OOO++OOOOOOo   o.XX+++++XX                   ",
" oo@@@@@ooOO+OO++OOOOO+OOOOOOOoooooXX+XXXXX                     ",
"  oo@@@@ooOOOO++OOOOOOOOOOOOOOOoo@@X@@@@@o                      ",
"   oo@@oo oOO++OOOOOOOOO+OOOOOoo@@XX@@@@@o                      ",
"     ooo  oOO+OOO+OOOOO++OOOoo@########@@o                      ",
"          oOOOO++OOOO+++OOOoo####$$$$$$$#o                      ",
"          oOOO++OOOO++OOOooo@#%%##$$$$$&&&                      ",
"          oOOO+OOO++OOOOoo@@#%%##$$$$$$$$&&                     ",
"          oOOOOO+OOOOOoo@@@#%%%%###$$$$$$$&$                    ",
"          oOOOO++OOooo@@@@@#%$%######$$$$$&&                    ",
"          ooOOOOooo@@@@@@@@#%########$$$$$$&                    ",
"           oOOOoo@@@@@@@@@@#$########$$$$$&&                    ",
"           oOOOo+oooo@@@@@o#$$######$$$$$$&&                    ",
"           ooOOo+o+++o@@@oo#$$$###$$$$$$$&&&                    ",
"            ooOo+++++o@@@o #$$$$$$$$$$$$&&&$                    ",
"             oOOoo+++o@@o   ##$$#$$$$&&&&&$                     ",
"              oO+++++o@oo    ##&&&&&&&&&&$                      ",
"               oo***o@oo      $$$$$$$$$$$                       ",
"                oooooo        $$$$$$$$$$$                       "};
