/* XPM */
static char * xedit_xpm[] = {
"48 29 12 1",
" 	s None	c None",
".	c lightskyblue",
"X	c darkslategrey",
"o	c #727277778585",
"O	c lightyellow",
"+	c gray70",
"@	c tan",
"#	c white",
"$	c limegreen",
"%	c forestgreen",
"&	c darkolivegreen",
"*	c gray85",
"                                             .XX",
"                                            ..X ",
"              ooooo                   . ...XXX  ",
"             oOOOOOo                 ......XXX  ",
"            ooOOOOOo                ....XXXXXX  ",
"          ooOOOO++OOo             ..XX..XX++X   ",
"         oOOOOOO+OOOoo          ...XX.XX++XX    ",
"        ooOOOO++OOOOOo         ....X.X++XXXX    ",
"    ooooOOOOO+OOOOOOOo       ..X.X.XXXXXXX      ",
"  oooOOOOOOO++OOOOOOOo      .X.XX.XXX+XX        ",
"  OOOOOOOOO++OOOO+OOOo      XXXX.XX++XX         ",
" oOOOOOO++OOOOOOOOOOOo     .XX.X++XXXX          ",
" ooooOOO+OOO+OO+OOOOOo     ..XX+XXXXXX          ",
" oo@ooOOOO++OOO+OOOOOOo   ..XX+XXXXXX           ",
" ooo@@ooO+OOO+OO++OOOOo   .X++++XX              ",
" o@@@@ooO+O++OOO+OOOOOooooXXXXXX                ",
"  o@@@ooOO++OOOOOOOOOOOoo@X@@@@o                ",
"  oo@oo oO+OOOOOOO+OOOoo@@X@@@@o                ",
"       #oOO++OOO++OOoo$$$%%%%%$o                ",
"        oO++OOO+OOOoo@##$$%%%&&&                ",
"        oO+OOO+OOOoo@$#$$%%%%%%&                ",
"       #oOO++Ooo@@@@$##$$$$$%%%%&               ",
"        oOOOoo@@@@@@$#$$$$$$%%%%&               ",
"        oOOoo@@@@@@@$%$$$$$$%%%%&               ",
"        ooOo+o++@@@o$%%$$$%%%%%&&               ",
"         oOo++++@@@o$%%%%%%%%%&&%               ",
"          oOoo++@@o  $%%$%%%&&&&                ",
"           oo**ooo    %%%%%%%%%                 ",
"            oooo      %%%%%%%%%                 "};
