/* XPM */
static char * xemacs-icon_xpm[] = {
"48 48 10 1",
" 	c #FFFFFFFFFFFF",
".	c #618565956185",
"X	c #E79DE38DE79D",
"o	c #CF3CCB2BCF3C",
"O	c #79E77DF779E7",
"+	c #965896589658",
"@	c #492449244924",
"#	c #FFFF00000000",
"$	c #AEBAAEBAAEBA",
"%	c #FFFFFFFF0000",
"                                                ",
"                                            .   ",
"           XXXXXXXXXXXXXXXXXXXXXXXXXXXXXXXXo.   ",
"           XXXXXXXXXXXXXXXXXXXXXXXXXXXXXXXXo.O++",
"           XXXXXXXXXXXXXXXXXXXXXXXXXXXXXXXXo.O++",
"           XXXXXXXXXXXXXXXXXXXXXXXXXXXXXXXXo.O++",
"           XXXXXXXXXXXXXXXXXXXXXXXXXXXXXXXXo.O++",
"           XXXXXXooo..O..OooOOooXXXXXXXXXXXo.O++",
"           XXXXXXXXXXXXXXXXXXXXXXXXXXXXXXXXo.O++",
"       @        @X           @XXXXXXXXXXXXXo.O++",
"  #####@   #####@X ##########@..OooXXXXXXXXo.O++",
"   ####@   ####@XX ##########@XXXXXXXXXXXXXo.O++",
"   #####@ #####@$$ ##########@$$$XXXXXXXXXXo.O++",
"    ####@ ####@$$$ #####@@@@@@$$$OO.OOoXXXXo.O++",
"    ##########@$$% #####@%%%%$%%%%%%%%%%%XXo.O++",
"     ########@$$$% #####@     %%%%%%%%%%%XXo.O++",
"     ########@$$$% ##########@$$$oo%%%%%%XXo.O++",
"      ######@$$$$% ##########@%%%%%%%%%%%XXo.O++",
"     ########@$$$% ##########@%%%%%%%%%%%XXo.O++",
"     ########@$$XX #####@@@@@@$$.OOOooXXXXXo.O++",
"    ##########@$$X #####@$$$$$$$$XXXXXXXXXXo.O++",
"    ####@@####@$$X #####@     $$$XXXXXXXXXXo.O++",
"   #####@ #####@$$ ##########@$$$oooXXXXXXXo.O++",
"   ####@$$ ####@$$ ##########@XXXXXXXXXXXXXo.O++",
"  #####@$$ #####@$ ##########@...OOOOO.XXXXo.O++",
" @@@@@@@$$@@@@@@@$@@@@@@@@@@@@$$$XXXXXXXXXXo.O++",
"     $$$$$$XXX$$$$$$XX$$....$$...OOOOO.XXXXo.O++",
"     $$$$$$XXX$$$$$$XX$$$$$$$$$$$XXXXXXXXXXo.O++",
"           XXXXXXXXXXXXXXXXXXXXXXXXXXXXXXXXo.O++",
"           XXXXXXXXXXXX..oOOO.ooOooXXXXXXXXo.O++",
"           XXXX+#+XXXXXXXXXXXXXXXXXXXXXXXXXo.O++",
"           XXX+###+XXXXXXXXXXXXXXXXXXXXXXXXo.O++",
"           XXX#####oOOOoo.OOOoXXXXXXXXXXXXXo.O++",
"           XXX+###+XXXXXXXXXXXXXXXXXXXXXXXXo.O++",
"           XXXX+#+XXXXXXXXXXXXXXXXXXXXXXXXXo.O++",
"           XXXXXXXXXXXXXXoOO.o$$OOOoXXXXXXXo.O++",
"           XXXXXXXXXXXXXXXXXXXXXXXXXXXXXXXXo.O++",
"           XXXXXXXXXXXXXXXXXXXXXXXXXXXXXXXXo.O++",
"           XXXXXXXXXXXXXXXXXXXXX.OOOoooXXXXo.O++",
"           XXXXXXXXXXXXXXXXXXXXXXXXXXXXXXXXo.O++",
"           XXXXXXXXXXXXXXXXXXXXXXXXXXXXXXXXo.O++",
"           XXXXXXXXXXXXXXXXXXXXXXXXXXXXXXXXo.O++",
"           XXXXXXXXXXXXXXXXXXXXXXXXXXXXXXXXo.O++",
"           ooooooooooooooooooooooooooooooooo.O++",
"          ...................................O++",
"            OOOOOOOOOOOOOOOOOOOOOOOOOOOOOOOOOO++",
"            ++++++++++++++++++++++++++++++++++++",
"            ++++++++++++++++++++++++++++++++++++"};
