/* XPM */
static char *xfm[] = {
/* width height num_colors chars_per_pixel */
"    46    44        5            1",
/* colors */
"  s None c None",
". c white",
"# c black",
"a c gray75",
"c c #808080",
/* pixels */
"                                              ",
"                                              ",
"                  cccccccccccccccccccccc      ",
"                c.....................c#      ",
"              c......................cc#      ",
"            c.......................ccc#      ",
"          c........................cccc#      ",
"          ccccccccccccccccccccccccccccc#      ",
"          caaaaaaaaaaaaaaaaaaaaaaaccccc#      ",
"          ca.....................accccc#      ",
"          ca.aaaaaaaaaaaaaaaaaaa#accccc#      ",
"          ca.aaaaaa......aaaaaaa#accccc#      ",
"          ca.aaaaaa######aaaaaaa#accccc#      ",
"          ca.aaaaaa######aaaaaaa#accccc#      ",
"          ca.aaaaaa######aaaaaaa#accccc#      ",
"          ca.aaaaaaaaaaaaaaaaaaa#accccc#      ",
"          ca.aaaaaaaaaaaaaaaaaaa#accccc#      ",
"          ca.aaaaaaaaaaaaaaaaaaa#accccc#      ",
"          ca.aaaaaaaaaaaaaaaaaaa#accccc#      ",
"          ca.aaaaaaaaaaaaaaaaaaa#accccc#      ",
"          ca.aaaaaaaaaaaaaaaaaaa#accccc#      ",
"          ca.aaaaaaaaaaaaaaaaaaa#accccc#      ",
"          ca.aaaaaaaaaaaaaaaaaaa#accccc#      ",
"          ca#####################accccc#      ",
"          caaaaaaaaaaaaaaaaaaaaaaaccccc#      ",
"          ca.....................accccc#      ",
"          ca.aaaaaaaaaaaaaaaaaaa#accccc#      ",
"          ca.aaaaaa......aaaaaaa#accccc#      ",
"          ca.aaaaaa######aaaaaaa#accccc#      ",
"          ca.aaaaaa######aaaaaaa#accccc#      ",
"          ca.aaaaaa######aaaaaaa#accccc#      ",
"          ca.aaaaaaaaaaaaaaaaaaa#accccc#      ",
"          ca.aaaaaaaaaaaaaaaaaaa#acccc#       ",
"          ca.aaaaaaaaaaaaaaaaaaa#acccc#       ",
"          ca.aaaaaaaaaaaaaaaaaaa#accc#        ",
"          ca.aaaaaaaaaaaaaaaaaaa#accc#        ",
"          ca.aaaaaaaaaaaaaaaaaaa#acc#         ",
"          ca.aaaaaaaaaaaaaaaaaaa#acc#         ",
"          ca.aaaaaaaaaaaaaaaaaaa#ac#          ",
"          ca#####################ac#          ",
"          caaaaaaaaaaaaaaaaaaaaaaa#           ",
"          c########################           ",
"                                              "
"                                              "
};
