/* XPM */
static char *xgrab[] = {
/* width height ncolors chars_per_pixel */
"64 38 7 1",
/* colors */
"` c cyan",
"a c gainsboro",
"b c grey",
"c c red",
"d c white",
"e c slate grey",
"f c lemon chiffon",
/* pixels */
"dddddddddddddddeeeeeeeeeeeeeeeeeeeeeeeeeeeeeeeeeeddddddddddddddd",
"dddddddddddddddeeeeeeeeeeeeeeeeeeeeeeeeeeeeeeeeeeddddddddddddddd",
"dddddddddddddbbeeeeeeeeeeeeeeeeeeeeeeeeeeeeeeeeeebbddddddddddddd",
"ddddddddddddbfbeee````````````````````````````eeebfbdddddddddddd",
"dddddddddddbbfbeee`aaaaaaaaaaaaaaaaaaaaaaaaaa`eeebfbbddddddddddd",
"dddddddddddbffbeee`addddddaaaaaaaaaaaaaaaaaaa`eeebffbddddddddddd",
"ddddddddddbffbbeee`addddaaaaaaaaaaaaaaaaaaaaa`eeebbffbdddddddddd",
"ddddddddddbffbdeee`addaaaaaaaaaaaaaaaaaaaaaaa`eeedbffbdddddddddd",
"dddddddddbbffbdeee`acccccccaaaaaaaaaaaaacaaaa`eeedbffbbddddddddd",
"dddddddddbfffbdeee`adcccccccaaaaaaaaaaacaaaaa`eeedbfffbddddddddd",
"dddddddddbffbddeee`adacccccccaaaaaaaaacaaaaaa`eeeddbffbddddddddd",
"ddddddddbfffbddeee`adaacccccccaaaaaaacaaaaaaa`eeeddbfffbdddddddd",
"ddddddddbfffbddeee`aaaaacccccccaaaaacaaaaaaaa`eeeddbfffbdddddddd",
"dddddddbffffbbbeee`aaaaaacccccccaaacaaaaaaaaa`eeebbbffffbddddddd",
"ddddddbbfffbbbfeee`aaaaaaacccccaaacaaaaaaaaaa`eeefbbbfffbbdddddd",
"ddddddbffffbfffeee`aaaaaaaacccaaacaaaaaaaaaaa`eeefffbffffbdddddd",
"dddddbbffffbffbeee`aaaaaaaaacaaacccaaaaaaaaaa`eeebffbffffbbddddd",
"dddddbfffffbfbdeee`aaaaaaaacaaacccccaaaaaaaaa`eeedbfbfffffbddddd",
"ddddbbffffbfbbdeee`aaaaaaacaaacccccccaaaaaaaa`eeedbbfbffffbbdddd",
"ddddbfffffbfbddeee`aaaaaacaaaaacccccccaaaaaaa`eeeddbfbfffffbdddd",
"dddbbfffffbbdddeee`aaaaacaaaaaaacccccccaaaaaa`eeedddbbfffffbbddd",
"dddbffffffbbdddeee`aaaacaaaaaaaaacccccccaaaaa`eeedddbbffffffbddd",
"dddbffffffbbdddeee`aaacaaaaaaaaaaacccccccaaaa`eeedddbbffffffbddd",
"dddbffffffbddddeee`aacaaaaaaaaaaaaacccccccaaa`eeeddddbffffffbddd",
"dddbffffffbddddeee`aaaaaaaaaaaaaaaaaaaaaaaaaa`eeeddddbffffffbddd",
"dddbffffffbddddeee`aaaaaaaaaaaaaaaaaaaaaaaaaa`eeeddddbffffffbddd",
"ddbbffffffbddddeee`aaaaaaaaaaaaaaaaaaaaaaaaaa`eeeddddbffffffbbdd",
"ddbfffffffbddddeee````````````````````````````eeeddddbfffffffbdd",
"ddbfffffffbbdddeeeeeeeeeeeeeeeeeeeeeeeeeeeeeeeeeedddbbfffffffbdd",
"ddbffffffffbbbdeeeeeeeeeeeeeeeeeeeeeeeeeeeeeeeeeedbbbffffffffbdd",
"ddbfffffffffffbbbaeeeeeeeeeeeeeeeeeeeeeeeeeebbbbbbfffffffffffbdd",
"dbbffffffffffffffbbbbbbeeeeeeeeeeeeeeeebbbbbbfffffffffffffffffbd",
"dbffffffffffffffffffffbbbeeeeeeeeeeeeeebffffffffffffffffffffffbd",
"bfffffffffffffffffffffffbbddddddddddddbbffffffffffffffffffffffbd",
"fffffffffffffffffbbbbbffbbddddddddddddbbffbbbbbffffffffffffffffb",
"fffffffffffffffbbbddddbbbddddddddddddddbbbddddbbbfffffffffffffff",
"ffffffffffffffbbddddddddddddddddddddddddddddddddbbbbbfffffffffff",
"ffffffffffffffbdddddddddddddddddddddddddddddddddddddbfffffffffff"
};
