/* XPM */
static char * xhelp_index_xpm[] = {
/* width height num_colors chars_per_pixel */
"36 36 8 1",
/* colors */
" 	c #bebebe",
".	c #2f4f4f",
"X	c #e6e6fa",
"o	c yellow2",
"O	c black",
"+	c #000080",
"@	c #0000ff",
"#	c #708090",
/* pixels */
"                                    ",
" .................................X ",
" .ooooooooooooooooooooooooooooooooX ",
" .ooooooooooooooooooooooooooooooooX ",
" .ooooooooooooooooooooooooooooooooX ",
" .ooooooooooooooooooooooooooooooooX ",
" .ooooooooooooooooooooooooooooooooX ",
" .oooooooooooOOOo+++oOOOOOOOOOOoooX ",
" .ooooooooooO   @@@@@          OooX ",
" .oooooooooOOOOOOOOOO +++ OOO  O##X ",
" .ooooooooO          @@@@@   O O##X ",
" .oooooooOOOOOO +++ OOOOOOO  O O##X ",
" .ooooooO      @@@@@       O O O##X ",
" .oooooOO +++ OOOOOOOOOOO  O O O##X ",
" .ooooO  @@@@@           O O O O##X ",
" .oooOOOOOOOOOOOOOOOOOO  O O O O##X ",
" .ooO                  O O O O O##X ",
" .ooO  OOOOOOOOOO      O O O O O##X ",
" .ooO                  O O O O O##X ",
" .ooO  OOOOOOOOOOO     O O O O O##X ",
" .ooO                  O O O O@+##X ",
" .ooO  OOOOOOOOO       O O O O+###X ",
" .ooO                  O O O@+####X ",
" .ooO                  O O O+####oX ",
" .o++++++++++++++++O   O O@+####ooX ",
" .O@@@@@@@@@@@@@@@@O+  O O+####oooX ",
" .OOOOOOOOOOOOOOOOOO++ O@+####ooooX ",
" .oo@@@@@@@@@@@@@@@@@@@@+####oooooX ",
" .ooo+++++++++++++++++++####ooooooX ",
" .oooo#####################oooooooX ",
" .ooooo###################ooooooooX ",
" .ooooooooooooooooooooooooooooooooX ",
" .ooooooooooooooooooooooooooooooooX ",
" .ooooooooooooooooooooooooooooooooX ",
" XXXXXXXXXXXXXXXXXXXXXXXXXXXXXXXXXX ",
"                                    "};
