/* XPM */
static char * xhelp_forward_xpm[] = {
/* width height num_colors chars_per_pixel */
"36 36 8 1",
/* colors */
" 	c #bebebe",
".	c #2f4f4f",
"X	c #e6e6fa",
"o	c yellow2",
"O	c black",
"+	c #000080",
"@	c #2e8b57",
"#	c #0000ff",
/* pixels */
"                                    ",
" .................................X ",
" .ooooooooooooooooooooooooooooooooX ",
" .ooooooooooooooooooooooooooooooooX ",
" .ooooooooooooooooooooooooooooooooX ",
" .ooooooooooooooooooooooooooooooooX ",
" .ooooooooooooooooooooooooooooooooX ",
" .ooooooooooooooooooooooooooooooooX ",
" .ooooooooooooooooooooooooooooooooX ",
" .oooooooooooooooooooooOooooooooooX ",
" .oooooooooooooooooooooOOoooooooooX ",
" .oooooooooooooooooooooO+OooooooooX ",
" .oooooooooooooooooooooO++OoooooooX ",
" .oooooooooooooooooooooO+++OooooooX ",
" .ooOOOOOOOOOOOOOOOOOOOO++++OoooooX ",
" .ooO@@OO############+#+#++++OooooX ",
" .ooO@@@@O##########+#+#++++++OoooX ",
" .ooO@@@@@O##########+#+#++++++OooX ",
" .ooO@@@@@O#########+#+#+++++++OooX ",
" .ooO@@@@@@O#########+#+#+++++OoooX ",
" .ooO@@@@@@@OO######+#+#+++++OooooX ",
" .ooOOOOOOOOOOOOOOOOOOOO#+++OoooooX ",
" .oooooooooooooooooooooO+++OooooooX ",
" .oooooooooooooooooooooO++OoooooooX ",
" .oooooooooooooooooooooO+OooooooooX ",
" .oooooooooooooooooooooOOoooooooooX ",
" .oooooooooooooooooooooOooooooooooX ",
" .ooooooooooooooooooooooooooooooooX ",
" .ooooooooooooooooooooooooooooooooX ",
" .ooooooooooooooooooooooooooooooooX ",
" .ooooooooooooooooooooooooooooooooX ",
" .ooooooooooooooooooooooooooooooooX ",
" .ooooooooooooooooooooooooooooooooX ",
" .ooooooooooooooooooooooooooooooooX ",
" XXXXXXXXXXXXXXXXXXXXXXXXXXXXXXXXXX ",
"                                    "};
