/* XPM */
static char * xhelp_exclaim_xpm[] = {
/* width height num_colors chars_per_pixel */
"36 36 6 1",
/* colors */
" 	c #bebebe",
".	c #2f4f4f",
"X	c #e6e6fa",
"o	c #ff0000",
"O	c #ffff00",
"+	c black",
/* pixels */
"                                    ",
" .................................X ",
" .                                X ",
" .                                X ",
" .              ooo               X ",
" .             ooooo              X ",
" .             ooOoo..            X ",
" .            ooOOOoo..           X ",
" .            ooOOOoo..           X ",
" .           ooOOOOOoo..          X ",
" .           ooOOOOOoo..          X ",
" .          ooOO+++OOoo..         X ",
" .          ooO+++++Ooo..         X ",
" .         ooOO+++++OOoo..        X ",
" .         ooOO+++++OOoo..        X ",
" .        ooOOO+++++OOOoo..       X ",
" .        ooOOO+++++OOOoo..       X ",
" .       ooOOOO+++++OOOOoo..      X ",
" .       ooOOOO+++++OOOOoo..      X ",
" .      ooOOOOO+++++OOOOOoo..     X ",
" .      ooOOOOOO+++OOOOOOoo..     X ",
" .     ooOOOOOOO+++OOOOOOOoo..    X ",
" .     ooOOOOOOO+++OOOOOOOoo..    X ",
" .    ooOOOOOOOO+++OOOOOOOOoo..   X ",
" .    ooOOOOOOOOOOOOOOOOOOOoo..   X ",
" .   ooOOOOOOOOO+++OOOOOOOOOoo..  X ",
" .   ooOOOOOOOO+++++OOOOOOOOoo..  X ",
" .  ooOOOOOOOOO+++++OOOOOOOOOoo.. X ",
" .  ooOOOOOOOOOO+++OOOOOOOOOOoo.. X ",
" . ooOOOOOOOOOOOOOOOOOOOOOOOOOoo..X ",
" . ooooooooooooooooooooooooooooo..X ",
" .  ooooooooooooooooooooooooooo...X ",
" .    ........................... X ",
" .                                X ",
" XXXXXXXXXXXXXXXXXXXXXXXXXXXXXXXXXX ",
"                                    "};
