/* XPM */
static char * xhelp_backward_xpm[] = {
/* width height num_colors chars_per_pixel */
"36 36 8 1",
/* colors */
" 	c #bebebe",
".	c #2f4f4f",
"X	c #e6e6fa",
"o	c yellow2",
"O	c black",
"+	c #000080",
"@	c #0000ff",
"#	c #2e8b57",
/* pixels */
"                                    ",
" .................................X ",
" .ooooooooooooooooooooooooooooooooX ",
" .ooooooooooooooooooooooooooooooooX ",
" .ooooooooooooooooooooooooooooooooX ",
" .ooooooooooooooooooooooooooooooooX ",
" .ooooooooooooooooooooooooooooooooX ",
" .ooooooooooooooooooooooooooooooooX ",
" .ooooooooooooooooooooooooooooooooX ",
" .ooooooooooOoooooooooooooooooooooX ",
" .oooooooooOOoooooooooooooooooooooX ",
" .ooooooooO+OoooooooooooooooooooooX ",
" .oooooooO++OoooooooooooooooooooooX ",
" .ooooooO+++OoooooooooooooooooooooX ",
" .oooooO+++@OOOOOOOOOOOOOOOOOOOOooX ",
" .ooooO+++++@+@+@@@@@@OO#######OooX ",
" .oooO+++++@+@+@@@@@@@@@O######OooX ",
" .ooO+++++++@+@+@@@@@@@@@O#####OooX ",
" .ooO++++++@+@+@+@@@@@@@@O#####OooX ",
" .oooO++++++@+@+@@@@@@@@@@O####OooX ",
" .ooooO++++@+@+@+@@@@@@@@@@OO##OooX ",
" .oooooO++++OOOOOOOOOOOOOOOOOOOOooX ",
" .ooooooO+++OoooooooooooooooooooooX ",
" .oooooooO++OoooooooooooooooooooooX ",
" .ooooooooO+OoooooooooooooooooooooX ",
" .oooooooooOOoooooooooooooooooooooX ",
" .ooooooooooOoooooooooooooooooooooX ",
" .ooooooooooooooooooooooooooooooooX ",
" .ooooooooooooooooooooooooooooooooX ",
" .ooooooooooooooooooooooooooooooooX ",
" .ooooooooooooooooooooooooooooooooX ",
" .ooooooooooooooooooooooooooooooooX ",
" .ooooooooooooooooooooooooooooooooX ",
" .ooooooooooooooooooooooooooooooooX ",
" XXXXXXXXXXXXXXXXXXXXXXXXXXXXXXXXXX ",
"                                    "};
