/* XPM */
static char * xhelp_search_xpm[] = {
/* width height num_colors chars_per_pixel */
"36 36 8 1",
/* colors */
" 	c #bebebe",
".	c #2f4f4f",
"X	c #e6e6fa",
"o	c yellow2",
"O	c black",
"+	c #708090",
"@	c #dcdcdc",
"#	c #87ceeb",
/* pixels */
"                                    ",
" .................................X ",
" .ooooooooooooooooooooooooooooooooX ",
" .ooooooooooooooooooooooooooooooooX ",
" .ooooooooooooooooooooooooooooooooX ",
" .oooooooooOOOOoooooooooooooooooooX ",
" .ooooooOO++++++OOooooooooooooooooX ",
" .oooooO+++OOOO+++OoooooooooooooooX ",
" .ooooO++OOooooOO++OooooooooooooooX ",
" .oooO++OooooooooO++OoooooooooooooX ",
" .oooO@OoooOooooooO+OoooooooooooooX ",
" .ooO@@OooO#OoooooO++OooooooooooooX ",
" .ooO@OooO##OooooooO+OooooooooooooX ",
" .ooO@OoO##OoooooooO+OooooooooooooX ",
" .ooO@OoO#OooooooooO+OooooooooooooX ",
" .ooO@OooOoooooooooO+OooooooooooooX ",
" .ooO@OooooooooooooO+OooooooooooooX ",
" .ooO@@OooooooooooO++OooooooooooooX ",
" .oooO@OooooooooooO@OoooooooooooooX ",
" .oooO@@OooooooooO@@OoooooooooooooX ",
" .ooooO@@OOooooOO@@OOoooooooooooooX ",
" .oooooO@@@OOOO@@@O@+OooooooooooooX ",
" .ooooooOO@@@@@@OOO@@+OoooooooooooX ",
" .ooooooooOOOOOOoooO@@+OooooooooooX ",
" .ooooooooooooooooooO@@+OoooooooooX ",
" .oooooooooooooooooooO@@+OooooooooX ",
" .ooooooooooooooooooooO@@+OoooooooX ",
" .oooooooooooooooooooooO@@+OooooooX ",
" .ooooooooooooooooooooooO@@+OoooooX ",
" .oooooooooooooooooooooooO@@+OooooX ",
" .ooooooooooooooooooooooooO@@OooooX ",
" .oooooooooooooooooooooooooOOoooooX ",
" .ooooooooooooooooooooooooooooooooX ",
" .ooooooooooooooooooooooooooooooooX ",
" XXXXXXXXXXXXXXXXXXXXXXXXXXXXXXXXXX ",
"                                    "};
