/* XPM */
static char * xlab_xpm[] = {
"120 38 6 1",
" 	s None	c None",
".	c #dcdcdc",
"X	c white",
"o	c #bebebe",
"O	c red3",
"+	c red",
"                                                                                                                        ",
"                                                                                                                        ",
"                                                                                                                        ",
"                                                                                                                        ",
"                                                                                                                        ",
"                      ............              .....                                                                   ",
"                    .........XX....           .....o                                                                    ",
"                  .........XX.......        .....oo                                                                     ",
"                .........XX..........     .....ooo                                              OO+++                   ",
"              .........XX.............  .....oooo                                             +++++++                   ",
"            .........XX....................ooooo    +++++++++++                              ++++++++                   ",
"           ++++++++++................+++.oooooo     +++++++++++                              ++++++++                   ",
"            ++++++++++..............+++ooooooo       O++++++O                                  O+++++                   ",
"             ++++++++++............+++ooooooo         ++++++                                   ++++++                   ",
"              ++++++++++..........+++ooooooo          ++++++                                   +++++O                   ",
"               ++++++++++........+++ooooooo          O+++++O                                   +++++O                   ",
"                ++++++++++......+++oooooo...         O+++++O                 +++++++O O+++    O+++++   O++++            ",
"                 ++++++++++....+++oooooo.....        ++++++                +++++++++++++++    O+++++ O+++++++           ",
"                  ++++++++++..+++ooooo........       ++++++               ++++++OO+++++++O    ++++++++++++++++          ",
"                   +++++++++.+++oooo...........      ++++++              +++++O   O++++++     +++++++++++++++++         ",
"                    +++++++o+++ooo..............    O+++++O             +++++O     ++++++     ++++++    +++++++         ",
"                     +++++o++++oo................   O+++++O            ++++++      ++++++     +++++      ++++++         ",
"                      +++o++++++..................  ++++++            O+++++O      ++++++    O+++++      ++++++         ",
"                     +++o++++++++.................. ++++++            ++++++       +++++O    O+++++      ++++++         ",
"                    +++o++++++++++..................++++++            ++++++      O+++++O    ++++++      ++++++         ",
"                   +++ooo++++++++++.................++++++            ++++++      ++++++     ++++++     O+++++          ",
"                  +++ooooo++++++++++...............O+++++O      +++   ++++++     O++++++     +++++O     ++++++          ",
"                 +++ooooooo++++++++++..............O+++++O     O+++   ++++++     O++++++     +++++O    O+++++           ",
"                +++ooooooo  ++++++++++.............++++++      ++++   +++++++   O+++++++     +++++     ++++++           ",
"               +++oooooo     ++++++++++........... ++++++      +++O   ++++++++++++++++++  O+++++++    O+++++            ",
"              +++ooooo        ++++++++++........  O++++++O    O+++O    ++++++++++ ++++++++++++++++O  ++++++             ",
"             +++oooo           ++++++++++.....  ++++++++++++++++++      ++++++++  ++++++++++++++++++++++++              ",
"            +++ooo              ++++++++++..    ++++++++++++++++++       ++++OO    ++++++O    O++++++++O                ",
"           +++oo                                                                                                        ",
"                                                                                                                        ",
"                                                                                                                        ",
"                                                                                                                        ",
"                                                                                                                        "};
