/* XPM */
static char * xmag_xpm[] = {
/* width height ncolors chars_per_pixel */
"32 32 7 1",
/* colors */
" 	s None	c None",
".	c black",
"X	c grey",
"o	c lightblue",
"O	m gray	c red",
"+	c #5f9ea0",
"@	c yellow",
/* pixels */
"                                ",
"                                ",
"                                ",
"         ......                 ",
"       ..XXXXXX..               ",
"  .   .XXX....XXX.              ",
"   . .XX..oooo..XX.             ",
"    .XX.ooo..o.X.XX.            ",
"    .X.ooooo......X.            ",
"   .XX..ooo..OOO+.XX. .         ",
"   .X.o....OOO+OOO.X..          ",
"   .X.oo...+O+++O+.X.O..        ",
"   .X.o....++O+O++.X.O++.       ",
"   .X.oo...+OOOOO+.X.+..        ",
"   .X.o....OOO+OOO.X..          ",
"   .XX..ooo..+++O.XX. .         ",
"    .X.ooooo......X.            ",
"    .XX.ooo..o.X.XX.            ",
"   . .XX..oooo..XX..            ",
"  .   .XXX....XXX.XX.           ",
"       ..XXXXXX...XXX.          ",
"         ......   .XXX.         ",
"                   .XXX.        ",
"                    .XXX.       ",
"                     .XX@.      ",
"                      .@@@.     ",
"                       .@@@.    ",
"                        .@XX.   ",
"                         .XX.   ",
"                          ..    ",
"                                ",
"                                "};
