/* XPM */
static char * xmail_xpm[] = {
/* width height ncolors chars_per_pixel */
"64 128 8 1",
/* colors */
" 	s None	c None",
".	c black",
"X	c lavender",
"o	c lemon chiffon",
"O	c blue",
"+	c red",
"@	c burlywood1",
"#	c wheat",
/* pixels */
"                                                                ",
" .XXXXXXXXXXXXXXXXXXXXXXXXXXXXXXXXXXXXXXXXXXXXXXXXXXXXXXXXXXXX. ",
" XXXXXXXXXXXXXXXXXXXXXXXXXXXXXXXXXXXXXXXXXXXXXXXXXXXXXXXXXXXX.. ",
" XX.XXXXXXXXXXXXXXXXXXXXXXXXXXXXXXXXXXXXXXXXXXXXXXXXXXXXXXXX... ",
" XXX.X.X.X.X.X.X.X.X.X.X.X.X.X.X.X.X.X.X.X.X.X.X.X.X.X.X.X.X... ",
" XXXX.X.X.X.X.X.X.X.X.X.X.X.X.X.X.X.X.X.X.X.X.X.X.X.X.X.X.X.... ",
" XXX.X.XXXXXXXXXXXXXXXXXXXXXXXXXXXXXXXXXXXXXXXXXXXXXXXXX.X.X... ",
" XXXX.XXX..XXX..XX....XX..X..XXXXX.....XXX....XX..XX..XX..X.... ",
" XXX.X.XX...X...X..XX..X..X..XXXXX..XX..X..XX..X...X..XX.X.X... ",
" XXXX.XXX..X.X..X......X..X..XXXXX.....XX..XX..XXX..XXXX..X.... ",
" XXX.X.XX..XXX..X..XX..X..X..XXXXX..XX..X..XX..X..X...XX.X.X... ",
" XXXX.XXX..XXX..X..XX..X..X......X.....XXX....XX..XX..XX..X.... ",
" XXX.X.XXXXXXXXXXXXXXXXXXXXXXXXXXXXXXXXXXXXXXXXXXXXXXXXX.X.X... ",
" XXXX.X...................................................X.... ",
" XXX.X.................o.........ooooOOOoooooo...........X.X... ",
" XXXX.X...............ooo.......ooooooOoooooooo...........X.... ",
" XXX.X.X.X.X.X.X.X.X.ooooo.X.X.ooooooooooooooooo.X.X.X.X.X.X... ",
" XXXX.X.X.X.X.X.X.X.ooooooo.X.ooooooo.ooooooooo.X.X.X.X.X.X.... ",
" XX................ooooooooo..oooooo.ooooooooo................. ",
" X................ooooooooooo..oooo.oo.oo.ooo.................. ",
" ................oooo.oooooooo..oo.oo.oo.ooo................... ",
"               .oooooo.oooooooo...oo.oo.ooo. . .                ",
"              .ooooo.oo.oooooooo..o.oo.ooo. . .                 ",
"              .ooo.oo.oo.oooooooo..oo.ooo. . .                  ",
"               .ooo.oo.oo.oooooooo...ooo. . .                   ",
"                .ooo.oo.ooooooooooo..oo. . .                    ",
"                 .ooo.oo.oo.ooooo+oo... . .                     ",
"                  .ooo.oo.oo.ooo+++oo. . .                      ",
"                   .oooooo.oo.o+++++oo. .                       ",
"                    .ooo.oo.oooo+++ooo..                        ",
"                     .ooo.ooooooo+ooo. .                        ",
"                      .ooo.ooooooooo.o. .         .             ",
"                       .ooooooooooo.o.o.         .o.            ",
"                        .ooooooooo.o.+.o.       .ooo.           ",
"                         .ooooooo.o.+.++o.     .ooooo.          ",
"                          .ooooo.o.+.++ooo.   .ooOOooo.         ",
"                           .ooo.o.o.++ooooo. .ooOOOOooo.        ",
"                            .o.o.o.o+ooooooo.oooOOOooooo.       ",
"     .....................  ..o.o.ooooooooo.oooooOooooooo.      ",
"     .ooooooooooooooooooo. .oo.o.ooooooooo.ooooooooooooooo.     ",
"     .oooooooooooooooOOOo..oooo.ooooooooo.ooooooooooooooo. .    ",
"     .oooooooooooooooOOOo.ooooooooo.oooo.ooooooooooo.ooo. . .   ",
"     .oooooooooooooooOOO.ooooooooo.oooo.ooooo.oo.oo.ooo. . . .  ",
"     .ooooooooooooooooo.ooooooooo.oooo.ooooo.oo.oo.ooo. . . . . ",
"     .oo........oooooooo.ooooooo.oo.o.ooooo.oo.oo.ooo. . . . .  ",
"     .ooooooooooooooooooo.ooooo.oo.o.ooooo.oo.oooooo. . . . .   ",
"     .oo.....o....ooooooo..ooo.oo.o.ooooo.oo.oo.ooo. . . . .    ",
"     .ooooooooooooooooooo...oooo.o.ooooo.oo.oo.ooo. . . . .     ",
"     .oo...........oooooo. ..oo.ooo.oooooo.oo.ooo. . . . .      ",
"     .ooooooooooooooooooo..  .ooooo..ooooooo.ooo. . . . .       ",
"     ..................... .  .ooo. ..ooooo.ooo. . . . .        ",
"      . . . .o.o.o.o.o.o. .    .o. . ..ooooooo. . . . .         ",
"       . . ...o.o.o.o.o... .    . . . ..ooooo. . . . .          ",
"            .ooooooooooo.        . . .  .ooo. . . . .           ",
"            .ooooooooooo..        . .    .o. . . . .            ",
"            .ooooooooooo.          .      . . . . .             ",
"            .o.o.o.ooooo..                 . . . .              ",
"            .o.o.o.ooooo.                   . . .               ",
"            .o.o.o.ooooo..             ..    . .                ",
"            .o.o.o.ooooo.             .oo.    .                 ",
"            .o.o.ooooooo..           .oooo.                     ",
"            .o.o.ooooooo.           .oooooo.     ..             ",
"            .o.ooooooooo..         .ooo.oooo.   .@@.            ",
"            .ooooooooooo.         .ooo.oooooo. .@@@@.           ",
"            .ooooooooooo..       .ooo.oo.ooooo.@@@@@@.          ",
"            .ooooooo+++o.       .ooo.oo.oo.oo.@@@@@@@@.         ",
"            .ooooooo+++o..     .ooo.oo.oo.oo.@@@@@@@@.@.        ",
"            .oooooo.+++o.     .oooooo.oo.oo.@.@@@@@@.@@@.       ",
"            .ooooo.o.ooo..   .ooo.oo.oo.oo.@@@.@@@@.@@@@@.      ",
"            ......ooo....   .ooo.oo.oo.oo.@@@@@.@@.@@@+@@@.     ",
"              . .ooooo.. . .ooo.oo.ooooo.@@@@@@...@@@+++@@@.    ",
"               .ooooooo.. .oooooo.oo.oo.@@@@@@@@..@@+++@@@..    ",
"              .ooooooooo..ooooooooo.oo.@@@@@@@@.@@.@@+@@@.@.    ",
"             .ooooooooooo.oooooooo.ooo..@@@@@@.@@@@.@@@@.@..    ",
"            .ooo.ooooooooo.ooooooooooo.@.@@@@.@@@@@@.@@.@.@.    ",
"           .oo.oo.ooooooooo.oooooo+ooo..@.@@.@@@@@@@@..@.@..    ",
"          .oooo.oo.ooooooooo.oooo+++oo.@.@..@@@@@@@@@...@.. .   ",
"           .oooo.oo.ooooooooo.oo+++++oo.@...@@@@@@@@.@.@.. . .  ",
"            .oo.#.oo.ooooooOoo.oo+++oo. .@.@.@@@@@@.@.... . . . ",
"             ..o.#.oo.ooooOOOoo.oo+oo. . ...@.@@@@.@.@.. . . . .",
"             .ooo.ooooooooOOOOoo.ooo. .   .@.@.@@.@.@.. . . . . ",
"            .ooooo.ooooooooOOOoo..o. .     .@.@..@.@.. . . . .  ",
"           .ooooooo.ooooooooOoo. .. .       .@.@..@.. . . . .   ",
"          .ooooooooo.ooooooooo. .  .         .@..@.. . . . .    ",
"         .ooooo.ooooo.ooooooo. .              .@... . . . .     ",
"        .ooooooo.ooooo.ooooo. .                ... . . . .      ",
"       .oooooo.oo.ooooo.ooo. .                  . . . . .       ",
"        .ooo.oo.oo.ooooo.o. .                    . . . .        ",
"         .ooo.oo.oo.ooooo. .                      . . .         ",
"          .ooo.oo.oo.ooooo.............            . .          ",
"           .ooo.oo.oooooooo.oooooooooo..            .           ",
"            .ooo.oo.oooooo+o.oooooOOOo. .                       ",
"             .oooooo.oooo+++o.ooooOOOo..                        ",
"              .ooo.ooooo+++++o.oooOOOo. .                       ",
"               .ooo.ooooo+++oo.ooooooo..                        ",
"                .ooo.ooooo+oo.o.oooooo. .                       ",
"                 .ooo.oooooo.o.ooooooo..                        ",
"                  .oooooooo.o..ooooooo. .                       ",
"                   .oooooo.o.o.ooooooo..                        ",
"                    .oooo....o.o.ooooo. .                       ",
"                     .oo...o.o.o.ooooo..                        ",
"                      ... .o.ooo.ooooo. .                       ",
"                       . ..o.o.o.ooooo..                        ",
"                        . .o.o.o.ooooo. .                       ",
"                          .o.o.o.ooooo..                        ",
"                          .o.o.o.ooooo. .                       ",
"                          .o.o.o.ooooo..                        ",
"                         ..ooooooooooo. .                       ",
"                        .o.ooooooooooo..                        ",
"                       .oo............. .                       ",
"                      .oooo.o.o.o. . . .                        ",
"                     .ooo.oooooooo. . . .                       ",
"                    .ooo.ooo.oooooo. . .                        ",
"                   .ooo.ooo.ooo.oo. .                           ",
"                  .ooo.ooo.ooo.oo. .                            ",
"                 .ooOoooo.ooo.oo. .                             ",
"                .ooOOOoo.ooo.oo. .                              ",
"               .ooOOOOo.ooo.oo. .                               ",
"               .ooOOOooooo.oo. .                                ",
"                .ooOooooo.oo. .                                 ",
"                 .ooooooooo. .                                  ",
"                  .ooooooo. .                                   ",
"                   .ooooo. .                                    ",
"                    .ooo. .                                     ",
"                     .o. .                                      ",
"                      . .                                       ",
"                       .                                        ",
"                                                                "};
