/* XPM */
static char * xmosaic_xpm[] = {
"35 31 5 1",
" 	s None	c None",
".	c #252524244A4A",
"X	c #31311F1FB3B3",
"o	c #71717F7FCACA",
"O	c #9F9F87876262",
"                          ....     ",
"                         ...X..    ",
"        ..XXXXXXXXXXXXXooX..o..    ",
"      XXX......................    ",
"      X..                 ....     ",
"     .X.                   ..      ",
"     X.                            ",
"    XX.         XXX                ",
"    .X       OXOOXXXX              ",
"    .X      ..OOOXXXX.             ",
"     XX    ..OOOOXXXXXXX           ",
"     .X   ...OOoXXXXXXXX           ",
"      .X  ..XXOOOoXOOOoXX          ",
"       .X....XXXXXXOOOOO.          ",
"         ....XXXXXXOOOOOX          ",
"         ....XXXXXXOOOOO.          ",
"         .....XXXXXXXOO...X        ",
"          ....XXXXXXXOOX. .oX      ",
"          .....XXXXXXOX.   .o      ",
"           ....XXXXXXO..    ..     ",
"            .........X      .X     ",
"             ........       .X     ",
"                ...         .X     ",
"                           .X.     ",
"      .                    .X.     ",
"    .....                ..X.      ",
"    ..X..................XX.       ",
"    ..o..XXXXXXXXXXXXXX...         ",
"    .....                          ",
"     ...                           ",
"                                   "};
