/* XPM */
static char * xmosaic_w_xpm[] = {
"50 46 6 1 0 0",
" 	s None	c None",
".	c gray50",
"X	c #252524244A4A",
"o	c #31311F1FB3B3",
"O	c #71717F7FCACA",
"+	c #9F9F87876262",
"                                                  ",
"                                                  ",
"                                    .......       ",
"                                    .XXXXX..      ",
"              .......................XXXXXX..     ",
"            ...oooooXXXXXXXXXXXXXXXXXXXXOoXX.     ",
"           ..XXooXXXoXooXXoooooooOOOoXXXOXXX.     ",
"         ...XooooXXXXXXXXXXXXXXXXXXXXXXXXXXX.     ",
"         .XoXXXXX...................XXXXXXXX.     ",
"       ...ooXXX...                 ..XXXXXX..     ",
"       .oXoX....                    ...XX...      ",
"       .XoXX.                         ....        ",
"      ..XXX..       ...........                   ",
"      .XXo..       ..XXXXooooo..                  ",
"      .XXX.      ...XX+++ooXooo..                 ",
"      .XXo.     ..XX+++++ooooooX..                ",
"      .oXO..   ..XX++++++oooooooo...              ",
"      ..XXX..  .XXX++++OoooooooooXo.              ",
"       ..Xoo. ..XXX+++Ooooooooooooo.              ",
"        .XOX...XXXX+++XoOooooOOOoXo.              ",
"        ..XXOXOXXXoooXXXXOO+++++++X..             ",
"         ...XooXXXXoooooooo+++++++XX.             ",
"          .....XXXXXoooooooO++++++XX.             ",
"              .XXXXXoooooooo++++++XX..            ",
"              .XXXXXooooooooX+++++XXX....         ",
"              .XXXXXoooooooooo+++Xo.XXOX..        ",
"              .XXXXXXooooooooo+++XX..XXOo..       ",
"              ..XXXXXXooooooooX+XXX....XOo.       ",
"               .XXXXXXooooooooX+XXX.  ..XO.       ",
"               ..XXXXXoooooooXX+XX..   .XO..      ",
"                ..XXXXXXXXXXXXXo...    .XXo.      ",
"                 ..XXXXXXXXXXXXX.      .Xoo.      ",
"                  ...XXXXXXXXX...      .XXo.      ",
"                    ...XXXX....       ..XXo.      ",
"         ....         ......         ..XoX..      ",
"       ...XX..                      ..XXoo.       ",
"      ..XXXXX...                 ....XXXoX.       ",
"      .XXXXXXXX...................XXXoooX..       ",
"      .XXXXXXXXXXXXXXXXXXXXXXXXXXXXoXXXX..        ",
"      .XXXOOXXoooooXXXXXXXXXXXXooXXXX....         ",
"      .XXXXXXXXXXXXXXXXXXXXXXXXoooo...            ",
"      .XXXXXXXX.....................              ",
"      ..XXXXX...                                  ",
"       ...XX..                                    ",
"         ....                                     ",
"                                                  "};
