/* XPM */
static char * box_none_xpm[] = {
/* width height ncolors chars_per_pixel */
"64 64 3 1",
/* colors */
" 	s None	c None",
".	c black",
"X	c lavender",
/* pixels */
"                                                                ",
" .XXXXXXXXXXXXXXXXXXXXXXXXXXXXXXXXXXXXXXXXXXXXXXXXXXXXXXXXXXXX. ",
" XXXXXXXXXXXXXXXXXXXXXXXXXXXXXXXXXXXXXXXXXXXXXXXXXXXXXXXXXXXX.. ",
" XX.XXXXXXXXXXXXXXXXXXXXXXXXXXXXXXXXXXXXXXXXXXXXXXXXXXXXXXXX... ",
" XXX.X.X.X.X.X.X.X.X.X.X.X.X.X.X.X.X.X.X.X.X.X.X.X.X.X.X.X.X... ",
" XXXX.X.X.X.X.X.X.X.X.X.X.X.X.X.X.X.X.X.X.X.X.X.X.X.X.X.X.X.... ",
" XXX.X.XXXXXXXXXXXXXXXXXXXXXXXXXXXXXXXXXXXXXXXXXXXXXXXXXXX.X... ",
" XXXX.XXXX..XXX..XX....XX..X..XXXXX.....XXX....XX..XX..XXXX.... ",
" XXX.X.XXX...X...X..XX..X..X..XXXXX..XX..X..XX..X...X..XXX.X... ",
" XXXX.XXXX..X.X..X......X..X..XXXXX.....XX..XX..XXX..XXXXXX.... ",
" XXX.X.XXX..XXX..X..XX..X..X..XXXXX..XX..X..XX..X..X...XXX.X... ",
" XXXX.XXXX..XXX..X..XX..X..X......X.....XXX....XX..XX..XXXX.... ",
" XXX.X.XXXXXXXXXXXXXXXXXXXXXXXXXXXXXXXXXXXXXXXXXXXXXXXXXXX.X... ",
" XXXX.X...................................................X.... ",
" XXX.X.....................................................X... ",
" XXXX.X...................................................X.... ",
" XXX.X.X.X.X.X.X.X.X.X.X.X.X.X.X.X.X.X.X.X.X.X.X.X.X.X.X.X.X... ",
" XXXX.X.X.X.X.X.X.X.X.X.X.X.X.X.X.X.X.X.X.X.X.X.X.X.X.X.X.X.... ",
" XX............................................................ ",
" X............................................................. ",
" .............................................................. ",
"                                                                ",
"                                                                ",
"                                                                ",
"                                                                ",
"                                                                ",
"                                                                ",
"                                                                ",
"                                                                ",
"                                                                ",
"                                                                ",
"                                                                ",
"                                                                ",
"                                                                ",
"                                                                ",
"                                                                ",
"                                                                ",
"                                                                ",
"                                                                ",
"                                                                ",
"                                                                ",
"                                                                ",
"                                                                ",
"                                                                ",
"                                                                ",
"                                                                ",
"                                                                ",
"                                                                ",
"                                                                ",
"                                                                ",
"                                                                ",
"                                                                ",
"                                                                ",
"                                                                ",
"                                                                ",
"                                                                ",
"                                                                ",
"                                                                ",
"                                                                ",
"                                                                ",
"                                                                ",
"                                                                ",
"                                                                ",
"                                                                "};
