/* XPM */
static char *xpovicon[] = {
/* width height num_colors chars_per_pixel */
"    48    48        9            1",
/* colors */
"  c none",
"# c #a20309",
"a c #30814f",
"b c #383838",
"c c #81050b",
"d c #04983f",
"e c #0f6632",
"f c #757570",
"g c #bb0306",
/* pixels */
"                                                ",
"                                                ",
"                                   bd           ",
"                                   ed           ",
"                                   ea           ",
"                                  bedd          ",
"                                  bead          ",
"            #####                 bedd          ",
"         c####ggggggg            bbeadd         ",
"       cc#c###g#ggggggg          beeadd         ",
"     cccc#####ggggggggggg        beeaddd        ",
"    bccccc######gggggggggg      bbeeaddd        ",
"   bcccc#c###g#gggggggggggg     bbeeaddd        ",
"  bcbccccc######gggggggggggg    bbeeadddd       ",
" bbbccccc#c####g#gggggggggcg   bbeeeadddd       ",
" bcbbcccccc#####g#ggggggggcgg  bbbeeaaddd       ",
"bbbccbccc#cc######ggggggggcb#  bbeeeaddddd      ",
"bbbbbccccccc#c#######gggggbbg#bbbbeeaadddd      ",
"bbbcbcbcccc#c######g##g#g#bbb#bbeeeeaadddd      ",
"bbbbbcbccccccc#c########g#bbb#bbbeeeaaddddd     ",
"bbbcbcbcbcccccc#c#####g##gbbbbbbbeeeaaddddd     ",
"bbbbbbcbcccccccc#c########bbbbbebeeeaaddddd     ",
"bbbbcbbcbcbcccccc#cc#####cbbbbbbeeeeaadddddd    ",
"bbbbbbbbcbcccccccc#cc#cc#bbbbbbbbeeeaaaddddd    ",
"bbbbbcbbcbcbcccccccccc#c#bbbbbbebeeeaaddddddbbbb",
"bbbbbbbbbbcbcbcccccccccccbbbbbbbeeeeaaaddddddbbb",
"bbbbbbbcbbcbcbcbccccccccbbbbbbebeeeeaaaddddddebb",
"bbbbbbbbbbbbcbccbcccccccbbbbbbbbeeeeaaaddddddbee",
"bbbbbbbbbbcbbbbcbcbcccccbbbbbbebeeeeaaadddddddfc",
"bbbbbbbbbbbbbcbbcbcbbcbbbbbbbbbbeeeeaaaaddddddee",
"bbbbbbbbbbbbbbbbbbcbcbcbbbbbbebeeeeaaadaddddddff",
"ebbbbbbbbbbbbbcbcbbbbbbbbbbbbbbbeeeeeaaaddddddaf",
"fbbbbbbbbbbbbbbbbbcbcbbbbbbbbeebeeeaaaadaddddddf",
"febbbbbbbbbbbbbbbbbbbbbbbbbbbbbeeeeeeaaaddddddda",
"fefbbbbbbbbbbbbbbbbbbbbbbbbbbebeeeeaaaadaddddddd",
"bbbbbbbbbbbbbbbbbbbbbbbbbbbbbebbeeeeeaaaaddddddd",
"bbbbbbbbbbbbbbbbbbbbbbbbbbbbbbeeeeeaaaadaddddddd",
"bbbbbbbbbbbbbbbbbbbbbbbbbbbbebebeeeeeaaadadddddd",
"bbbbbbbbbbbbbbbbbbbbbbbbbbbbbbeeeeeaeaaadadddddd",
"bbbbbbbbbbbbbbbbbbbbbbbbbbbbebbeeeeeaaaaaddddddd",
"bbbbbbbbbbbbbbbbbbbbbbbbbbbbebebeeeeaaaadadddddd",
"ffffffffffffffffffbbbbbbbebbbbeeeeaeeaaaaaaddddd",
"ffffffffffffffffffffbbbbbbbeebebeeeaeaadaddddddd",
"ffffffffffffffffffffffbbbbbbebeeeeeeaaaadaaddddd",
"ffffffffffffffffffffffffbbbbbebeeeeeaeaaadaddddd",
"ffffffffffffffffffffffffffaffbeeeeeaeaaaaadadddf",
"fffffffffffffffffffffffffffffffffffffafaffffffff",
"ffffffffffffffffffffffffffffffffffffffffffffffff"
};
