/* XPM */
static char * xscrabble_xpm[] = {
"61 61 6 1",
" 	c #000000000000",
".	c #FFFF00000000",
"X	c #2626FFFF4E4E",
"o	c #3838A9A9FFFF",
"O	c #FFFFBFBFCECE",
"+	c #00000000FFFF",
"                                                             ",
" ... XXX XXX ooo XXX XXX XXX ... XXX XXX XXX ooo XXX XXX ... ",
" ... XXX XXX ooo XXX XXX XXX ... XXX XXX XXX ooo XXX XXX ... ",
" ... XXX XXX ooo XXX XXX XXX ... XXX XXX XXX ooo XXX XXX ... ",
"                                                             ",
" XXX OOO XXX XXX XXX +++ XXX XXX XXX +++ XXX XXX XXX OOO XXX ",
" XXX OOO XXX XXX XXX +++ XXX XXX XXX +++ XXX XXX XXX OOO XXX ",
" XXX OOO XXX XXX XXX +++ XXX XXX XXX +++ XXX XXX XXX OOO XXX ",
"                                                             ",
" XXX XXX OOO XXX XXX XXX ooo XXX ooo XXX XXX XXX OOO XXX XXX ",
" XXX XXX OOO XXX XXX XXX ooo XXX ooo XXX XXX XXX OOO XXX XXX ",
" XXX XXX OOO XXX XXX XXX ooo XXX ooo XXX XXX XXX OOO XXX XXX ",
"                                                             ",
" ooo XXX XXX OOO XXX XXX XXX ooo XXX XXX XXX OOO XXX XXX ooo ",
" ooo XXX XXX OOO XXX XXX XXX ooo XXX XXX XXX OOO XXX XXX ooo ",
" ooo XXX XXX OOO XXX XXX XXX ooo XXX XXX XXX OOO XXX XXX ooo ",
"                                                             ",
" XXX XXX XXX XXX OOO XXX XXX XXX XXX XXX OOO XXX XXX XXX XXX ",
" XXX XXX XXX XXX OOO XXX XXX XXX XXX XXX OOO XXX XXX XXX XXX ",
" XXX XXX XXX XXX OOO XXX XXX XXX XXX XXX OOO XXX XXX XXX XXX ",
"                                                             ",
" XXX +++ XXX XXX XXX +++ XXX XXX XXX +++ XXX XXX XXX +++ XXX ",
" XXX +++ XXX XXX XXX +++ XXX XXX XXX +++ XXX XXX XXX +++ XXX ",
" XXX +++ XXX XXX XXX +++ XXX XXX XXX +++ XXX XXX XXX +++ XXX ",
"                                                             ",
" XXX XXX ooo XXX XXX XXX ooo XXX ooo XXX XXX XXX ooo XXX XXX ",
" XXX XXX ooo XXX XXX XXX ooo XXX ooo XXX XXX XXX ooo XXX XXX ",
" XXX XXX ooo XXX XXX XXX ooo XXX ooo XXX XXX XXX ooo XXX XXX ",
"                                                             ",
" ... XXX XXX ooo XXX XXX XXX OOO XXX XXX XXX ooo XXX XXX ... ",
" ... XXX XXX ooo XXX XXX XXX OOO XXX XXX XXX ooo XXX XXX ... ",
" ... XXX XXX ooo XXX XXX XXX OOO XXX XXX XXX ooo XXX XXX ... ",
"                                                             ",
" XXX XXX ooo XXX XXX XXX ooo XXX ooo XXX XXX XXX ooo XXX XXX ",
" XXX XXX ooo XXX XXX XXX ooo XXX ooo XXX XXX XXX ooo XXX XXX ",
" XXX XXX ooo XXX XXX XXX ooo XXX ooo XXX XXX XXX ooo XXX XXX ",
"                                                             ",
" XXX +++ XXX XXX XXX +++ XXX XXX XXX +++ XXX XXX XXX +++ XXX ",
" XXX +++ XXX XXX XXX +++ XXX XXX XXX +++ XXX XXX XXX +++ XXX ",
" XXX +++ XXX XXX XXX +++ XXX XXX XXX +++ XXX XXX XXX +++ XXX ",
"                                                             ",
" XXX XXX XXX XXX OOO XXX XXX XXX XXX XXX OOO XXX XXX XXX XXX ",
" XXX XXX XXX XXX OOO XXX XXX XXX XXX XXX OOO XXX XXX XXX XXX ",
" XXX XXX XXX XXX OOO XXX XXX XXX XXX XXX OOO XXX XXX XXX XXX ",
"                                                             ",
" ooo XXX XXX OOO XXX XXX XXX ooo XXX XXX XXX OOO XXX XXX ooo ",
" ooo XXX XXX OOO XXX XXX XXX ooo XXX XXX XXX OOO XXX XXX ooo ",
" ooo XXX XXX OOO XXX XXX XXX ooo XXX XXX XXX OOO XXX XXX ooo ",
"                                                             ",
" XXX XXX OOO XXX XXX XXX ooo XXX ooo XXX XXX XXX OOO XXX XXX ",
" XXX XXX OOO XXX XXX XXX ooo XXX ooo XXX XXX XXX OOO XXX XXX ",
" XXX XXX OOO XXX XXX XXX ooo XXX ooo XXX XXX XXX OOO XXX XXX ",
"                                                             ",
" XXX OOO XXX XXX XXX +++ XXX XXX XXX +++ XXX XXX XXX OOO XXX ",
" XXX OOO XXX XXX XXX +++ XXX XXX XXX +++ XXX XXX XXX OOO XXX ",
" XXX OOO XXX XXX XXX +++ XXX XXX XXX +++ XXX XXX XXX OOO XXX ",
"                                                             ",
" ... XXX XXX ooo XXX XXX XXX ... XXX XXX XXX ooo XXX XXX ... ",
" ... XXX XXX ooo XXX XXX XXX ... XXX XXX XXX ooo XXX XXX ... ",
" ... XXX XXX ooo XXX XXX XXX ... XXX XXX XXX ooo XXX XXX ... ",
"                                                             "};
