/* XPM */
static char * xterm_xpm[] = {
"50 50 10 1",
" 	c none",
".	s bottomShadowColor	m black	c grey40",
"X	s iconGray1	m white	c grey89",
"o	s iconColor2	m white	c grey100",
"O	s iconGray2	m white	c grey79",
"+	s iconGray3	m white	c grey68",
"@	s iconGray7	m black	c grey29",
"#	c SteelBlue2",
"$	s iconGray4	m white	c grey59",
"%	s iconGray5	m black	c grey50",
"                                                  ",
"                                                  ",
"             .........................            ",
"           ...XooooooooooooooooooooooO..          ",
"         ...XoXoXoXoXoXoXoXoXoXoXoXoXoXO..        ",
"       ...XX+X+X+X+X+X+X+X+X+X+X+X+X+X+X+O..      ",
"       .XoooooooooooooooooooooooooooooooooO.O     ",
"       .oOOOOOOOOOOOOOOOOOOOOOOOOOOOOOOOOOO.O     ",
"       .oOOOOOOOOOOOOOOOOOOOOOOOOOOOOOOOOOO.O     ",
"       .oOO..............................OO.O     ",
"       .oOO.............................oOO.O     ",
"       .oOO..@@@@@@@@@@@@@@@@@@@@@@@@@@.oOO.O     ",
"       .oOO..@@@@@@@@@@@@@@@@@@@@@@@@@@.oOO.O     ",
"       .oOO..@@@@@@@@@@@@@@@@@@@@@@@@@@.oOO.O     ",
"       .oOO..@@@@#####@@@@@@@@###@@@@@@.oOO.O     ",
"       .oOO..@@@@@#####@@@@@@###@@@@@@@.oOO.O     ",
"       .oOO..@@@@@@#####@@@@###@@@@@@@@.oOO.O     ",
"       .oOO..@@@@@@@#####@@###@@@@@@@@@.oOO.O     ",
"       .oOO..@@@@@@@@########@@@@@@@@@@.oOO.O     ",
"       .oOO..@@@@@@@@@######@@@@@@@@@@@.oOO.O     ",
"       .oOO..@@@@@@@@@@#####@@@@@@@@@@@.oOO.O     ",
"       .oOO..@@@@@@@@@@######@@@@@@@@@@.oOO.O     ",
"       .oOO..@@@@@@@@@########@@@@@@@@@.oOO.O     ",
"       .oOO..@@@@@@@@###@@#####@@@@@@@@.oOO.O     ",
"       .oOO..@@@@@@@###@@@@#####@@@@@@@.oOO.O     ",
"       .oOO..@@@@@@###@@@@@@#####@@@@@@.oOO.O     ",
"       .oOO..@@@@@###@@@@@@@@#####@@@@@.oOO.O     ",
"       .oOO..@@@@###@@@@@@@@@@#####@@@@.oOO.O     ",
"       .oOO..@@@@@@@@@@@@@@@@@@@@@@@@@@.oOO.O     ",
"       .oOO..@@@@@@@@@@@@@@@@@@@@@@@@@@.oOO.O     ",
"       .oOO.............................oOO.O     ",
"       .oOO.oooooooooooooooooooooooooooooOO.O     ",
"       .oOOOOOOOOOOOOOOOOOOOOOOOOOOOOOOOOOO.O     ",
"       .OOOOOOOOOOOOOOOOOOOOOOOOOOOOOOOOOOO.O     ",
"       ....................................OO     ",
"        OOOOOOO......................OOOOOOO      ",
"              ........$$$$$$$$$......O            ",
"         ............%%%%%%%%%%%..........        ",
"        ..ooooooooooooooooooooooooooooooo.O       ",
"       ..oXXX.X.X.X.X.X.X.X.X.XXXX.X.X.XXo.O      ",
"      ..oXXX.+.+.+.+.+.+.+.+.+.+XXX.+.+.XXo.O     ",
"     ..oXXX.+.+.+.+.+.+.+.+.+.+.+XXX.+.+.XXo.O    ",
"    ..oXXX.+.+.+.+.+.+.+.+.+.+.+.+XXX.+.+.XXo.O   ",
"   ..oXXX.+.+.+++++++++++++++++.+.XXXX.+.+.XXo.O  ",
"   .+XXXXXXXXXXXXXXXXXXXXXXXXXXXXXXXXXXXXXXXXXX.O ",
"   .$$$$$$$$$$$$$$$$$$$$$$$$$$$$$$$$$$$$$$$$$$$.O ",
"   .$$$$$$$$$$$$$$$$$$$$$$$$$$$$$$$$$$$$$$$$$$$.O ",
"   .............................................O ",
"   .OOOOOOOOOOOOOOOOOOOOOOOOOOOOOOOOOOOOOOOOOOOOO ",
"                                                  "};
