/* XPM */
static char * xv_xpm[] = {
"44 34 6 1",
" 	s None	c None",
".	c black",
"X	c #FBEE14514103",
"O	c #86171C7128A2",
"@	c #D75C30C24514",
"+	c white",
"                                            ",
"                                            ",
"                                            ",
"                                            ",
"                                            ",
"                                            ",
"                                            ",
"                       ....                 ",
"                     .......                ",
"                   ........                 ",
"          XXXXXXXX.........                 ",
"       XXXXXXXXXXXXXXXX...                  ",
"    XXXXXXXOXXXXXXXXXXXXXXX                 ",
"   XXXXX+++OO@XXXXXXXXXXXXXXXX         ..   ",
"  XXXXXX+.+X@@OXXXXXXXXXXXXXXXXX     ....   ",
"  XXXXXX+++XXXXXXXXXXXXXXXXXXXXXXX.......   ",
"  XXXXXXXXXXXXXXXXXXXXXXXXXXXXXXXXXX.....   ",
"   XXXXXXXXXXXXXXXXXXXXXXXXXXXXXXXXXX...    ",
"    XXXXXXXXX..XXXXXXXXXXXXXXXXXXXXXXX..    ",
"     XXXXXXXX...XXXXXXXXXXXXXXXXXXXXXX..    ",
"       XXXXXX....XXXXXXXXXXXXXXXXXXXX...    ",
"         XXXXXX..XXXXXXXXXXXXXXXXXXX....    ",
"            XXXXXXXXXXXXXXXXXXXXXXX.....    ",
"                XX.......XXX       .....    ",
"                   .......          ....    ",
"                    ......           ....   ",
"                     .....            ...   ",
"                       ...             ..   ",
"                                            ",
"                                            ",
"                                            ",
"                                            ",
"                                            ",
"                                            "};
